<svg width="1440" height="1024" viewBox="0 0 1440 1024" fill="none" xmlns="http://www.w3.org/2000/svg" preserveAspectRatio="none">
<g clip-path="url(#clip0)">
<rect width="1440" height="1024" fill="white"/>
<path d="M661.989 133.529C781.065 -156.617 1034.46 195.469 1064.41 376.571C1089.99 531.307 1005.67 670.926 856.809 720.303C682.582 778.093 456.581 644.63 400.655 481.919C344.729 319.207 542.912 423.675 661.989 133.529Z" fill="#207FEB" fill-opacity="0.16"/>
<path d="M1321.45 871.481V735.305H1288.31V619.344H1205.46V871.481H1168.42V735.305H1103.11V677.324H1061.68V693.885H1044.14V701.139H1023.43V713.56H1011.73V871.481H998.568V677.324H937.404V871.481H928.386V767.418H849.672V871.481H845.532V598.625H766.818V871.481H745.128V668.522L666.414 620.892V753.954H644.724V724.955H593.316V871.481H489.132V644.707H407.124V871.481H318.546V563.416H236.538V729.095H210.294V689.745H128.286V767.418H101.97V871.481H78.696V677.324H0V1032.98H1440V871.481H1321.45Z" fill="#207FEB" fill-opacity="0.5"/>
<path d="M1398.4 739.301V928.579H1390.64V800.612H1348.09V928.651H1279.51V726.017H1228.45V928.579H1217.65V684.489C1217.66 677.97 1215.19 671.691 1210.73 666.932C1206.28 662.172 1200.18 659.291 1193.67 658.874L1192.12 594.071L1190.57 658.874C1184.07 659.286 1177.96 662.167 1173.51 666.927C1169.05 671.687 1166.58 677.968 1166.6 684.489V928.579H1100.14V746.213H1049.08V928.579H1007.37V785.239H949.086V928.579H916.2V679.215H894.096L892.296 601.217L890.496 679.215H861.156V729.365H824.67L806.67 698.007L788.67 729.401H785.07V699.807H733.662V928.597H723.708V825.813H700.128V794.744H660.798V773.143H618.858V809.018H599.994V630.81H586.422C584.317 625.399 580.73 620.69 576.073 617.223C571.415 613.756 565.876 611.672 560.088 611.208L558 527L555.984 611.046C550.069 611.381 544.375 613.411 539.581 616.893C534.787 620.375 531.096 625.163 528.948 630.684H518.148V928.579H508.194V745.151H459.522V928.579H443.808V745.151H409.374L375.606 686.271L341.82 745.151H308.556V928.579H300.69V834.813H247.23V928.669H235.692V854.344H208.98V928.579H184.86V802.574H144.504V928.579H141.876V845.776H115.2V834.813H88.416V928.669H80.55V787.363H42.75V745.151H15.588L13.41 654.067L11.232 745.151H0V1032.98H1440V739.301H1398.4Z" fill="#3B81D0"/>
<path d="M1359.79 777.031V846.658H1334.07V971.475H1284.41V894.9H1236.37V926.851H1221.03V1003.59H1161.18V883.451H1078.42V855.1H986.832V891.282H912.654V1003.59H833.184V878.627H778.374V1003.59H749.196V827.973H725.886V777.931H671.094V1003.59H649.008V838.827H563.184V1003.59H544.788V861.742H458.964V1003.59H409.302V853.894H314.892V881.039H226.602V1003.59H155.484V891.876H61.074V1003.59H50.022V849.682H0V1032.98H1440V777.031H1359.79Z" fill="#1657A2"/>
<path d="M1385.77 920.551V994.516H1352.83V956.066H1277.77V983.284H1202.69V1008.12H1143.04V925.879H1090.22V976.767H1063.82V1008.12H1048.68V951.926H954.324V1009.1H905.958V951.926H867.276V1008.12H849.258V987.55H810.594V1008.12H788.022V951.926H716.49V1008.12H705.078V951.926H666.414V1008.12H657.756V877.925H619.092V1009.1H573.03V920.551H517.824V942.134H462.636V973.563H427.914V925.879H368.73V914.143H275.112V925.879H207.162V956.066H180.756V938.282H137.898V920.551H0V1032.98H1440V920.551H1385.77Z" fill="#0E3259"/>
<g filter="url(#filter0_d)">
<path d="M573.981 299.84V367.88H522.461L573.141 299.84H573.981ZM573.981 400.64V446H611.781V400.64H637.821V367.88H611.781V250H576.221L491.101 364.24V400.64H573.981ZM687.847 347.16C687.847 343.8 687.847 339.787 687.847 335.12C688.034 330.267 688.407 325.32 688.967 320.28C689.527 315.24 690.46 310.293 691.767 305.44C693.074 300.4 694.847 295.92 697.087 292C699.514 288.08 702.5 284.907 706.047 282.48C709.78 280.053 714.354 278.84 719.767 278.84C725.18 278.84 729.754 280.053 733.487 282.48C737.22 284.907 740.3 288.08 742.727 292C745.154 295.92 746.927 300.4 748.047 305.44C749.354 310.293 750.287 315.24 750.847 320.28C751.594 325.32 751.967 330.267 751.967 335.12C752.154 339.787 752.247 343.8 752.247 347.16C752.247 352.76 752.06 359.573 751.687 367.6C751.314 375.44 750.1 383.093 748.047 390.56C746.18 397.84 743.007 404.093 738.527 409.32C734.234 414.547 727.98 417.16 719.767 417.16C711.74 417.16 705.58 414.547 701.287 409.32C696.994 404.093 693.82 397.84 691.767 390.56C689.9 383.093 688.78 375.44 688.407 367.6C688.034 359.573 687.847 352.76 687.847 347.16ZM648.087 347.16C648.087 366.76 649.954 383.187 653.687 396.44C657.607 409.507 662.834 419.96 669.367 427.8C675.9 435.64 683.46 441.24 692.047 444.6C700.82 447.96 710.06 449.64 719.767 449.64C729.66 449.64 738.9 447.96 747.487 444.6C756.26 441.24 763.914 435.64 770.447 427.8C777.167 419.96 782.394 409.507 786.127 396.44C790.047 383.187 792.007 366.76 792.007 347.16C792.007 328.12 790.047 312.16 786.127 299.28C782.394 286.213 777.167 275.76 770.447 267.92C763.914 260.08 756.26 254.48 747.487 251.12C738.9 247.76 729.66 246.08 719.767 246.08C710.06 246.08 700.82 247.76 692.047 251.12C683.46 254.48 675.9 260.08 669.367 267.92C662.834 275.76 657.607 286.213 653.687 299.28C649.954 312.16 648.087 328.12 648.087 347.16ZM885.153 299.84V367.88H833.633L884.313 299.84H885.153ZM885.153 400.64V446H922.953V400.64H948.993V367.88H922.953V250H887.393L802.273 364.24V400.64H885.153Z" fill="#0E3259"/>
</g>
<path d="M420.55 504.25H417.15C417.05 506.45 417.333 508.333 418 509.9C418.7 511.467 419.683 512.75 420.95 513.75C422.216 514.75 423.75 515.5 425.55 516C427.35 516.467 429.3 516.7 431.4 516.7C433.5 516.7 435.3 516.5 436.8 516.1C438.3 515.733 439.55 515.25 440.55 514.65C441.583 514.017 442.383 513.317 442.95 512.55C443.55 511.783 444 511.033 444.3 510.3C444.633 509.533 444.833 508.817 444.9 508.15C445 507.483 445.05 506.95 445.05 506.55C445.05 505.083 444.8 503.833 444.3 502.8C443.833 501.767 443.166 500.9 442.3 500.2C441.466 499.467 440.483 498.867 439.35 498.4C438.25 497.9 437.066 497.483 435.8 497.15L427.1 495C426.366 494.833 425.666 494.617 425 494.35C424.366 494.083 423.8 493.733 423.3 493.3C422.8 492.867 422.4 492.35 422.1 491.75C421.833 491.117 421.7 490.383 421.7 489.55C421.7 488.217 421.95 487.1 422.45 486.2C422.95 485.3 423.6 484.583 424.4 484.05C425.233 483.483 426.183 483.083 427.25 482.85C428.35 482.583 429.483 482.45 430.65 482.45C431.916 482.45 433.116 482.633 434.25 483C435.416 483.333 436.433 483.85 437.3 484.55C438.2 485.217 438.916 486.067 439.45 487.1C440.016 488.1 440.333 489.283 440.4 490.65H443.8C443.8 488.817 443.433 487.217 442.7 485.85C442 484.45 441.05 483.283 439.85 482.35C438.65 481.417 437.25 480.717 435.65 480.25C434.05 479.783 432.366 479.55 430.6 479.55C428.1 479.55 426.05 479.917 424.45 480.65C422.85 481.35 421.583 482.217 420.65 483.25C419.75 484.283 419.133 485.383 418.8 486.55C418.466 487.717 418.3 488.733 418.3 489.6C418.3 491 418.516 492.183 418.95 493.15C419.416 494.117 420.016 494.933 420.75 495.6C421.483 496.267 422.333 496.8 423.3 497.2C424.3 497.6 425.316 497.933 426.35 498.2L434.3 500.15C435.133 500.35 435.983 500.617 436.85 500.95C437.716 501.25 438.5 501.65 439.2 502.15C439.933 502.65 440.516 503.267 440.95 504C441.416 504.733 441.65 505.6 441.65 506.6C441.65 507.9 441.333 509.017 440.7 509.95C440.066 510.85 439.266 511.6 438.3 512.2C437.366 512.767 436.35 513.183 435.25 513.45C434.15 513.717 433.133 513.85 432.2 513.85C430.566 513.85 429.033 513.7 427.6 513.4C426.166 513.067 424.916 512.533 423.85 511.8C422.816 511.067 422 510.083 421.4 508.85C420.8 507.617 420.516 506.083 420.55 504.25ZM451.944 498.15C451.944 496.183 452.194 494.267 452.694 492.4C453.227 490.533 454.027 488.867 455.094 487.4C456.194 485.9 457.594 484.7 459.294 483.8C460.994 482.9 463.027 482.45 465.394 482.45C467.76 482.45 469.777 482.9 471.444 483.8C473.144 484.7 474.527 485.9 475.594 487.4C476.694 488.867 477.494 490.533 477.994 492.4C478.527 494.267 478.794 496.183 478.794 498.15C478.794 500.083 478.527 502 477.994 503.9C477.494 505.767 476.694 507.45 475.594 508.95C474.527 510.417 473.144 511.6 471.444 512.5C469.777 513.4 467.76 513.85 465.394 513.85C463.027 513.85 460.994 513.4 459.294 512.5C457.594 511.6 456.194 510.417 455.094 508.95C454.027 507.45 453.227 505.767 452.694 503.9C452.194 502 451.944 500.083 451.944 498.15ZM448.544 498.15C448.544 500.617 448.894 502.967 449.594 505.2C450.294 507.433 451.344 509.4 452.744 511.1C454.144 512.8 455.894 514.167 457.994 515.2C460.127 516.2 462.594 516.7 465.394 516.7C468.194 516.7 470.644 516.2 472.744 515.2C474.844 514.167 476.594 512.8 477.994 511.1C479.394 509.4 480.444 507.433 481.144 505.2C481.844 502.967 482.194 500.617 482.194 498.15C482.194 495.683 481.844 493.333 481.144 491.1C480.444 488.867 479.394 486.9 477.994 485.2C476.594 483.467 474.844 482.1 472.744 481.1C470.644 480.067 468.194 479.55 465.394 479.55C462.594 479.55 460.127 480.067 457.994 481.1C455.894 482.1 454.144 483.467 452.744 485.2C451.344 486.9 450.294 488.867 449.594 491.1C448.894 493.333 448.544 495.683 448.544 498.15ZM490.904 497.25V483.2H503.604C506.204 483.2 508.138 483.833 509.404 485.1C510.671 486.367 511.304 488.1 511.304 490.3C511.304 491.4 511.088 492.383 510.654 493.25C510.254 494.083 509.704 494.8 509.004 495.4C508.304 496 507.488 496.467 506.554 496.8C505.621 497.1 504.638 497.25 503.604 497.25H490.904ZM487.504 480.3V516H490.904V500.15H503.804C505.404 500.083 506.654 500.35 507.554 500.95C508.488 501.55 509.188 502.35 509.654 503.35C510.154 504.317 510.471 505.433 510.604 506.7C510.771 507.933 510.888 509.183 510.954 510.45C510.988 510.817 511.021 511.25 511.054 511.75C511.088 512.25 511.121 512.767 511.154 513.3C511.221 513.8 511.304 514.3 511.404 514.8C511.538 515.267 511.704 515.667 511.904 516H515.654C515.288 515.567 514.988 514.967 514.754 514.2C514.554 513.4 514.404 512.567 514.304 511.7C514.204 510.8 514.138 509.917 514.104 509.05C514.071 508.183 514.038 507.45 514.004 506.85C513.938 505.783 513.788 504.8 513.554 503.9C513.354 502.967 513.004 502.15 512.504 501.45C512.038 500.75 511.421 500.183 510.654 499.75C509.888 499.283 508.921 498.967 507.754 498.8V498.7C510.054 498.233 511.788 497.167 512.954 495.5C514.121 493.833 514.704 491.867 514.704 489.6C514.704 488 514.404 486.617 513.804 485.45C513.238 484.25 512.454 483.283 511.454 482.55C510.488 481.783 509.338 481.217 508.004 480.85C506.704 480.483 505.321 480.3 503.854 480.3H487.504ZM524.254 497.25V483.2H536.954C539.554 483.2 541.487 483.833 542.754 485.1C544.021 486.367 544.654 488.1 544.654 490.3C544.654 491.4 544.437 492.383 544.004 493.25C543.604 494.083 543.054 494.8 542.354 495.4C541.654 496 540.837 496.467 539.904 496.8C538.971 497.1 537.987 497.25 536.954 497.25H524.254ZM520.854 480.3V516H524.254V500.15H537.154C538.754 500.083 540.004 500.35 540.904 500.95C541.837 501.55 542.537 502.35 543.004 503.35C543.504 504.317 543.821 505.433 543.954 506.7C544.121 507.933 544.237 509.183 544.304 510.45C544.337 510.817 544.371 511.25 544.404 511.75C544.437 512.25 544.471 512.767 544.504 513.3C544.571 513.8 544.654 514.3 544.754 514.8C544.887 515.267 545.054 515.667 545.254 516H549.004C548.637 515.567 548.337 514.967 548.104 514.2C547.904 513.4 547.754 512.567 547.654 511.7C547.554 510.8 547.487 509.917 547.454 509.05C547.421 508.183 547.387 507.45 547.354 506.85C547.287 505.783 547.137 504.8 546.904 503.9C546.704 502.967 546.354 502.15 545.854 501.45C545.387 500.75 544.771 500.183 544.004 499.75C543.237 499.283 542.271 498.967 541.104 498.8V498.7C543.404 498.233 545.137 497.167 546.304 495.5C547.471 493.833 548.054 491.867 548.054 489.6C548.054 488 547.754 486.617 547.154 485.45C546.587 484.25 545.804 483.283 544.804 482.55C543.837 481.783 542.687 481.217 541.354 480.85C540.054 480.483 538.671 480.3 537.204 480.3H520.854ZM563.519 501.3V516H566.919V501.3L581.019 480.3H576.969L565.269 498.4L553.519 480.3H549.519L563.519 501.3ZM583.433 510.7H579.233V516H581.333C581.366 516.367 581.333 516.783 581.233 517.25C581.166 517.75 581.033 518.217 580.833 518.65C580.633 519.117 580.383 519.533 580.083 519.9C579.783 520.267 579.433 520.517 579.033 520.65V522.8C579.766 522.6 580.399 522.267 580.933 521.8C581.499 521.333 581.966 520.783 582.333 520.15C582.699 519.55 582.966 518.883 583.133 518.15C583.333 517.45 583.433 516.733 583.433 516V510.7ZM609.215 497.8V483.2H620.915C623.282 483.2 625.198 483.8 626.665 485C628.132 486.2 628.865 488.033 628.865 490.5C628.865 492.967 628.132 494.8 626.665 496C625.198 497.2 623.282 497.8 620.915 497.8H609.215ZM605.815 480.3V516H609.215V500.7H621.665C623.265 500.7 624.715 500.483 626.015 500.05C627.315 499.583 628.432 498.917 629.365 498.05C630.298 497.15 631.015 496.067 631.515 494.8C632.015 493.533 632.265 492.1 632.265 490.5C632.265 488.9 632.015 487.467 631.515 486.2C631.015 484.933 630.298 483.867 629.365 483C628.432 482.1 627.315 481.433 626.015 481C624.715 480.533 623.265 480.3 621.665 480.3H605.815ZM638.648 502L645.798 483.7L652.698 502H638.648ZM644.048 480.3L629.698 516H633.298L637.598 504.9H653.848L658.198 516H661.848L647.848 480.3H644.048ZM695.592 516V497.85H680.442V500.75H692.592C692.626 502.65 692.376 504.4 691.842 506C691.309 507.6 690.509 508.983 689.442 510.15C688.376 511.317 687.059 512.233 685.492 512.9C683.959 513.533 682.209 513.85 680.242 513.85C677.876 513.85 675.842 513.4 674.142 512.5C672.442 511.6 671.042 510.417 669.942 508.95C668.876 507.45 668.076 505.767 667.542 503.9C667.042 502 666.792 500.083 666.792 498.15C666.792 496.183 667.042 494.267 667.542 492.4C668.076 490.533 668.876 488.867 669.942 487.4C671.042 485.9 672.442 484.7 674.142 483.8C675.842 482.9 677.876 482.45 680.242 482.45C681.942 482.45 683.476 482.733 684.842 483.3C686.209 483.833 687.376 484.533 688.342 485.4C689.342 486.267 690.126 487.233 690.692 488.3C691.292 489.333 691.642 490.367 691.742 491.4H695.142C694.809 489.433 694.192 487.717 693.292 486.25C692.392 484.783 691.292 483.55 689.992 482.55C688.692 481.55 687.209 480.8 685.542 480.3C683.876 479.8 682.109 479.55 680.242 479.55C677.442 479.55 674.976 480.067 672.842 481.1C670.742 482.1 668.992 483.467 667.592 485.2C666.192 486.9 665.142 488.867 664.442 491.1C663.742 493.333 663.392 495.683 663.392 498.15C663.392 500.617 663.742 502.967 664.442 505.2C665.142 507.433 666.192 509.4 667.592 511.1C668.992 512.8 670.742 514.167 672.842 515.2C674.976 516.2 677.442 516.7 680.242 516.7C681.542 516.7 682.792 516.567 683.992 516.3C685.226 516.033 686.376 515.617 687.442 515.05C688.509 514.45 689.476 513.7 690.342 512.8C691.242 511.867 691.992 510.767 692.592 509.5H692.692L693.142 516H695.592ZM702.153 480.3V516H727.053V513.1H705.553V499H725.453V496.1H705.553V483.2H726.803V480.3H702.153ZM745.657 480.3V516H749.057V485.8H749.157L769.957 516H773.757V480.3H770.357V510.5H770.257L749.457 480.3H745.657ZM782.413 498.15C782.413 496.183 782.663 494.267 783.163 492.4C783.696 490.533 784.496 488.867 785.563 487.4C786.663 485.9 788.063 484.7 789.763 483.8C791.463 482.9 793.496 482.45 795.863 482.45C798.229 482.45 800.246 482.9 801.913 483.8C803.613 484.7 804.996 485.9 806.063 487.4C807.163 488.867 807.963 490.533 808.463 492.4C808.996 494.267 809.263 496.183 809.263 498.15C809.263 500.083 808.996 502 808.463 503.9C807.963 505.767 807.163 507.45 806.063 508.95C804.996 510.417 803.613 511.6 801.913 512.5C800.246 513.4 798.229 513.85 795.863 513.85C793.496 513.85 791.463 513.4 789.763 512.5C788.063 511.6 786.663 510.417 785.563 508.95C784.496 507.45 783.696 505.767 783.163 503.9C782.663 502 782.413 500.083 782.413 498.15ZM779.013 498.15C779.013 500.617 779.363 502.967 780.063 505.2C780.763 507.433 781.813 509.4 783.213 511.1C784.613 512.8 786.363 514.167 788.463 515.2C790.596 516.2 793.063 516.7 795.863 516.7C798.663 516.7 801.113 516.2 803.213 515.2C805.313 514.167 807.063 512.8 808.463 511.1C809.863 509.4 810.913 507.433 811.613 505.2C812.313 502.967 812.663 500.617 812.663 498.15C812.663 495.683 812.313 493.333 811.613 491.1C810.913 488.867 809.863 486.9 808.463 485.2C807.063 483.467 805.313 482.1 803.213 481.1C801.113 480.067 798.663 479.55 795.863 479.55C793.063 479.55 790.596 480.067 788.463 481.1C786.363 482.1 784.613 483.467 783.213 485.2C781.813 486.9 780.763 488.867 780.063 491.1C779.363 493.333 779.013 495.683 779.013 498.15ZM814.173 480.3V483.2H826.573V516H829.973V483.2H842.423V480.3H814.173ZM859.672 480.3V516H863.072V499H880.172V496.1H863.072V483.2H882.322V480.3H859.672ZM888.028 498.15C888.028 496.183 888.278 494.267 888.778 492.4C889.311 490.533 890.111 488.867 891.178 487.4C892.278 485.9 893.678 484.7 895.378 483.8C897.078 482.9 899.111 482.45 901.478 482.45C903.844 482.45 905.861 482.9 907.528 483.8C909.228 484.7 910.611 485.9 911.678 487.4C912.778 488.867 913.578 490.533 914.078 492.4C914.611 494.267 914.878 496.183 914.878 498.15C914.878 500.083 914.611 502 914.078 503.9C913.578 505.767 912.778 507.45 911.678 508.95C910.611 510.417 909.228 511.6 907.528 512.5C905.861 513.4 903.844 513.85 901.478 513.85C899.111 513.85 897.078 513.4 895.378 512.5C893.678 511.6 892.278 510.417 891.178 508.95C890.111 507.45 889.311 505.767 888.778 503.9C888.278 502 888.028 500.083 888.028 498.15ZM884.628 498.15C884.628 500.617 884.978 502.967 885.678 505.2C886.378 507.433 887.428 509.4 888.828 511.1C890.228 512.8 891.978 514.167 894.078 515.2C896.211 516.2 898.678 516.7 901.478 516.7C904.278 516.7 906.728 516.2 908.828 515.2C910.928 514.167 912.678 512.8 914.078 511.1C915.478 509.4 916.528 507.433 917.228 505.2C917.928 502.967 918.278 500.617 918.278 498.15C918.278 495.683 917.928 493.333 917.228 491.1C916.528 488.867 915.478 486.9 914.078 485.2C912.678 483.467 910.928 482.1 908.828 481.1C906.728 480.067 904.278 479.55 901.478 479.55C898.678 479.55 896.211 480.067 894.078 481.1C891.978 482.1 890.228 483.467 888.828 485.2C887.428 486.9 886.378 488.867 885.678 491.1C884.978 493.333 884.628 495.683 884.628 498.15ZM923.238 480.3V503.15C923.238 504.983 923.488 506.733 923.988 508.4C924.522 510.033 925.338 511.467 926.438 512.7C927.572 513.933 929.005 514.917 930.738 515.65C932.505 516.35 934.622 516.7 937.088 516.7C939.588 516.7 941.705 516.35 943.438 515.65C945.205 514.917 946.638 513.933 947.738 512.7C948.872 511.467 949.688 510.033 950.188 508.4C950.722 506.733 950.988 504.983 950.988 503.15V480.3H947.588V502.4C947.588 504.467 947.355 506.233 946.888 507.7C946.422 509.133 945.738 510.317 944.838 511.25C943.938 512.15 942.838 512.817 941.538 513.25C940.238 513.65 938.755 513.85 937.088 513.85C935.455 513.85 933.988 513.65 932.688 513.25C931.388 512.817 930.288 512.15 929.388 511.25C928.488 510.317 927.805 509.133 927.338 507.7C926.872 506.233 926.638 504.467 926.638 502.4V480.3H923.238ZM957.767 480.3V516H961.167V485.8H961.267L982.067 516H985.867V480.3H982.467V510.5H982.367L961.567 480.3H957.767ZM993.022 480.3V516H1005.37C1010.81 515.867 1014.89 514.35 1017.62 511.45C1020.39 508.517 1021.77 504.083 1021.77 498.15C1021.77 492.217 1020.39 487.8 1017.62 484.9C1014.89 481.967 1010.81 480.433 1005.37 480.3H993.022ZM996.422 513.1V483.2H1003.67C1006.24 483.2 1008.44 483.483 1010.27 484.05C1012.14 484.583 1013.67 485.45 1014.87 486.65C1016.07 487.85 1016.96 489.4 1017.52 491.3C1018.09 493.2 1018.37 495.483 1018.37 498.15C1018.37 500.817 1018.09 503.1 1017.52 505C1016.96 506.9 1016.07 508.45 1014.87 509.65C1013.67 510.85 1012.14 511.733 1010.27 512.3C1008.44 512.833 1006.24 513.1 1003.67 513.1H996.422Z" fill="black"/>
<path d="M1091.88 32.15V50H1094.26V41.825H1103.66V50H1106.03V32.15H1103.66V39.825H1094.26V32.15H1091.88ZM1111.12 43.55C1111.12 42.7667 1111.22 42.075 1111.42 41.475C1111.64 40.8583 1111.93 40.3417 1112.3 39.925C1112.66 39.5083 1113.09 39.1917 1113.57 38.975C1114.07 38.7583 1114.6 38.65 1115.15 38.65C1115.7 38.65 1116.21 38.7583 1116.7 38.975C1117.2 39.1917 1117.63 39.5083 1118 39.925C1118.36 40.3417 1118.65 40.8583 1118.85 41.475C1119.06 42.075 1119.17 42.7667 1119.17 43.55C1119.17 44.3333 1119.06 45.0333 1118.85 45.65C1118.65 46.25 1118.36 46.7583 1118 47.175C1117.63 47.575 1117.2 47.8833 1116.7 48.1C1116.21 48.3167 1115.7 48.425 1115.15 48.425C1114.6 48.425 1114.07 48.3167 1113.57 48.1C1113.09 47.8833 1112.66 47.575 1112.3 47.175C1111.93 46.7583 1111.64 46.25 1111.42 45.65C1111.22 45.0333 1111.12 44.3333 1111.12 43.55ZM1108.87 43.55C1108.87 44.5 1109.01 45.3833 1109.27 46.2C1109.54 47.0167 1109.94 47.7333 1110.47 48.35C1111.01 48.95 1111.66 49.425 1112.45 49.775C1113.23 50.1083 1114.13 50.275 1115.15 50.275C1116.18 50.275 1117.08 50.1083 1117.85 49.775C1118.63 49.425 1119.29 48.95 1119.82 48.35C1120.36 47.7333 1120.76 47.0167 1121.02 46.2C1121.29 45.3833 1121.42 44.5 1121.42 43.55C1121.42 42.6 1121.29 41.7167 1121.02 40.9C1120.76 40.0667 1120.36 39.35 1119.82 38.75C1119.29 38.1333 1118.63 37.65 1117.85 37.3C1117.08 36.95 1116.18 36.775 1115.15 36.775C1114.13 36.775 1113.23 36.95 1112.45 37.3C1111.66 37.65 1111.01 38.1333 1110.47 38.75C1109.94 39.35 1109.54 40.0667 1109.27 40.9C1109.01 41.7167 1108.87 42.6 1108.87 43.55ZM1123.93 37.075V50H1126.05V41.95C1126.05 41.7 1126.11 41.3917 1126.23 41.025C1126.36 40.6417 1126.56 40.275 1126.83 39.925C1127.11 39.575 1127.47 39.275 1127.9 39.025C1128.35 38.775 1128.89 38.65 1129.5 38.65C1129.99 38.65 1130.38 38.725 1130.68 38.875C1130.99 39.0083 1131.24 39.2083 1131.43 39.475C1131.61 39.725 1131.74 40.025 1131.8 40.375C1131.89 40.725 1131.93 41.1083 1131.93 41.525V50H1134.05V41.95C1134.05 40.95 1134.35 40.15 1134.95 39.55C1135.55 38.95 1136.38 38.65 1137.43 38.65C1137.94 38.65 1138.36 38.725 1138.68 38.875C1139.01 39.025 1139.27 39.2333 1139.45 39.5C1139.64 39.75 1139.76 40.05 1139.83 40.4C1139.89 40.75 1139.93 41.125 1139.93 41.525V50H1142.05V40.525C1142.05 39.8583 1141.94 39.2917 1141.73 38.825C1141.53 38.3417 1141.24 37.95 1140.85 37.65C1140.49 37.35 1140.04 37.1333 1139.5 37C1138.99 36.85 1138.4 36.775 1137.75 36.775C1136.9 36.775 1136.12 36.9667 1135.4 37.35C1134.7 37.7333 1134.14 38.275 1133.7 38.975C1133.44 38.175 1132.98 37.6083 1132.33 37.275C1131.68 36.9417 1130.95 36.775 1130.15 36.775C1128.34 36.775 1126.94 37.5083 1125.98 38.975H1125.93V37.075H1123.93ZM1154.22 42.3H1146.79C1146.82 41.8 1146.93 41.3333 1147.12 40.9C1147.3 40.45 1147.55 40.0583 1147.87 39.725C1148.18 39.3917 1148.56 39.1333 1148.99 38.95C1149.44 38.75 1149.94 38.65 1150.49 38.65C1151.02 38.65 1151.51 38.75 1151.94 38.95C1152.39 39.1333 1152.77 39.3917 1153.09 39.725C1153.42 40.0417 1153.68 40.425 1153.87 40.875C1154.07 41.325 1154.18 41.8 1154.22 42.3ZM1156.27 45.9H1154.17C1153.98 46.75 1153.6 47.3833 1153.02 47.8C1152.45 48.2167 1151.72 48.425 1150.82 48.425C1150.12 48.425 1149.51 48.3083 1148.99 48.075C1148.47 47.8417 1148.05 47.5333 1147.72 47.15C1147.38 46.75 1147.14 46.3 1146.99 45.8C1146.84 45.2833 1146.77 44.7417 1146.79 44.175H1156.47C1156.5 43.3917 1156.42 42.5667 1156.24 41.7C1156.07 40.8333 1155.76 40.0333 1155.29 39.3C1154.84 38.5667 1154.23 37.9667 1153.47 37.5C1152.72 37.0167 1151.77 36.775 1150.62 36.775C1149.73 36.775 1148.92 36.9417 1148.17 37.275C1147.43 37.6083 1146.79 38.075 1146.24 38.675C1145.71 39.275 1145.29 39.9833 1144.99 40.8C1144.69 41.6167 1144.54 42.5167 1144.54 43.5C1144.57 44.4833 1144.72 45.3917 1144.97 46.225C1145.23 47.0583 1145.62 47.775 1146.14 48.375C1146.66 48.975 1147.29 49.4417 1148.04 49.775C1148.81 50.1083 1149.71 50.275 1150.74 50.275C1152.21 50.275 1153.42 49.9083 1154.39 49.175C1155.36 48.4417 1155.98 47.35 1156.27 45.9Z" fill="black"/>
<rect x="1195" y="18" width="190" height="45" rx="22.5" fill="url(#paint0_linear)"/>
<path d="M1240.79 37.525H1243.17C1243.03 36.575 1242.75 35.7417 1242.32 35.025C1241.88 34.2917 1241.34 33.6833 1240.69 33.2C1240.04 32.7167 1239.3 32.35 1238.47 32.1C1237.63 31.85 1236.75 31.725 1235.82 31.725C1234.45 31.725 1233.23 31.975 1232.17 32.475C1231.12 32.9583 1230.23 33.625 1229.52 34.475C1228.82 35.325 1228.28 36.325 1227.92 37.475C1227.55 38.6083 1227.37 39.825 1227.37 41.125C1227.37 42.425 1227.53 43.6417 1227.87 44.775C1228.22 45.9083 1228.73 46.8917 1229.42 47.725C1230.1 48.5583 1230.96 49.2167 1231.99 49.7C1233.03 50.1667 1234.23 50.4 1235.62 50.4C1237.9 50.4 1239.7 49.775 1241.02 48.525C1242.33 47.275 1243.11 45.525 1243.34 43.275H1240.97C1240.92 44.0083 1240.77 44.6917 1240.52 45.325C1240.27 45.9583 1239.92 46.5083 1239.47 46.975C1239.03 47.425 1238.51 47.7833 1237.89 48.05C1237.29 48.3 1236.6 48.425 1235.82 48.425C1234.75 48.425 1233.83 48.225 1233.07 47.825C1232.3 47.425 1231.67 46.8917 1231.17 46.225C1230.68 45.5417 1230.33 44.75 1230.09 43.85C1229.86 42.9333 1229.74 41.9667 1229.74 40.95C1229.74 40.0167 1229.86 39.1167 1230.09 38.25C1230.33 37.3833 1230.68 36.6167 1231.17 35.95C1231.67 35.2667 1232.29 34.725 1233.04 34.325C1233.81 33.925 1234.73 33.725 1235.79 33.725C1237.04 33.725 1238.12 34.0417 1239.02 34.675C1239.93 35.3083 1240.53 36.2583 1240.79 37.525ZM1247.48 43.55C1247.48 42.7667 1247.58 42.075 1247.78 41.475C1248 40.8583 1248.29 40.3417 1248.66 39.925C1249.03 39.5083 1249.45 39.1917 1249.93 38.975C1250.43 38.7583 1250.96 38.65 1251.51 38.65C1252.06 38.65 1252.58 38.7583 1253.06 38.975C1253.56 39.1917 1253.99 39.5083 1254.36 39.925C1254.73 40.3417 1255.01 40.8583 1255.21 41.475C1255.43 42.075 1255.53 42.7667 1255.53 43.55C1255.53 44.3333 1255.43 45.0333 1255.21 45.65C1255.01 46.25 1254.73 46.7583 1254.36 47.175C1253.99 47.575 1253.56 47.8833 1253.06 48.1C1252.58 48.3167 1252.06 48.425 1251.51 48.425C1250.96 48.425 1250.43 48.3167 1249.93 48.1C1249.45 47.8833 1249.03 47.575 1248.66 47.175C1248.29 46.7583 1248 46.25 1247.78 45.65C1247.58 45.0333 1247.48 44.3333 1247.48 43.55ZM1245.23 43.55C1245.23 44.5 1245.37 45.3833 1245.63 46.2C1245.9 47.0167 1246.3 47.7333 1246.83 48.35C1247.37 48.95 1248.03 49.425 1248.81 49.775C1249.59 50.1083 1250.49 50.275 1251.51 50.275C1252.54 50.275 1253.44 50.1083 1254.21 49.775C1254.99 49.425 1255.65 48.95 1256.18 48.35C1256.72 47.7333 1257.12 47.0167 1257.38 46.2C1257.65 45.3833 1257.78 44.5 1257.78 43.55C1257.78 42.6 1257.65 41.7167 1257.38 40.9C1257.12 40.0667 1256.72 39.35 1256.18 38.75C1255.65 38.1333 1254.99 37.65 1254.21 37.3C1253.44 36.95 1252.54 36.775 1251.51 36.775C1250.49 36.775 1249.59 36.95 1248.81 37.3C1248.03 37.65 1247.37 38.1333 1246.83 38.75C1246.3 39.35 1245.9 40.0667 1245.63 40.9C1245.37 41.7167 1245.23 42.6 1245.23 43.55ZM1260.29 37.075V50H1262.41V42.7C1262.41 42.1167 1262.49 41.5833 1262.64 41.1C1262.81 40.6 1263.05 40.1667 1263.36 39.8C1263.68 39.4333 1264.07 39.15 1264.54 38.95C1265.02 38.75 1265.59 38.65 1266.24 38.65C1267.06 38.65 1267.7 38.8833 1268.16 39.35C1268.63 39.8167 1268.86 40.45 1268.86 41.25V50H1270.99V41.5C1270.99 40.8 1270.91 40.1667 1270.76 39.6C1270.63 39.0167 1270.39 38.5167 1270.04 38.1C1269.69 37.6833 1269.23 37.3583 1268.66 37.125C1268.1 36.8917 1267.39 36.775 1266.54 36.775C1264.62 36.775 1263.22 37.5583 1262.34 39.125H1262.29V37.075H1260.29ZM1277.13 37.075V33.2H1275.01V37.075H1272.81V38.95H1275.01V47.175C1275.01 47.775 1275.06 48.2583 1275.18 48.625C1275.3 48.9917 1275.47 49.275 1275.71 49.475C1275.96 49.675 1276.27 49.8167 1276.66 49.9C1277.06 49.9667 1277.53 50 1278.08 50H1279.71V48.125H1278.73C1278.4 48.125 1278.12 48.1167 1277.91 48.1C1277.71 48.0667 1277.55 48.0083 1277.43 47.925C1277.31 47.8417 1277.23 47.725 1277.18 47.575C1277.15 47.425 1277.13 47.225 1277.13 46.975V38.95H1279.71V37.075H1277.13ZM1293.52 49.95C1293.15 50.1667 1292.64 50.275 1291.99 50.275C1291.44 50.275 1291 50.125 1290.67 49.825C1290.35 49.5083 1290.19 49 1290.19 48.3C1289.61 49 1288.93 49.5083 1288.14 49.825C1287.38 50.125 1286.54 50.275 1285.64 50.275C1285.06 50.275 1284.5 50.2083 1283.97 50.075C1283.45 49.9417 1283 49.7333 1282.62 49.45C1282.23 49.1667 1281.93 48.8 1281.69 48.35C1281.48 47.8833 1281.37 47.325 1281.37 46.675C1281.37 45.9417 1281.49 45.3417 1281.74 44.875C1281.99 44.4083 1282.32 44.0333 1282.72 43.75C1283.13 43.45 1283.6 43.225 1284.12 43.075C1284.65 42.925 1285.19 42.8 1285.74 42.7C1286.33 42.5833 1286.88 42.5 1287.39 42.45C1287.93 42.3833 1288.39 42.3 1288.79 42.2C1289.19 42.0833 1289.51 41.925 1289.74 41.725C1289.98 41.5083 1290.09 41.2 1290.09 40.8C1290.09 40.3333 1290 39.9583 1289.82 39.675C1289.65 39.3917 1289.43 39.175 1289.14 39.025C1288.88 38.875 1288.57 38.775 1288.22 38.725C1287.88 38.675 1287.55 38.65 1287.22 38.65C1286.32 38.65 1285.57 38.825 1284.97 39.175C1284.37 39.5083 1284.04 40.15 1283.99 41.1H1281.87C1281.9 40.3 1282.07 39.625 1282.37 39.075C1282.67 38.525 1283.07 38.0833 1283.57 37.75C1284.07 37.4 1284.63 37.15 1285.27 37C1285.92 36.85 1286.61 36.775 1287.34 36.775C1287.93 36.775 1288.5 36.8167 1289.07 36.9C1289.65 36.9833 1290.18 37.1583 1290.64 37.425C1291.11 37.675 1291.48 38.0333 1291.77 38.5C1292.05 38.9667 1292.19 39.575 1292.19 40.325V46.975C1292.19 47.475 1292.22 47.8417 1292.27 48.075C1292.33 48.3083 1292.53 48.425 1292.87 48.425C1293.05 48.425 1293.27 48.3833 1293.52 48.3V49.95ZM1290.07 43.325C1289.8 43.525 1289.45 43.675 1289.02 43.775C1288.58 43.8583 1288.13 43.9333 1287.64 44C1287.18 44.05 1286.7 44.1167 1286.22 44.2C1285.73 44.2667 1285.3 44.3833 1284.92 44.55C1284.53 44.7167 1284.22 44.9583 1283.97 45.275C1283.73 45.575 1283.62 45.9917 1283.62 46.525C1283.62 46.875 1283.68 47.175 1283.82 47.425C1283.97 47.6583 1284.15 47.85 1284.37 48C1284.6 48.15 1284.87 48.2583 1285.17 48.325C1285.47 48.3917 1285.78 48.425 1286.12 48.425C1286.82 48.425 1287.42 48.3333 1287.92 48.15C1288.42 47.95 1288.83 47.7083 1289.14 47.425C1289.46 47.125 1289.69 46.8083 1289.84 46.475C1289.99 46.125 1290.07 45.8 1290.07 45.5V43.325ZM1304.27 41.225H1306.47C1306.39 40.4583 1306.19 39.8 1305.87 39.25C1305.55 38.6833 1305.14 38.2167 1304.64 37.85C1304.16 37.4833 1303.59 37.2167 1302.94 37.05C1302.31 36.8667 1301.63 36.775 1300.89 36.775C1299.88 36.775 1298.99 36.9583 1298.22 37.325C1297.45 37.675 1296.81 38.1667 1296.29 38.8C1295.79 39.4167 1295.42 40.15 1295.17 41C1294.92 41.8333 1294.79 42.7333 1294.79 43.7C1294.79 44.6667 1294.92 45.5583 1295.17 46.375C1295.44 47.175 1295.82 47.8667 1296.32 48.45C1296.84 49.0333 1297.47 49.4833 1298.22 49.8C1298.99 50.1167 1299.86 50.275 1300.84 50.275C1302.49 50.275 1303.79 49.8417 1304.74 48.975C1305.71 48.1083 1306.31 46.875 1306.54 45.275H1304.37C1304.24 46.275 1303.87 47.05 1303.27 47.6C1302.69 48.15 1301.87 48.425 1300.82 48.425C1300.15 48.425 1299.58 48.2917 1299.09 48.025C1298.61 47.7583 1298.22 47.4083 1297.92 46.975C1297.62 46.525 1297.39 46.0167 1297.24 45.45C1297.11 44.8833 1297.04 44.3 1297.04 43.7C1297.04 43.05 1297.11 42.425 1297.24 41.825C1297.38 41.2083 1297.59 40.6667 1297.89 40.2C1298.21 39.7333 1298.63 39.3583 1299.14 39.075C1299.66 38.7917 1300.3 38.65 1301.07 38.65C1301.97 38.65 1302.69 38.875 1303.22 39.325C1303.75 39.775 1304.1 40.4083 1304.27 41.225ZM1311.87 37.075V33.2H1309.75V37.075H1307.55V38.95H1309.75V47.175C1309.75 47.775 1309.81 48.2583 1309.92 48.625C1310.04 48.9917 1310.21 49.275 1310.45 49.475C1310.7 49.675 1311.01 49.8167 1311.4 49.9C1311.8 49.9667 1312.27 50 1312.82 50H1314.45V48.125H1313.47C1313.14 48.125 1312.86 48.1167 1312.65 48.1C1312.45 48.0667 1312.29 48.0083 1312.17 47.925C1312.06 47.8417 1311.97 47.725 1311.92 47.575C1311.89 47.425 1311.87 47.225 1311.87 46.975V38.95H1314.45V37.075H1311.87ZM1338.37 43.55V32.15H1335.99V43.55C1335.99 45.15 1335.59 46.3667 1334.79 47.2C1334.01 48.0167 1332.86 48.425 1331.34 48.425C1329.74 48.425 1328.52 48.0167 1327.67 47.2C1326.82 46.3667 1326.39 45.15 1326.39 43.55V32.15H1324.02V43.55C1324.02 45.9333 1324.66 47.675 1325.94 48.775C1327.24 49.8583 1329.04 50.4 1331.34 50.4C1333.59 50.4 1335.32 49.8333 1336.54 48.7C1337.76 47.55 1338.37 45.8333 1338.37 43.55ZM1343.11 45.925H1340.98C1341.02 46.725 1341.18 47.4083 1341.48 47.975C1341.78 48.525 1342.18 48.975 1342.68 49.325C1343.18 49.6583 1343.76 49.9 1344.41 50.05C1345.06 50.2 1345.74 50.275 1346.46 50.275C1347.11 50.275 1347.76 50.2083 1348.41 50.075C1349.07 49.9583 1349.67 49.7417 1350.18 49.425C1350.72 49.1083 1351.14 48.6917 1351.46 48.175C1351.79 47.6583 1351.96 47.0083 1351.96 46.225C1351.96 45.6083 1351.83 45.0917 1351.58 44.675C1351.35 44.2583 1351.03 43.9167 1350.63 43.65C1350.25 43.3667 1349.8 43.1417 1349.28 42.975C1348.78 42.8083 1348.27 42.6667 1347.73 42.55C1347.23 42.4333 1346.73 42.325 1346.23 42.225C1345.73 42.1083 1345.28 41.975 1344.88 41.825C1344.48 41.6583 1344.15 41.4583 1343.88 41.225C1343.63 40.975 1343.51 40.6667 1343.51 40.3C1343.51 39.9667 1343.59 39.7 1343.76 39.5C1343.92 39.2833 1344.14 39.1167 1344.41 39C1344.67 38.8667 1344.97 38.775 1345.28 38.725C1345.62 38.675 1345.94 38.65 1346.26 38.65C1346.61 38.65 1346.95 38.6917 1347.28 38.775C1347.63 38.8417 1347.95 38.9583 1348.23 39.125C1348.52 39.2917 1348.75 39.5167 1348.93 39.8C1349.12 40.0667 1349.22 40.4083 1349.26 40.825H1351.38C1351.33 40.0417 1351.17 39.3917 1350.88 38.875C1350.6 38.3417 1350.22 37.925 1349.73 37.625C1349.27 37.3083 1348.72 37.0917 1348.11 36.975C1347.49 36.8417 1346.82 36.775 1346.08 36.775C1345.52 36.775 1344.94 36.85 1344.36 37C1343.79 37.1333 1343.27 37.35 1342.81 37.65C1342.36 37.9333 1341.98 38.3083 1341.68 38.775C1341.4 39.2417 1341.26 39.8 1341.26 40.45C1341.26 41.2833 1341.47 41.9333 1341.88 42.4C1342.3 42.8667 1342.82 43.2333 1343.43 43.5C1344.07 43.75 1344.75 43.95 1345.48 44.1C1346.22 44.2333 1346.89 44.3917 1347.51 44.575C1348.14 44.7417 1348.67 44.9667 1349.08 45.25C1349.5 45.5333 1349.71 45.95 1349.71 46.5C1349.71 46.9 1349.61 47.2333 1349.41 47.5C1349.21 47.75 1348.95 47.9417 1348.63 48.075C1348.33 48.2083 1348 48.3 1347.63 48.35C1347.27 48.4 1346.92 48.425 1346.58 48.425C1346.15 48.425 1345.72 48.3833 1345.31 48.3C1344.91 48.2167 1344.54 48.0833 1344.21 47.9C1343.89 47.7 1343.63 47.4417 1343.43 47.125C1343.23 46.7917 1343.12 46.3917 1343.11 45.925Z" fill="white"/>
</g>
<defs>
<filter id="filter0_d" x="468.101" y="227.08" width="503.892" height="249.56" filterUnits="userSpaceOnUse" color-interpolation-filters="sRGB">
<feFlood flood-opacity="0" result="BackgroundImageFix"/>
<feColorMatrix in="SourceAlpha" type="matrix" values="0 0 0 0 0 0 0 0 0 0 0 0 0 0 0 0 0 0 127 0"/>
<feOffset dy="4"/>
<feGaussianBlur stdDeviation="11.5"/>
<feColorMatrix type="matrix" values="0 0 0 0 0.054902 0 0 0 0 0.196078 0 0 0 0 0.34902 0 0 0 0.5 0"/>
<feBlend mode="normal" in2="BackgroundImageFix" result="effect1_dropShadow"/>
<feBlend mode="normal" in="SourceGraphic" in2="effect1_dropShadow" result="shape"/>
</filter>
<linearGradient id="paint0_linear" x1="1385" y1="40" x2="1195" y2="40" gradientUnits="userSpaceOnUse">
<stop stop-color="#6299F0"/>
<stop offset="1" stop-color="#4E79C8"/>
</linearGradient>
<clipPath id="clip0">
<rect width="1440" height="1024" fill="white"/>
</clipPath>
</defs>
</svg>
