<svg width="1440" height="1024" viewBox="0 0 1440 1024" fill="none" xmlns="http://www.w3.org/2000/svg">
<g clip-path="url(#clip0)">
<rect width="1440" height="1024" fill="white"/>
<path d="M661.989 133.529C781.065 -156.617 1034.46 195.469 1064.41 376.571C1089.99 531.307 1005.67 670.926 856.809 720.303C682.582 778.093 456.581 644.63 400.655 481.919C344.729 319.207 542.912 423.675 661.989 133.529Z" fill="#207FEB" fill-opacity="0.16"/>
<path d="M1321.45 871.481V735.305H1288.31V619.344H1205.46V871.481H1168.42V735.305H1103.11V677.324H1061.68V693.885H1044.14V701.139H1023.43V713.56H1011.73V871.481H998.568V677.324H937.404V871.481H928.386V767.418H849.672V871.481H845.532V598.625H766.818V871.481H745.128V668.522L666.414 620.892V753.954H644.724V724.955H593.316V871.481H489.132V644.707H407.124V871.481H318.546V563.416H236.538V729.095H210.294V689.745H128.286V767.418H101.97V871.481H78.696V677.324H0V1032.98H1440V871.481H1321.45Z" fill="#207FEB" fill-opacity="0.5"/>
<path d="M1398.4 739.301V928.579H1390.64V800.612H1348.09V928.651H1279.51V726.017H1228.45V928.579H1217.65V684.489C1217.66 677.97 1215.19 671.691 1210.73 666.932C1206.28 662.172 1200.18 659.291 1193.67 658.874L1192.12 594.071L1190.57 658.874C1184.07 659.286 1177.96 662.167 1173.51 666.927C1169.05 671.687 1166.58 677.968 1166.6 684.489V928.579H1100.14V746.213H1049.08V928.579H1007.37V785.239H949.086V928.579H916.2V679.215H894.096L892.296 601.217L890.496 679.215H861.156V729.365H824.67L806.67 698.007L788.67 729.401H785.07V699.807H733.662V928.597H723.708V825.813H700.128V794.744H660.798V773.143H618.858V809.018H599.994V630.81H586.422C584.317 625.399 580.73 620.69 576.073 617.223C571.415 613.756 565.876 611.672 560.088 611.208L558 527L555.984 611.046C550.069 611.381 544.375 613.411 539.581 616.893C534.787 620.375 531.096 625.163 528.948 630.684H518.148V928.579H508.194V745.151H459.522V928.579H443.808V745.151H409.374L375.606 686.271L341.82 745.151H308.556V928.579H300.69V834.813H247.23V928.669H235.692V854.344H208.98V928.579H184.86V802.574H144.504V928.579H141.876V845.776H115.2V834.813H88.416V928.669H80.55V787.363H42.75V745.151H15.588L13.41 654.067L11.232 745.151H0V1032.98H1440V739.301H1398.4Z" fill="#3B81D0"/>
<path d="M1359.79 777.031V846.658H1334.07V971.475H1284.41V894.9H1236.37V926.851H1221.03V1003.59H1161.18V883.451H1078.42V855.1H986.832V891.282H912.654V1003.59H833.184V878.627H778.374V1003.59H749.196V827.973H725.886V777.931H671.094V1003.59H649.008V838.827H563.184V1003.59H544.788V861.742H458.964V1003.59H409.302V853.894H314.892V881.039H226.602V1003.59H155.484V891.876H61.074V1003.59H50.022V849.682H0V1032.98H1440V777.031H1359.79Z" fill="#1657A2"/>
<path d="M1385.77 920.551V994.516H1352.83V956.066H1277.77V983.284H1202.69V1008.12H1143.04V925.879H1090.22V976.767H1063.82V1008.12H1048.68V951.926H954.324V1009.1H905.958V951.926H867.276V1008.12H849.258V987.55H810.594V1008.12H788.022V951.926H716.49V1008.12H705.078V951.926H666.414V1008.12H657.756V877.925H619.092V1009.1H573.03V920.551H517.824V942.134H462.636V973.563H427.914V925.879H368.73V914.143H275.112V925.879H207.162V956.066H180.756V938.282H137.898V920.551H0V1032.98H1440V920.551H1385.77Z" fill="#0E3259"/>
<g filter="url(#filter0_d)">
<path d="M626.621 282.76V250H517.141L497.821 358.36H533.661C537.581 352.947 541.781 349.027 546.261 346.6C550.741 343.987 556.528 342.68 563.621 342.68C569.034 342.68 573.794 343.613 577.901 345.48C582.008 347.347 585.554 349.96 588.541 353.32C591.528 356.68 593.768 360.6 595.261 365.08C596.754 369.56 597.501 374.32 597.501 379.36C597.501 384.213 596.661 388.973 594.981 393.64C593.488 398.12 591.248 402.133 588.261 405.68C585.461 409.04 581.914 411.84 577.621 414.08C573.514 416.133 568.848 417.16 563.621 417.16C554.661 417.16 547.288 414.547 541.501 409.32C535.714 403.907 532.354 396.72 531.421 387.76H491.661C491.848 398.027 493.901 407.08 497.821 414.92C501.928 422.573 507.341 429.013 514.061 434.24C520.781 439.467 528.434 443.387 537.021 446C545.794 448.427 554.941 449.64 564.461 449.64C574.354 449.827 583.688 448.24 592.461 444.88C601.234 441.333 608.888 436.387 615.421 430.04C622.141 423.693 627.461 416.227 631.381 407.64C635.301 398.867 637.261 389.44 637.261 379.36C637.261 370.213 635.861 361.627 633.061 353.6C630.448 345.387 626.528 338.293 621.301 332.32C616.261 326.347 610.008 321.587 602.541 318.04C595.074 314.493 586.488 312.72 576.781 312.72C568.941 312.72 561.941 313.933 555.781 316.36C549.621 318.6 543.834 322.427 538.421 327.84L537.861 327.28L545.701 282.76H626.621ZM687.847 347.16C687.847 343.8 687.847 339.787 687.847 335.12C688.034 330.267 688.407 325.32 688.967 320.28C689.527 315.24 690.46 310.293 691.767 305.44C693.074 300.4 694.847 295.92 697.087 292C699.514 288.08 702.5 284.907 706.047 282.48C709.78 280.053 714.354 278.84 719.767 278.84C725.18 278.84 729.754 280.053 733.487 282.48C737.22 284.907 740.3 288.08 742.727 292C745.154 295.92 746.927 300.4 748.047 305.44C749.354 310.293 750.287 315.24 750.847 320.28C751.594 325.32 751.967 330.267 751.967 335.12C752.154 339.787 752.247 343.8 752.247 347.16C752.247 352.76 752.06 359.573 751.687 367.6C751.314 375.44 750.1 383.093 748.047 390.56C746.18 397.84 743.007 404.093 738.527 409.32C734.234 414.547 727.98 417.16 719.767 417.16C711.74 417.16 705.58 414.547 701.287 409.32C696.994 404.093 693.82 397.84 691.767 390.56C689.9 383.093 688.78 375.44 688.407 367.6C688.034 359.573 687.847 352.76 687.847 347.16ZM648.087 347.16C648.087 366.76 649.954 383.187 653.687 396.44C657.607 409.507 662.834 419.96 669.367 427.8C675.9 435.64 683.46 441.24 692.047 444.6C700.82 447.96 710.06 449.64 719.767 449.64C729.66 449.64 738.9 447.96 747.487 444.6C756.26 441.24 763.914 435.64 770.447 427.8C777.167 419.96 782.394 409.507 786.127 396.44C790.047 383.187 792.007 366.76 792.007 347.16C792.007 328.12 790.047 312.16 786.127 299.28C782.394 286.213 777.167 275.76 770.447 267.92C763.914 260.08 756.26 254.48 747.487 251.12C738.9 247.76 729.66 246.08 719.767 246.08C710.06 246.08 700.82 247.76 692.047 251.12C683.46 254.48 675.9 260.08 669.367 267.92C662.834 275.76 657.607 286.213 653.687 299.28C649.954 312.16 648.087 328.12 648.087 347.16ZM843.433 347.16C843.433 343.8 843.433 339.787 843.433 335.12C843.62 330.267 843.993 325.32 844.553 320.28C845.113 315.24 846.046 310.293 847.353 305.44C848.66 300.4 850.433 295.92 852.673 292C855.1 288.08 858.086 284.907 861.633 282.48C865.366 280.053 869.94 278.84 875.353 278.84C880.766 278.84 885.34 280.053 889.073 282.48C892.806 284.907 895.886 288.08 898.313 292C900.74 295.92 902.513 300.4 903.633 305.44C904.94 310.293 905.873 315.24 906.433 320.28C907.18 325.32 907.553 330.267 907.553 335.12C907.74 339.787 907.833 343.8 907.833 347.16C907.833 352.76 907.646 359.573 907.273 367.6C906.9 375.44 905.686 383.093 903.633 390.56C901.766 397.84 898.593 404.093 894.113 409.32C889.82 414.547 883.566 417.16 875.353 417.16C867.326 417.16 861.166 414.547 856.873 409.32C852.58 404.093 849.406 397.84 847.353 390.56C845.486 383.093 844.366 375.44 843.993 367.6C843.62 359.573 843.433 352.76 843.433 347.16ZM803.673 347.16C803.673 366.76 805.54 383.187 809.273 396.44C813.193 409.507 818.42 419.96 824.953 427.8C831.486 435.64 839.046 441.24 847.633 444.6C856.406 447.96 865.646 449.64 875.353 449.64C885.246 449.64 894.486 447.96 903.073 444.6C911.846 441.24 919.5 435.64 926.033 427.8C932.753 419.96 937.98 409.507 941.713 396.44C945.633 383.187 947.593 366.76 947.593 347.16C947.593 328.12 945.633 312.16 941.713 299.28C937.98 286.213 932.753 275.76 926.033 267.92C919.5 260.08 911.846 254.48 903.073 251.12C894.486 247.76 885.246 246.08 875.353 246.08C865.646 246.08 856.406 247.76 847.633 251.12C839.046 254.48 831.486 260.08 824.953 267.92C818.42 275.76 813.193 286.213 809.273 299.28C805.54 312.16 803.673 328.12 803.673 347.16Z" fill="#0E3259"/>
</g>
<path d="M278.132 497.84C278.132 496.587 278.265 495.373 278.532 494.2C278.825 493.027 279.279 491.987 279.892 491.08C280.505 490.147 281.305 489.413 282.292 488.88C283.279 488.32 284.479 488.04 285.892 488.04C287.305 488.04 288.505 488.32 289.492 488.88C290.479 489.413 291.279 490.147 291.892 491.08C292.505 491.987 292.945 493.027 293.212 494.2C293.505 495.373 293.652 496.587 293.652 497.84C293.652 499.04 293.505 500.213 293.212 501.36C292.945 502.48 292.505 503.493 291.892 504.4C291.279 505.307 290.479 506.04 289.492 506.6C288.505 507.133 287.305 507.4 285.892 507.4C284.479 507.4 283.279 507.133 282.292 506.6C281.305 506.04 280.505 505.307 279.892 504.4C279.279 503.493 278.825 502.48 278.532 501.36C278.265 500.213 278.132 499.04 278.132 497.84ZM271.852 497.84C271.852 499.92 272.172 501.867 272.812 503.68C273.452 505.467 274.372 507.027 275.572 508.36C276.772 509.693 278.239 510.747 279.972 511.52C281.732 512.267 283.705 512.64 285.892 512.64C288.105 512.64 290.079 512.267 291.812 511.52C293.545 510.747 295.012 509.693 296.212 508.36C297.412 507.027 298.332 505.467 298.972 503.68C299.612 501.867 299.932 499.92 299.932 497.84C299.932 495.707 299.612 493.733 298.972 491.92C298.332 490.08 297.412 488.48 296.212 487.12C295.012 485.76 293.545 484.693 291.812 483.92C290.079 483.147 288.105 482.76 285.892 482.76C283.705 482.76 281.732 483.147 279.972 483.92C278.239 484.693 276.772 485.76 275.572 487.12C274.372 488.48 273.452 490.08 272.812 491.92C272.172 493.733 271.852 495.707 271.852 497.84ZM309.265 497.84C309.265 496.587 309.398 495.373 309.665 494.2C309.958 493.027 310.412 491.987 311.025 491.08C311.638 490.147 312.438 489.413 313.425 488.88C314.412 488.32 315.612 488.04 317.025 488.04C318.438 488.04 319.638 488.32 320.625 488.88C321.612 489.413 322.412 490.147 323.025 491.08C323.638 491.987 324.078 493.027 324.345 494.2C324.638 495.373 324.785 496.587 324.785 497.84C324.785 499.04 324.638 500.213 324.345 501.36C324.078 502.48 323.638 503.493 323.025 504.4C322.412 505.307 321.612 506.04 320.625 506.6C319.638 507.133 318.438 507.4 317.025 507.4C315.612 507.4 314.412 507.133 313.425 506.6C312.438 506.04 311.638 505.307 311.025 504.4C310.412 503.493 309.958 502.48 309.665 501.36C309.398 500.213 309.265 499.04 309.265 497.84ZM302.985 497.84C302.985 499.92 303.305 501.867 303.945 503.68C304.585 505.467 305.505 507.027 306.705 508.36C307.905 509.693 309.372 510.747 311.105 511.52C312.865 512.267 314.838 512.64 317.025 512.64C319.238 512.64 321.212 512.267 322.945 511.52C324.678 510.747 326.145 509.693 327.345 508.36C328.545 507.027 329.465 505.467 330.105 503.68C330.745 501.867 331.065 499.92 331.065 497.84C331.065 495.707 330.745 493.733 330.105 491.92C329.465 490.08 328.545 488.48 327.345 487.12C326.145 485.76 324.678 484.693 322.945 483.92C321.212 483.147 319.238 482.76 317.025 482.76C314.838 482.76 312.865 483.147 311.105 483.92C309.372 484.693 307.905 485.76 306.705 487.12C305.505 488.48 304.585 490.08 303.945 491.92C303.305 493.733 302.985 495.707 302.985 497.84ZM341.638 496.88V488.32H346.518C347.238 488.32 347.931 488.373 348.598 488.48C349.264 488.587 349.851 488.8 350.358 489.12C350.864 489.413 351.264 489.84 351.558 490.4C351.878 490.96 352.038 491.693 352.038 492.6C352.038 493.507 351.878 494.24 351.558 494.8C351.264 495.36 350.864 495.8 350.358 496.12C349.851 496.413 349.264 496.613 348.598 496.72C347.931 496.827 347.238 496.88 346.518 496.88H341.638ZM335.358 483.44V512H341.638V501.76H348.238C350.024 501.76 351.544 501.507 352.798 501C354.051 500.467 355.064 499.773 355.838 498.92C356.638 498.067 357.211 497.093 357.558 496C357.931 494.88 358.118 493.747 358.118 492.6C358.118 491.427 357.931 490.293 357.558 489.2C357.211 488.107 356.638 487.133 355.838 486.28C355.064 485.427 354.051 484.747 352.798 484.24C351.544 483.707 350.024 483.44 348.238 483.44H335.358ZM365.837 505.28H360.437C360.491 506.667 360.797 507.827 361.357 508.76C361.944 509.667 362.677 510.4 363.557 510.96C364.464 511.52 365.491 511.92 366.637 512.16C367.784 512.4 368.957 512.52 370.157 512.52C371.331 512.52 372.477 512.4 373.597 512.16C374.744 511.947 375.757 511.56 376.637 511C377.517 510.44 378.224 509.707 378.757 508.8C379.317 507.867 379.597 506.72 379.597 505.36C379.597 504.4 379.411 503.6 379.037 502.96C378.664 502.293 378.171 501.747 377.557 501.32C376.944 500.867 376.237 500.507 375.437 500.24C374.664 499.973 373.864 499.747 373.037 499.56C372.237 499.373 371.451 499.2 370.677 499.04C369.904 498.88 369.211 498.707 368.597 498.52C368.011 498.307 367.531 498.04 367.157 497.72C366.784 497.4 366.597 496.987 366.597 496.48C366.597 496.053 366.704 495.72 366.917 495.48C367.131 495.213 367.384 495.013 367.677 494.88C367.997 494.747 368.344 494.667 368.717 494.64C369.091 494.587 369.437 494.56 369.757 494.56C370.771 494.56 371.651 494.76 372.397 495.16C373.144 495.533 373.557 496.267 373.637 497.36H379.037C378.931 496.08 378.597 495.027 378.037 494.2C377.504 493.347 376.824 492.667 375.997 492.16C375.171 491.653 374.224 491.293 373.157 491.08C372.117 490.867 371.037 490.76 369.917 490.76C368.797 490.76 367.704 490.867 366.637 491.08C365.571 491.267 364.611 491.613 363.757 492.12C362.904 492.6 362.211 493.267 361.677 494.12C361.171 494.973 360.917 496.067 360.917 497.4C360.917 498.307 361.104 499.08 361.477 499.72C361.851 500.333 362.344 500.853 362.957 501.28C363.571 501.68 364.264 502.013 365.037 502.28C365.837 502.52 366.651 502.733 367.477 502.92C369.504 503.347 371.077 503.773 372.197 504.2C373.344 504.627 373.917 505.267 373.917 506.12C373.917 506.627 373.797 507.053 373.557 507.4C373.317 507.72 373.011 507.987 372.637 508.2C372.291 508.387 371.891 508.533 371.437 508.64C371.011 508.72 370.597 508.76 370.197 508.76C369.637 508.76 369.091 508.693 368.557 508.56C368.051 508.427 367.597 508.227 367.197 507.96C366.797 507.667 366.464 507.307 366.197 506.88C365.957 506.427 365.837 505.893 365.837 505.28ZM388.002 507.76H384.642V512H386.322C386.348 512.293 386.322 512.627 386.242 513C386.188 513.4 386.082 513.773 385.922 514.12C385.762 514.493 385.562 514.827 385.322 515.12C385.082 515.413 384.802 515.613 384.482 515.72V517.44C385.068 517.28 385.575 517.013 386.002 516.64C386.455 516.267 386.828 515.827 387.122 515.32C387.415 514.84 387.628 514.307 387.762 513.72C387.922 513.16 388.002 512.587 388.002 512V507.76ZM407.107 497.72C407.107 496.147 407.307 494.613 407.707 493.12C408.134 491.627 408.774 490.293 409.627 489.12C410.507 487.92 411.627 486.96 412.987 486.24C414.347 485.52 415.974 485.16 417.867 485.16C419.761 485.16 421.374 485.52 422.707 486.24C424.067 486.96 425.174 487.92 426.027 489.12C426.907 490.293 427.547 491.627 427.947 493.12C428.374 494.613 428.587 496.147 428.587 497.72C428.587 499.267 428.374 500.8 427.947 502.32C427.547 503.813 426.907 505.16 426.027 506.36C425.174 507.533 424.067 508.48 422.707 509.2C421.374 509.92 419.761 510.28 417.867 510.28C415.974 510.28 414.347 509.92 412.987 509.2C411.627 508.48 410.507 507.533 409.627 506.36C408.774 505.16 408.134 503.813 407.707 502.32C407.307 500.8 407.107 499.267 407.107 497.72ZM404.387 497.72C404.387 499.693 404.667 501.573 405.227 503.36C405.787 505.147 406.627 506.72 407.747 508.08C408.867 509.44 410.267 510.533 411.947 511.36C413.654 512.16 415.627 512.56 417.867 512.56C420.107 512.56 422.067 512.16 423.747 511.36C425.427 510.533 426.827 509.44 427.947 508.08C429.067 506.72 429.907 505.147 430.467 503.36C431.027 501.573 431.307 499.693 431.307 497.72C431.307 495.747 431.027 493.867 430.467 492.08C429.907 490.293 429.067 488.72 427.947 487.36C426.827 485.973 425.427 484.88 423.747 484.08C422.067 483.253 420.107 482.84 417.867 482.84C415.627 482.84 413.654 483.253 411.947 484.08C410.267 484.88 408.867 485.973 407.747 487.36C406.627 488.72 405.787 490.293 405.227 492.08C404.667 493.867 404.387 495.747 404.387 497.72ZM435.276 483.44V501.72C435.276 503.187 435.476 504.587 435.876 505.92C436.302 507.227 436.956 508.373 437.836 509.36C438.742 510.347 439.889 511.133 441.276 511.72C442.689 512.28 444.382 512.56 446.356 512.56C448.356 512.56 450.049 512.28 451.436 511.72C452.849 511.133 453.996 510.347 454.876 509.36C455.782 508.373 456.436 507.227 456.836 505.92C457.262 504.587 457.476 503.187 457.476 501.72V483.44H454.756V501.12C454.756 502.773 454.569 504.187 454.196 505.36C453.822 506.507 453.276 507.453 452.556 508.2C451.836 508.92 450.956 509.453 449.916 509.8C448.876 510.12 447.689 510.28 446.356 510.28C445.049 510.28 443.876 510.12 442.836 509.8C441.796 509.453 440.916 508.92 440.196 508.2C439.476 507.453 438.929 506.507 438.556 505.36C438.182 504.187 437.996 502.773 437.996 501.12V483.44H435.276ZM465.659 497V485.76H475.819C477.899 485.76 479.445 486.267 480.459 487.28C481.472 488.293 481.979 489.68 481.979 491.44C481.979 492.32 481.805 493.107 481.459 493.8C481.139 494.467 480.699 495.04 480.139 495.52C479.579 496 478.925 496.373 478.179 496.64C477.432 496.88 476.645 497 475.819 497H465.659ZM462.939 483.44V512H465.659V499.32H475.979C477.259 499.267 478.259 499.48 478.979 499.96C479.725 500.44 480.285 501.08 480.659 501.88C481.059 502.653 481.312 503.547 481.419 504.56C481.552 505.547 481.645 506.547 481.699 507.56C481.725 507.853 481.752 508.2 481.779 508.6C481.805 509 481.832 509.413 481.859 509.84C481.912 510.24 481.979 510.64 482.059 511.04C482.165 511.413 482.299 511.733 482.459 512H485.459C485.165 511.653 484.925 511.173 484.739 510.56C484.579 509.92 484.459 509.253 484.379 508.56C484.299 507.84 484.245 507.133 484.219 506.44C484.192 505.747 484.165 505.16 484.139 504.68C484.085 503.827 483.965 503.04 483.779 502.32C483.619 501.573 483.339 500.92 482.939 500.36C482.565 499.8 482.072 499.347 481.459 499C480.845 498.627 480.072 498.373 479.139 498.24V498.16C480.979 497.787 482.365 496.933 483.299 495.6C484.232 494.267 484.699 492.693 484.699 490.88C484.699 489.6 484.459 488.493 483.979 487.56C483.525 486.6 482.899 485.827 482.099 485.24C481.325 484.627 480.405 484.173 479.339 483.88C478.299 483.587 477.192 483.44 476.019 483.44H462.939ZM502.031 502.6H499.311C499.231 504.36 499.458 505.867 499.991 507.12C500.551 508.373 501.338 509.4 502.351 510.2C503.364 511 504.591 511.6 506.031 512C507.471 512.373 509.031 512.56 510.711 512.56C512.391 512.56 513.831 512.4 515.031 512.08C516.231 511.787 517.231 511.4 518.031 510.92C518.858 510.413 519.498 509.853 519.951 509.24C520.431 508.627 520.791 508.027 521.031 507.44C521.298 506.827 521.458 506.253 521.511 505.72C521.591 505.187 521.631 504.76 521.631 504.44C521.631 503.267 521.431 502.267 521.031 501.44C520.658 500.613 520.124 499.92 519.431 499.36C518.764 498.773 517.978 498.293 517.071 497.92C516.191 497.52 515.244 497.187 514.231 496.92L507.271 495.2C506.684 495.067 506.124 494.893 505.591 494.68C505.084 494.467 504.631 494.187 504.231 493.84C503.831 493.493 503.511 493.08 503.271 492.6C503.058 492.093 502.951 491.507 502.951 490.84C502.951 489.773 503.151 488.88 503.551 488.16C503.951 487.44 504.471 486.867 505.111 486.44C505.778 485.987 506.538 485.667 507.391 485.48C508.271 485.267 509.178 485.16 510.111 485.16C511.124 485.16 512.084 485.307 512.991 485.6C513.924 485.867 514.738 486.28 515.431 486.84C516.151 487.373 516.724 488.053 517.151 488.88C517.604 489.68 517.858 490.627 517.911 491.72H520.631C520.631 490.253 520.338 488.973 519.751 487.88C519.191 486.76 518.431 485.827 517.471 485.08C516.511 484.333 515.391 483.773 514.111 483.4C512.831 483.027 511.484 482.84 510.071 482.84C508.071 482.84 506.431 483.133 505.151 483.72C503.871 484.28 502.858 484.973 502.111 485.8C501.391 486.627 500.898 487.507 500.631 488.44C500.364 489.373 500.231 490.187 500.231 490.88C500.231 492 500.404 492.947 500.751 493.72C501.124 494.493 501.604 495.147 502.191 495.68C502.778 496.213 503.458 496.64 504.231 496.96C505.031 497.28 505.844 497.547 506.671 497.76L513.031 499.32C513.698 499.48 514.378 499.693 515.071 499.96C515.764 500.2 516.391 500.52 516.951 500.92C517.538 501.32 518.004 501.813 518.351 502.4C518.724 502.987 518.911 503.68 518.911 504.48C518.911 505.52 518.658 506.413 518.151 507.16C517.644 507.88 517.004 508.48 516.231 508.96C515.484 509.413 514.671 509.747 513.791 509.96C512.911 510.173 512.098 510.28 511.351 510.28C510.044 510.28 508.818 510.16 507.671 509.92C506.524 509.653 505.524 509.227 504.671 508.64C503.844 508.053 503.191 507.267 502.711 506.28C502.231 505.293 502.004 504.067 502.031 502.6ZM525.946 483.44V512H545.866V509.68H528.666V498.4H544.586V496.08H528.666V485.76H545.666V483.44H525.946ZM552.377 497V485.76H562.537C564.617 485.76 566.164 486.267 567.177 487.28C568.191 488.293 568.697 489.68 568.697 491.44C568.697 492.32 568.524 493.107 568.177 493.8C567.857 494.467 567.417 495.04 566.857 495.52C566.297 496 565.644 496.373 564.897 496.64C564.151 496.88 563.364 497 562.537 497H552.377ZM549.657 483.44V512H552.377V499.32H562.697C563.977 499.267 564.977 499.48 565.697 499.96C566.444 500.44 567.004 501.08 567.377 501.88C567.777 502.653 568.031 503.547 568.137 504.56C568.271 505.547 568.364 506.547 568.417 507.56C568.444 507.853 568.471 508.2 568.497 508.6C568.524 509 568.551 509.413 568.577 509.84C568.631 510.24 568.697 510.64 568.777 511.04C568.884 511.413 569.017 511.733 569.177 512H572.177C571.884 511.653 571.644 511.173 571.457 510.56C571.297 509.92 571.177 509.253 571.097 508.56C571.017 507.84 570.964 507.133 570.937 506.44C570.911 505.747 570.884 505.16 570.857 504.68C570.804 503.827 570.684 503.04 570.497 502.32C570.337 501.573 570.057 500.92 569.657 500.36C569.284 499.8 568.791 499.347 568.177 499C567.564 498.627 566.791 498.373 565.857 498.24V498.16C567.697 497.787 569.084 496.933 570.017 495.6C570.951 494.267 571.417 492.693 571.417 490.88C571.417 489.6 571.177 488.493 570.697 487.56C570.244 486.6 569.617 485.827 568.817 485.24C568.044 484.627 567.124 484.173 566.057 483.88C565.017 483.587 563.911 483.44 562.737 483.44H549.657ZM573.451 483.44L584.011 512H587.171L597.771 483.44H594.891L585.691 509H585.611L576.331 483.44H573.451ZM600.282 483.44V512H620.202V509.68H603.002V498.4H618.922V496.08H603.002V485.76H620.002V483.44H600.282ZM626.713 497V485.76H636.873C638.953 485.76 640.5 486.267 641.513 487.28C642.527 488.293 643.033 489.68 643.033 491.44C643.033 492.32 642.86 493.107 642.513 493.8C642.193 494.467 641.753 495.04 641.193 495.52C640.633 496 639.98 496.373 639.233 496.64C638.487 496.88 637.7 497 636.873 497H626.713ZM623.993 483.44V512H626.713V499.32H637.033C638.313 499.267 639.313 499.48 640.033 499.96C640.78 500.44 641.34 501.08 641.713 501.88C642.113 502.653 642.367 503.547 642.473 504.56C642.607 505.547 642.7 506.547 642.753 507.56C642.78 507.853 642.807 508.2 642.833 508.6C642.86 509 642.887 509.413 642.913 509.84C642.967 510.24 643.033 510.64 643.113 511.04C643.22 511.413 643.353 511.733 643.513 512H646.513C646.22 511.653 645.98 511.173 645.793 510.56C645.633 509.92 645.513 509.253 645.433 508.56C645.353 507.84 645.3 507.133 645.273 506.44C645.247 505.747 645.22 505.16 645.193 504.68C645.14 503.827 645.02 503.04 644.833 502.32C644.673 501.573 644.393 500.92 643.993 500.36C643.62 499.8 643.127 499.347 642.513 499C641.9 498.627 641.127 498.373 640.193 498.24V498.16C642.033 497.787 643.42 496.933 644.353 495.6C645.287 494.267 645.753 492.693 645.753 490.88C645.753 489.6 645.513 488.493 645.033 487.56C644.58 486.6 643.953 485.827 643.153 485.24C642.38 484.627 641.46 484.173 640.393 483.88C639.353 483.587 638.247 483.44 637.073 483.44H623.993ZM661.806 483.44V512H671.686C676.032 511.893 679.299 510.68 681.486 508.36C683.699 506.013 684.806 502.467 684.806 497.72C684.806 492.973 683.699 489.44 681.486 487.12C679.299 484.773 676.032 483.547 671.686 483.44H661.806ZM664.526 509.68V485.76H670.326C672.379 485.76 674.139 485.987 675.606 486.44C677.099 486.867 678.326 487.56 679.286 488.52C680.246 489.48 680.952 490.72 681.406 492.24C681.859 493.76 682.086 495.587 682.086 497.72C682.086 499.853 681.859 501.68 681.406 503.2C680.952 504.72 680.246 505.96 679.286 506.92C678.326 507.88 677.099 508.587 675.606 509.04C674.139 509.467 672.379 509.68 670.326 509.68H664.526ZM689.189 483.44V512H709.109V509.68H691.909V498.4H707.829V496.08H691.909V485.76H708.909V483.44H689.189ZM733.78 492.08H736.5C736.313 490.587 735.86 489.267 735.14 488.12C734.446 486.973 733.566 486.013 732.5 485.24C731.46 484.44 730.286 483.84 728.98 483.44C727.7 483.04 726.38 482.84 725.02 482.84C722.78 482.84 720.806 483.253 719.1 484.08C717.42 484.88 716.02 485.973 714.9 487.36C713.78 488.72 712.94 490.293 712.38 492.08C711.82 493.867 711.54 495.747 711.54 497.72C711.54 499.693 711.82 501.573 712.38 503.36C712.94 505.147 713.78 506.72 714.9 508.08C716.02 509.44 717.42 510.533 719.1 511.36C720.806 512.16 722.78 512.56 725.02 512.56C726.7 512.56 728.22 512.293 729.58 511.76C730.966 511.227 732.166 510.467 733.18 509.48C734.193 508.493 735.02 507.293 735.66 505.88C736.3 504.467 736.713 502.88 736.9 501.12H734.18C734.046 502.4 733.74 503.6 733.26 504.72C732.78 505.813 732.153 506.773 731.38 507.6C730.606 508.427 729.686 509.08 728.62 509.56C727.553 510.04 726.353 510.28 725.02 510.28C723.126 510.28 721.5 509.92 720.14 509.2C718.78 508.48 717.66 507.533 716.78 506.36C715.926 505.16 715.286 503.813 714.86 502.32C714.46 500.8 714.26 499.267 714.26 497.72C714.26 496.147 714.46 494.613 714.86 493.12C715.286 491.627 715.926 490.293 716.78 489.12C717.66 487.92 718.78 486.96 720.14 486.24C721.5 485.52 723.126 485.16 725.02 485.16C726.06 485.16 727.046 485.32 727.98 485.64C728.94 485.933 729.806 486.373 730.58 486.96C731.38 487.547 732.046 488.28 732.58 489.16C733.14 490.013 733.54 490.987 733.78 492.08ZM741.264 483.44V512H743.984V483.44H741.264ZM749.931 483.44V512H759.811C764.157 511.893 767.424 510.68 769.611 508.36C771.824 506.013 772.931 502.467 772.931 497.72C772.931 492.973 771.824 489.44 769.611 487.12C767.424 484.773 764.157 483.547 759.811 483.44H749.931ZM752.651 509.68V485.76H758.451C760.504 485.76 762.264 485.987 763.731 486.44C765.224 486.867 766.451 487.56 767.411 488.52C768.371 489.48 769.077 490.72 769.531 492.24C769.984 493.76 770.211 495.587 770.211 497.72C770.211 499.853 769.984 501.68 769.531 503.2C769.077 504.72 768.371 505.96 767.411 506.92C766.451 507.88 765.224 508.587 763.731 509.04C762.264 509.467 760.504 509.68 758.451 509.68H752.651ZM777.314 483.44V512H797.234V509.68H780.034V498.4H795.954V496.08H780.034V485.76H797.034V483.44H777.314ZM801.025 483.44V512H810.905C815.251 511.893 818.518 510.68 820.705 508.36C822.918 506.013 824.025 502.467 824.025 497.72C824.025 492.973 822.918 489.44 820.705 487.12C818.518 484.773 815.251 483.547 810.905 483.44H801.025ZM803.745 509.68V485.76H809.545C811.598 485.76 813.358 485.987 814.825 486.44C816.318 486.867 817.545 487.56 818.505 488.52C819.465 489.48 820.171 490.72 820.625 492.24C821.078 493.76 821.305 495.587 821.305 497.72C821.305 499.853 821.078 501.68 820.625 503.2C820.171 504.72 819.465 505.96 818.505 506.92C817.545 507.88 816.318 508.587 814.825 509.04C813.358 509.467 811.598 509.68 809.545 509.68H803.745ZM836.5 483.44V485.76H846.42V512H849.14V485.76H859.1V483.44H836.5ZM862.967 497.72C862.967 496.147 863.167 494.613 863.567 493.12C863.993 491.627 864.633 490.293 865.487 489.12C866.367 487.92 867.487 486.96 868.847 486.24C870.207 485.52 871.833 485.16 873.727 485.16C875.62 485.16 877.233 485.52 878.567 486.24C879.927 486.96 881.033 487.92 881.887 489.12C882.767 490.293 883.407 491.627 883.807 493.12C884.233 494.613 884.447 496.147 884.447 497.72C884.447 499.267 884.233 500.8 883.807 502.32C883.407 503.813 882.767 505.16 881.887 506.36C881.033 507.533 879.927 508.48 878.567 509.2C877.233 509.92 875.62 510.28 873.727 510.28C871.833 510.28 870.207 509.92 868.847 509.2C867.487 508.48 866.367 507.533 865.487 506.36C864.633 505.16 863.993 503.813 863.567 502.32C863.167 500.8 862.967 499.267 862.967 497.72ZM860.247 497.72C860.247 499.693 860.527 501.573 861.087 503.36C861.647 505.147 862.487 506.72 863.607 508.08C864.727 509.44 866.127 510.533 867.807 511.36C869.513 512.16 871.487 512.56 873.727 512.56C875.967 512.56 877.927 512.16 879.607 511.36C881.287 510.533 882.687 509.44 883.807 508.08C884.927 506.72 885.767 505.147 886.327 503.36C886.887 501.573 887.167 499.693 887.167 497.72C887.167 495.747 886.887 493.867 886.327 492.08C885.767 490.293 884.927 488.72 883.807 487.36C882.687 485.973 881.287 484.88 879.607 484.08C877.927 483.253 875.967 482.84 873.727 482.84C871.487 482.84 869.513 483.253 867.807 484.08C866.127 484.88 864.727 485.973 863.607 487.36C862.487 488.72 861.647 490.293 861.087 492.08C860.527 493.867 860.247 495.747 860.247 497.72ZM899.508 483.44V485.76H909.428V512H912.148V485.76H922.108V483.44H899.508ZM926.08 500.8L931.8 486.16L937.32 500.8H926.08ZM930.4 483.44L918.92 512H921.8L925.24 503.12H938.24L941.72 512H944.64L933.44 483.44H930.4ZM947.235 483.44V512H949.955V502.2L955.435 497.12L967.315 512H970.835L957.475 495.24L970.235 483.44H966.555L949.955 498.8V483.44H947.235ZM973.173 483.44V512H993.093V509.68H975.893V498.4H991.813V496.08H975.893V485.76H992.893V483.44H973.173ZM1012.06 500.8L1017.78 486.16L1023.3 500.8H1012.06ZM1016.38 483.44L1004.9 512H1007.78L1011.22 503.12H1024.22L1027.7 512H1030.62L1019.42 483.44H1016.38ZM1047.06 495.96V485.76H1056.42C1060.72 485.76 1062.86 487.547 1062.86 491.12C1062.86 491.787 1062.73 492.413 1062.46 493C1062.2 493.587 1061.8 494.107 1061.26 494.56C1060.73 494.987 1060.06 495.333 1059.26 495.6C1058.46 495.84 1057.52 495.96 1056.42 495.96H1047.06ZM1044.34 483.44V512H1056.42C1057.97 512 1059.29 511.867 1060.38 511.6C1061.5 511.307 1062.44 510.947 1063.18 510.52C1063.96 510.067 1064.57 509.547 1065.02 508.96C1065.48 508.373 1065.82 507.787 1066.06 507.2C1066.3 506.587 1066.46 506 1066.54 505.44C1066.62 504.853 1066.66 504.333 1066.66 503.88C1066.66 502.013 1066.12 500.453 1065.02 499.2C1063.93 497.92 1062.46 497.16 1060.62 496.92V496.84C1061.37 496.68 1062.04 496.4 1062.62 496C1063.24 495.6 1063.76 495.12 1064.18 494.56C1064.64 493.973 1064.98 493.333 1065.22 492.64C1065.46 491.92 1065.58 491.187 1065.58 490.44C1065.58 489.107 1065.33 488 1064.82 487.12C1064.32 486.213 1063.64 485.493 1062.78 484.96C1061.96 484.4 1060.98 484.013 1059.86 483.8C1058.77 483.56 1057.62 483.44 1056.42 483.44H1044.34ZM1047.06 509.68V498.28H1056.42C1058.85 498.28 1060.7 498.747 1061.98 499.68C1063.29 500.587 1063.94 501.96 1063.94 503.8C1063.94 504.947 1063.74 505.907 1063.34 506.68C1062.94 507.427 1062.4 508.027 1061.7 508.48C1061.01 508.933 1060.21 509.253 1059.3 509.44C1058.4 509.6 1057.44 509.68 1056.42 509.68H1047.06ZM1073.74 497V485.76H1083.9C1085.98 485.76 1087.53 486.267 1088.54 487.28C1089.56 488.293 1090.06 489.68 1090.06 491.44C1090.06 492.32 1089.89 493.107 1089.54 493.8C1089.22 494.467 1088.78 495.04 1088.22 495.52C1087.66 496 1087.01 496.373 1086.26 496.64C1085.52 496.88 1084.73 497 1083.9 497H1073.74ZM1071.02 483.44V512H1073.74V499.32H1084.06C1085.34 499.267 1086.34 499.48 1087.06 499.96C1087.81 500.44 1088.37 501.08 1088.74 501.88C1089.14 502.653 1089.4 503.547 1089.5 504.56C1089.64 505.547 1089.73 506.547 1089.78 507.56C1089.81 507.853 1089.84 508.2 1089.86 508.6C1089.89 509 1089.92 509.413 1089.94 509.84C1090 510.24 1090.06 510.64 1090.14 511.04C1090.25 511.413 1090.38 511.733 1090.54 512H1093.54C1093.25 511.653 1093.01 511.173 1092.82 510.56C1092.66 509.92 1092.54 509.253 1092.46 508.56C1092.38 507.84 1092.33 507.133 1092.3 506.44C1092.28 505.747 1092.25 505.16 1092.22 504.68C1092.17 503.827 1092.05 503.04 1091.86 502.32C1091.7 501.573 1091.42 500.92 1091.02 500.36C1090.65 499.8 1090.16 499.347 1089.54 499C1088.93 498.627 1088.16 498.373 1087.22 498.24V498.16C1089.06 497.787 1090.45 496.933 1091.38 495.6C1092.32 494.267 1092.78 492.693 1092.78 490.88C1092.78 489.6 1092.54 488.493 1092.06 487.56C1091.61 486.6 1090.98 485.827 1090.18 485.24C1089.41 484.627 1088.49 484.173 1087.42 483.88C1086.38 483.587 1085.28 483.44 1084.1 483.44H1071.02ZM1097.7 483.44V512H1117.62V509.68H1100.42V498.4H1116.34V496.08H1100.42V485.76H1117.42V483.44H1097.7ZM1125.46 500.8L1131.18 486.16L1136.7 500.8H1125.46ZM1129.78 483.44L1118.3 512H1121.18L1124.62 503.12H1137.62L1141.1 512H1144.02L1132.82 483.44H1129.78ZM1146.61 483.44V512H1149.33V502.2L1154.81 497.12L1166.69 512H1170.21L1156.85 495.24L1169.61 483.44H1165.93L1149.33 498.8V483.44H1146.61Z" fill="black"/>
<path d="M1091.88 32.15V50H1094.26V41.825H1103.66V50H1106.03V32.15H1103.66V39.825H1094.26V32.15H1091.88ZM1111.12 43.55C1111.12 42.7667 1111.22 42.075 1111.42 41.475C1111.64 40.8583 1111.93 40.3417 1112.3 39.925C1112.66 39.5083 1113.09 39.1917 1113.57 38.975C1114.07 38.7583 1114.6 38.65 1115.15 38.65C1115.7 38.65 1116.21 38.7583 1116.7 38.975C1117.2 39.1917 1117.63 39.5083 1118 39.925C1118.36 40.3417 1118.65 40.8583 1118.85 41.475C1119.06 42.075 1119.17 42.7667 1119.17 43.55C1119.17 44.3333 1119.06 45.0333 1118.85 45.65C1118.65 46.25 1118.36 46.7583 1118 47.175C1117.63 47.575 1117.2 47.8833 1116.7 48.1C1116.21 48.3167 1115.7 48.425 1115.15 48.425C1114.6 48.425 1114.07 48.3167 1113.57 48.1C1113.09 47.8833 1112.66 47.575 1112.3 47.175C1111.93 46.7583 1111.64 46.25 1111.42 45.65C1111.22 45.0333 1111.12 44.3333 1111.12 43.55ZM1108.87 43.55C1108.87 44.5 1109.01 45.3833 1109.27 46.2C1109.54 47.0167 1109.94 47.7333 1110.47 48.35C1111.01 48.95 1111.66 49.425 1112.45 49.775C1113.23 50.1083 1114.13 50.275 1115.15 50.275C1116.18 50.275 1117.08 50.1083 1117.85 49.775C1118.63 49.425 1119.29 48.95 1119.82 48.35C1120.36 47.7333 1120.76 47.0167 1121.02 46.2C1121.29 45.3833 1121.42 44.5 1121.42 43.55C1121.42 42.6 1121.29 41.7167 1121.02 40.9C1120.76 40.0667 1120.36 39.35 1119.82 38.75C1119.29 38.1333 1118.63 37.65 1117.85 37.3C1117.08 36.95 1116.18 36.775 1115.15 36.775C1114.13 36.775 1113.23 36.95 1112.45 37.3C1111.66 37.65 1111.01 38.1333 1110.47 38.75C1109.94 39.35 1109.54 40.0667 1109.27 40.9C1109.01 41.7167 1108.87 42.6 1108.87 43.55ZM1123.93 37.075V50H1126.05V41.95C1126.05 41.7 1126.11 41.3917 1126.23 41.025C1126.36 40.6417 1126.56 40.275 1126.83 39.925C1127.11 39.575 1127.47 39.275 1127.9 39.025C1128.35 38.775 1128.89 38.65 1129.5 38.65C1129.99 38.65 1130.38 38.725 1130.68 38.875C1130.99 39.0083 1131.24 39.2083 1131.43 39.475C1131.61 39.725 1131.74 40.025 1131.8 40.375C1131.89 40.725 1131.93 41.1083 1131.93 41.525V50H1134.05V41.95C1134.05 40.95 1134.35 40.15 1134.95 39.55C1135.55 38.95 1136.38 38.65 1137.43 38.65C1137.94 38.65 1138.36 38.725 1138.68 38.875C1139.01 39.025 1139.27 39.2333 1139.45 39.5C1139.64 39.75 1139.76 40.05 1139.83 40.4C1139.89 40.75 1139.93 41.125 1139.93 41.525V50H1142.05V40.525C1142.05 39.8583 1141.94 39.2917 1141.73 38.825C1141.53 38.3417 1141.24 37.95 1140.85 37.65C1140.49 37.35 1140.04 37.1333 1139.5 37C1138.99 36.85 1138.4 36.775 1137.75 36.775C1136.9 36.775 1136.12 36.9667 1135.4 37.35C1134.7 37.7333 1134.14 38.275 1133.7 38.975C1133.44 38.175 1132.98 37.6083 1132.33 37.275C1131.68 36.9417 1130.95 36.775 1130.15 36.775C1128.34 36.775 1126.94 37.5083 1125.98 38.975H1125.93V37.075H1123.93ZM1154.22 42.3H1146.79C1146.82 41.8 1146.93 41.3333 1147.12 40.9C1147.3 40.45 1147.55 40.0583 1147.87 39.725C1148.18 39.3917 1148.56 39.1333 1148.99 38.95C1149.44 38.75 1149.94 38.65 1150.49 38.65C1151.02 38.65 1151.51 38.75 1151.94 38.95C1152.39 39.1333 1152.77 39.3917 1153.09 39.725C1153.42 40.0417 1153.68 40.425 1153.87 40.875C1154.07 41.325 1154.18 41.8 1154.22 42.3ZM1156.27 45.9H1154.17C1153.98 46.75 1153.6 47.3833 1153.02 47.8C1152.45 48.2167 1151.72 48.425 1150.82 48.425C1150.12 48.425 1149.51 48.3083 1148.99 48.075C1148.47 47.8417 1148.05 47.5333 1147.72 47.15C1147.38 46.75 1147.14 46.3 1146.99 45.8C1146.84 45.2833 1146.77 44.7417 1146.79 44.175H1156.47C1156.5 43.3917 1156.42 42.5667 1156.24 41.7C1156.07 40.8333 1155.76 40.0333 1155.29 39.3C1154.84 38.5667 1154.23 37.9667 1153.47 37.5C1152.72 37.0167 1151.77 36.775 1150.62 36.775C1149.73 36.775 1148.92 36.9417 1148.17 37.275C1147.43 37.6083 1146.79 38.075 1146.24 38.675C1145.71 39.275 1145.29 39.9833 1144.99 40.8C1144.69 41.6167 1144.54 42.5167 1144.54 43.5C1144.57 44.4833 1144.72 45.3917 1144.97 46.225C1145.23 47.0583 1145.62 47.775 1146.14 48.375C1146.66 48.975 1147.29 49.4417 1148.04 49.775C1148.81 50.1083 1149.71 50.275 1150.74 50.275C1152.21 50.275 1153.42 49.9083 1154.39 49.175C1155.36 48.4417 1155.98 47.35 1156.27 45.9Z" fill="black"/>
<rect x="1195" y="18" width="190" height="45" rx="22.5" fill="url(#paint0_linear)"/>
<path d="M1240.79 37.525H1243.17C1243.03 36.575 1242.75 35.7417 1242.32 35.025C1241.88 34.2917 1241.34 33.6833 1240.69 33.2C1240.04 32.7167 1239.3 32.35 1238.47 32.1C1237.63 31.85 1236.75 31.725 1235.82 31.725C1234.45 31.725 1233.23 31.975 1232.17 32.475C1231.12 32.9583 1230.23 33.625 1229.52 34.475C1228.82 35.325 1228.28 36.325 1227.92 37.475C1227.55 38.6083 1227.37 39.825 1227.37 41.125C1227.37 42.425 1227.53 43.6417 1227.87 44.775C1228.22 45.9083 1228.73 46.8917 1229.42 47.725C1230.1 48.5583 1230.96 49.2167 1231.99 49.7C1233.03 50.1667 1234.23 50.4 1235.62 50.4C1237.9 50.4 1239.7 49.775 1241.02 48.525C1242.33 47.275 1243.11 45.525 1243.34 43.275H1240.97C1240.92 44.0083 1240.77 44.6917 1240.52 45.325C1240.27 45.9583 1239.92 46.5083 1239.47 46.975C1239.03 47.425 1238.51 47.7833 1237.89 48.05C1237.29 48.3 1236.6 48.425 1235.82 48.425C1234.75 48.425 1233.83 48.225 1233.07 47.825C1232.3 47.425 1231.67 46.8917 1231.17 46.225C1230.68 45.5417 1230.33 44.75 1230.09 43.85C1229.86 42.9333 1229.74 41.9667 1229.74 40.95C1229.74 40.0167 1229.86 39.1167 1230.09 38.25C1230.33 37.3833 1230.68 36.6167 1231.17 35.95C1231.67 35.2667 1232.29 34.725 1233.04 34.325C1233.81 33.925 1234.73 33.725 1235.79 33.725C1237.04 33.725 1238.12 34.0417 1239.02 34.675C1239.93 35.3083 1240.53 36.2583 1240.79 37.525ZM1247.48 43.55C1247.48 42.7667 1247.58 42.075 1247.78 41.475C1248 40.8583 1248.29 40.3417 1248.66 39.925C1249.03 39.5083 1249.45 39.1917 1249.93 38.975C1250.43 38.7583 1250.96 38.65 1251.51 38.65C1252.06 38.65 1252.58 38.7583 1253.06 38.975C1253.56 39.1917 1253.99 39.5083 1254.36 39.925C1254.73 40.3417 1255.01 40.8583 1255.21 41.475C1255.43 42.075 1255.53 42.7667 1255.53 43.55C1255.53 44.3333 1255.43 45.0333 1255.21 45.65C1255.01 46.25 1254.73 46.7583 1254.36 47.175C1253.99 47.575 1253.56 47.8833 1253.06 48.1C1252.58 48.3167 1252.06 48.425 1251.51 48.425C1250.96 48.425 1250.43 48.3167 1249.93 48.1C1249.45 47.8833 1249.03 47.575 1248.66 47.175C1248.29 46.7583 1248 46.25 1247.78 45.65C1247.58 45.0333 1247.48 44.3333 1247.48 43.55ZM1245.23 43.55C1245.23 44.5 1245.37 45.3833 1245.63 46.2C1245.9 47.0167 1246.3 47.7333 1246.83 48.35C1247.37 48.95 1248.03 49.425 1248.81 49.775C1249.59 50.1083 1250.49 50.275 1251.51 50.275C1252.54 50.275 1253.44 50.1083 1254.21 49.775C1254.99 49.425 1255.65 48.95 1256.18 48.35C1256.72 47.7333 1257.12 47.0167 1257.38 46.2C1257.65 45.3833 1257.78 44.5 1257.78 43.55C1257.78 42.6 1257.65 41.7167 1257.38 40.9C1257.12 40.0667 1256.72 39.35 1256.18 38.75C1255.65 38.1333 1254.99 37.65 1254.21 37.3C1253.44 36.95 1252.54 36.775 1251.51 36.775C1250.49 36.775 1249.59 36.95 1248.81 37.3C1248.03 37.65 1247.37 38.1333 1246.83 38.75C1246.3 39.35 1245.9 40.0667 1245.63 40.9C1245.37 41.7167 1245.23 42.6 1245.23 43.55ZM1260.29 37.075V50H1262.41V42.7C1262.41 42.1167 1262.49 41.5833 1262.64 41.1C1262.81 40.6 1263.05 40.1667 1263.36 39.8C1263.68 39.4333 1264.07 39.15 1264.54 38.95C1265.02 38.75 1265.59 38.65 1266.24 38.65C1267.06 38.65 1267.7 38.8833 1268.16 39.35C1268.63 39.8167 1268.86 40.45 1268.86 41.25V50H1270.99V41.5C1270.99 40.8 1270.91 40.1667 1270.76 39.6C1270.63 39.0167 1270.39 38.5167 1270.04 38.1C1269.69 37.6833 1269.23 37.3583 1268.66 37.125C1268.1 36.8917 1267.39 36.775 1266.54 36.775C1264.62 36.775 1263.22 37.5583 1262.34 39.125H1262.29V37.075H1260.29ZM1277.13 37.075V33.2H1275.01V37.075H1272.81V38.95H1275.01V47.175C1275.01 47.775 1275.06 48.2583 1275.18 48.625C1275.3 48.9917 1275.47 49.275 1275.71 49.475C1275.96 49.675 1276.27 49.8167 1276.66 49.9C1277.06 49.9667 1277.53 50 1278.08 50H1279.71V48.125H1278.73C1278.4 48.125 1278.12 48.1167 1277.91 48.1C1277.71 48.0667 1277.55 48.0083 1277.43 47.925C1277.31 47.8417 1277.23 47.725 1277.18 47.575C1277.15 47.425 1277.13 47.225 1277.13 46.975V38.95H1279.71V37.075H1277.13ZM1293.52 49.95C1293.15 50.1667 1292.64 50.275 1291.99 50.275C1291.44 50.275 1291 50.125 1290.67 49.825C1290.35 49.5083 1290.19 49 1290.19 48.3C1289.61 49 1288.93 49.5083 1288.14 49.825C1287.38 50.125 1286.54 50.275 1285.64 50.275C1285.06 50.275 1284.5 50.2083 1283.97 50.075C1283.45 49.9417 1283 49.7333 1282.62 49.45C1282.23 49.1667 1281.93 48.8 1281.69 48.35C1281.48 47.8833 1281.37 47.325 1281.37 46.675C1281.37 45.9417 1281.49 45.3417 1281.74 44.875C1281.99 44.4083 1282.32 44.0333 1282.72 43.75C1283.13 43.45 1283.6 43.225 1284.12 43.075C1284.65 42.925 1285.19 42.8 1285.74 42.7C1286.33 42.5833 1286.88 42.5 1287.39 42.45C1287.93 42.3833 1288.39 42.3 1288.79 42.2C1289.19 42.0833 1289.51 41.925 1289.74 41.725C1289.98 41.5083 1290.09 41.2 1290.09 40.8C1290.09 40.3333 1290 39.9583 1289.82 39.675C1289.65 39.3917 1289.43 39.175 1289.14 39.025C1288.88 38.875 1288.57 38.775 1288.22 38.725C1287.88 38.675 1287.55 38.65 1287.22 38.65C1286.32 38.65 1285.57 38.825 1284.97 39.175C1284.37 39.5083 1284.04 40.15 1283.99 41.1H1281.87C1281.9 40.3 1282.07 39.625 1282.37 39.075C1282.67 38.525 1283.07 38.0833 1283.57 37.75C1284.07 37.4 1284.63 37.15 1285.27 37C1285.92 36.85 1286.61 36.775 1287.34 36.775C1287.93 36.775 1288.5 36.8167 1289.07 36.9C1289.65 36.9833 1290.18 37.1583 1290.64 37.425C1291.11 37.675 1291.48 38.0333 1291.77 38.5C1292.05 38.9667 1292.19 39.575 1292.19 40.325V46.975C1292.19 47.475 1292.22 47.8417 1292.27 48.075C1292.33 48.3083 1292.53 48.425 1292.87 48.425C1293.05 48.425 1293.27 48.3833 1293.52 48.3V49.95ZM1290.07 43.325C1289.8 43.525 1289.45 43.675 1289.02 43.775C1288.58 43.8583 1288.13 43.9333 1287.64 44C1287.18 44.05 1286.7 44.1167 1286.22 44.2C1285.73 44.2667 1285.3 44.3833 1284.92 44.55C1284.53 44.7167 1284.22 44.9583 1283.97 45.275C1283.73 45.575 1283.62 45.9917 1283.62 46.525C1283.62 46.875 1283.68 47.175 1283.82 47.425C1283.97 47.6583 1284.15 47.85 1284.37 48C1284.6 48.15 1284.87 48.2583 1285.17 48.325C1285.47 48.3917 1285.78 48.425 1286.12 48.425C1286.82 48.425 1287.42 48.3333 1287.92 48.15C1288.42 47.95 1288.83 47.7083 1289.14 47.425C1289.46 47.125 1289.69 46.8083 1289.84 46.475C1289.99 46.125 1290.07 45.8 1290.07 45.5V43.325ZM1304.27 41.225H1306.47C1306.39 40.4583 1306.19 39.8 1305.87 39.25C1305.55 38.6833 1305.14 38.2167 1304.64 37.85C1304.16 37.4833 1303.59 37.2167 1302.94 37.05C1302.31 36.8667 1301.63 36.775 1300.89 36.775C1299.88 36.775 1298.99 36.9583 1298.22 37.325C1297.45 37.675 1296.81 38.1667 1296.29 38.8C1295.79 39.4167 1295.42 40.15 1295.17 41C1294.92 41.8333 1294.79 42.7333 1294.79 43.7C1294.79 44.6667 1294.92 45.5583 1295.17 46.375C1295.44 47.175 1295.82 47.8667 1296.32 48.45C1296.84 49.0333 1297.47 49.4833 1298.22 49.8C1298.99 50.1167 1299.86 50.275 1300.84 50.275C1302.49 50.275 1303.79 49.8417 1304.74 48.975C1305.71 48.1083 1306.31 46.875 1306.54 45.275H1304.37C1304.24 46.275 1303.87 47.05 1303.27 47.6C1302.69 48.15 1301.87 48.425 1300.82 48.425C1300.15 48.425 1299.58 48.2917 1299.09 48.025C1298.61 47.7583 1298.22 47.4083 1297.92 46.975C1297.62 46.525 1297.39 46.0167 1297.24 45.45C1297.11 44.8833 1297.04 44.3 1297.04 43.7C1297.04 43.05 1297.11 42.425 1297.24 41.825C1297.38 41.2083 1297.59 40.6667 1297.89 40.2C1298.21 39.7333 1298.63 39.3583 1299.14 39.075C1299.66 38.7917 1300.3 38.65 1301.07 38.65C1301.97 38.65 1302.69 38.875 1303.22 39.325C1303.75 39.775 1304.1 40.4083 1304.27 41.225ZM1311.87 37.075V33.2H1309.75V37.075H1307.55V38.95H1309.75V47.175C1309.75 47.775 1309.81 48.2583 1309.92 48.625C1310.04 48.9917 1310.21 49.275 1310.45 49.475C1310.7 49.675 1311.01 49.8167 1311.4 49.9C1311.8 49.9667 1312.27 50 1312.82 50H1314.45V48.125H1313.47C1313.14 48.125 1312.86 48.1167 1312.65 48.1C1312.45 48.0667 1312.29 48.0083 1312.17 47.925C1312.06 47.8417 1311.97 47.725 1311.92 47.575C1311.89 47.425 1311.87 47.225 1311.87 46.975V38.95H1314.45V37.075H1311.87ZM1338.37 43.55V32.15H1335.99V43.55C1335.99 45.15 1335.59 46.3667 1334.79 47.2C1334.01 48.0167 1332.86 48.425 1331.34 48.425C1329.74 48.425 1328.52 48.0167 1327.67 47.2C1326.82 46.3667 1326.39 45.15 1326.39 43.55V32.15H1324.02V43.55C1324.02 45.9333 1324.66 47.675 1325.94 48.775C1327.24 49.8583 1329.04 50.4 1331.34 50.4C1333.59 50.4 1335.32 49.8333 1336.54 48.7C1337.76 47.55 1338.37 45.8333 1338.37 43.55ZM1343.11 45.925H1340.98C1341.02 46.725 1341.18 47.4083 1341.48 47.975C1341.78 48.525 1342.18 48.975 1342.68 49.325C1343.18 49.6583 1343.76 49.9 1344.41 50.05C1345.06 50.2 1345.74 50.275 1346.46 50.275C1347.11 50.275 1347.76 50.2083 1348.41 50.075C1349.07 49.9583 1349.67 49.7417 1350.18 49.425C1350.72 49.1083 1351.14 48.6917 1351.46 48.175C1351.79 47.6583 1351.96 47.0083 1351.96 46.225C1351.96 45.6083 1351.83 45.0917 1351.58 44.675C1351.35 44.2583 1351.03 43.9167 1350.63 43.65C1350.25 43.3667 1349.8 43.1417 1349.28 42.975C1348.78 42.8083 1348.27 42.6667 1347.73 42.55C1347.23 42.4333 1346.73 42.325 1346.23 42.225C1345.73 42.1083 1345.28 41.975 1344.88 41.825C1344.48 41.6583 1344.15 41.4583 1343.88 41.225C1343.63 40.975 1343.51 40.6667 1343.51 40.3C1343.51 39.9667 1343.59 39.7 1343.76 39.5C1343.92 39.2833 1344.14 39.1167 1344.41 39C1344.67 38.8667 1344.97 38.775 1345.28 38.725C1345.62 38.675 1345.94 38.65 1346.26 38.65C1346.61 38.65 1346.95 38.6917 1347.28 38.775C1347.63 38.8417 1347.95 38.9583 1348.23 39.125C1348.52 39.2917 1348.75 39.5167 1348.93 39.8C1349.12 40.0667 1349.22 40.4083 1349.26 40.825H1351.38C1351.33 40.0417 1351.17 39.3917 1350.88 38.875C1350.6 38.3417 1350.22 37.925 1349.73 37.625C1349.27 37.3083 1348.72 37.0917 1348.11 36.975C1347.49 36.8417 1346.82 36.775 1346.08 36.775C1345.52 36.775 1344.94 36.85 1344.36 37C1343.79 37.1333 1343.27 37.35 1342.81 37.65C1342.36 37.9333 1341.98 38.3083 1341.68 38.775C1341.4 39.2417 1341.26 39.8 1341.26 40.45C1341.26 41.2833 1341.47 41.9333 1341.88 42.4C1342.3 42.8667 1342.82 43.2333 1343.43 43.5C1344.07 43.75 1344.75 43.95 1345.48 44.1C1346.22 44.2333 1346.89 44.3917 1347.51 44.575C1348.14 44.7417 1348.67 44.9667 1349.08 45.25C1349.5 45.5333 1349.71 45.95 1349.71 46.5C1349.71 46.9 1349.61 47.2333 1349.41 47.5C1349.21 47.75 1348.95 47.9417 1348.63 48.075C1348.33 48.2083 1348 48.3 1347.63 48.35C1347.27 48.4 1346.92 48.425 1346.58 48.425C1346.15 48.425 1345.72 48.3833 1345.31 48.3C1344.91 48.2167 1344.54 48.0833 1344.21 47.9C1343.89 47.7 1343.63 47.4417 1343.43 47.125C1343.23 46.7917 1343.12 46.3917 1343.11 45.925Z" fill="white"/>
</g>
<defs>
<filter id="filter0_d" x="468.661" y="227.08" width="501.932" height="249.575" filterUnits="userSpaceOnUse" color-interpolation-filters="sRGB">
<feFlood flood-opacity="0" result="BackgroundImageFix"/>
<feColorMatrix in="SourceAlpha" type="matrix" values="0 0 0 0 0 0 0 0 0 0 0 0 0 0 0 0 0 0 127 0"/>
<feOffset dy="4"/>
<feGaussianBlur stdDeviation="11.5"/>
<feColorMatrix type="matrix" values="0 0 0 0 0.054902 0 0 0 0 0.196078 0 0 0 0 0.34902 0 0 0 0.5 0"/>
<feBlend mode="normal" in2="BackgroundImageFix" result="effect1_dropShadow"/>
<feBlend mode="normal" in="SourceGraphic" in2="effect1_dropShadow" result="shape"/>
</filter>
<linearGradient id="paint0_linear" x1="1385" y1="40" x2="1195" y2="40" gradientUnits="userSpaceOnUse">
<stop stop-color="#6299F0"/>
<stop offset="1" stop-color="#4E79C8"/>
</linearGradient>
<clipPath id="clip0">
<rect width="1440" height="1024" fill="white"/>
</clipPath>
</defs>
</svg>
