<svg width="1440" height="1024" viewBox="0 0 1440 1024" fill="none" xmlns="http://www.w3.org/2000/svg">
<g clip-path="url(#clip0)">
<rect width="1440" height="1024" fill="white"/>
<path d="M661.989 133.529C781.065 -156.617 1034.46 195.469 1064.41 376.571C1089.99 531.307 1005.67 670.926 856.809 720.303C682.582 778.093 456.581 644.63 400.655 481.919C344.729 319.207 542.912 423.675 661.989 133.529Z" fill="#207FEB" fill-opacity="0.16"/>
<path d="M1321.45 871.481V735.305H1288.31V619.344H1205.46V871.481H1168.42V735.305H1103.11V677.324H1061.68V693.885H1044.14V701.139H1023.43V713.56H1011.73V871.481H998.568V677.324H937.404V871.481H928.386V767.418H849.672V871.481H845.532V598.625H766.818V871.481H745.128V668.522L666.414 620.892V753.954H644.724V724.955H593.316V871.481H489.132V644.707H407.124V871.481H318.546V563.416H236.538V729.095H210.294V689.745H128.286V767.418H101.97V871.481H78.696V677.324H0V1032.98H1440V871.481H1321.45Z" fill="#207FEB" fill-opacity="0.5"/>
<path d="M1398.4 739.301V928.579H1390.64V800.612H1348.09V928.651H1279.51V726.017H1228.45V928.579H1217.65V684.489C1217.66 677.97 1215.19 671.691 1210.73 666.932C1206.28 662.172 1200.18 659.291 1193.67 658.874L1192.12 594.071L1190.57 658.874C1184.07 659.286 1177.96 662.167 1173.51 666.927C1169.05 671.687 1166.58 677.968 1166.6 684.489V928.579H1100.14V746.213H1049.08V928.579H1007.37V785.239H949.086V928.579H916.2V679.215H894.096L892.296 601.217L890.496 679.215H861.156V729.365H824.67L806.67 698.007L788.67 729.401H785.07V699.807H733.662V928.597H723.708V825.813H700.128V794.744H660.798V773.143H618.858V809.018H599.994V630.81H586.422C584.317 625.399 580.73 620.69 576.073 617.223C571.415 613.756 565.876 611.672 560.088 611.208L558 527L555.984 611.046C550.069 611.381 544.375 613.411 539.581 616.893C534.787 620.375 531.096 625.163 528.948 630.684H518.148V928.579H508.194V745.151H459.522V928.579H443.808V745.151H409.374L375.606 686.271L341.82 745.151H308.556V928.579H300.69V834.813H247.23V928.669H235.692V854.344H208.98V928.579H184.86V802.574H144.504V928.579H141.876V845.776H115.2V834.813H88.416V928.669H80.55V787.363H42.75V745.151H15.588L13.41 654.067L11.232 745.151H0V1032.98H1440V739.301H1398.4Z" fill="#3B81D0"/>
<path d="M1359.79 777.031V846.658H1334.07V971.475H1284.41V894.9H1236.37V926.851H1221.03V1003.59H1161.18V883.451H1078.42V855.1H986.832V891.282H912.654V1003.59H833.184V878.627H778.374V1003.59H749.196V827.973H725.886V777.931H671.094V1003.59H649.008V838.827H563.184V1003.59H544.788V861.742H458.964V1003.59H409.302V853.894H314.892V881.039H226.602V1003.59H155.484V891.876H61.074V1003.59H50.022V849.682H0V1032.98H1440V777.031H1359.79Z" fill="#1657A2"/>
<path d="M1385.77 920.551V994.516H1352.83V956.066H1277.77V983.284H1202.69V1008.12H1143.04V925.879H1090.22V976.767H1063.82V1008.12H1048.68V951.926H954.324V1009.1H905.958V951.926H867.276V1008.12H849.258V987.55H810.594V1008.12H788.022V951.926H716.49V1008.12H705.078V951.926H666.414V1008.12H657.756V877.925H619.092V1009.1H573.03V920.551H517.824V942.134H462.636V973.563H427.914V925.879H368.73V914.143H275.112V925.879H207.162V956.066H180.756V938.282H137.898V920.551H0V1032.98H1440V920.551H1385.77Z" fill="#0E3259"/>
<g filter="url(#filter0_d)">
<path d="M626.621 291.76V259H517.141L497.821 367.36H533.661C537.581 361.947 541.781 358.027 546.261 355.6C550.741 352.987 556.528 351.68 563.621 351.68C569.034 351.68 573.794 352.613 577.901 354.48C582.008 356.347 585.554 358.96 588.541 362.32C591.528 365.68 593.768 369.6 595.261 374.08C596.754 378.56 597.501 383.32 597.501 388.36C597.501 393.213 596.661 397.973 594.981 402.64C593.488 407.12 591.248 411.133 588.261 414.68C585.461 418.04 581.914 420.84 577.621 423.08C573.514 425.133 568.848 426.16 563.621 426.16C554.661 426.16 547.288 423.547 541.501 418.32C535.714 412.907 532.354 405.72 531.421 396.76H491.661C491.848 407.027 493.901 416.08 497.821 423.92C501.928 431.573 507.341 438.013 514.061 443.24C520.781 448.467 528.434 452.387 537.021 455C545.794 457.427 554.941 458.64 564.461 458.64C574.354 458.827 583.688 457.24 592.461 453.88C601.234 450.333 608.888 445.387 615.421 439.04C622.141 432.693 627.461 425.227 631.381 416.64C635.301 407.867 637.261 398.44 637.261 388.36C637.261 379.213 635.861 370.627 633.061 362.6C630.448 354.387 626.528 347.293 621.301 341.32C616.261 335.347 610.008 330.587 602.541 327.04C595.074 323.493 586.488 321.72 576.781 321.72C568.941 321.72 561.941 322.933 555.781 325.36C549.621 327.6 543.834 331.427 538.421 336.84L537.861 336.28L545.701 291.76H626.621ZM687.847 356.16C687.847 352.8 687.847 348.787 687.847 344.12C688.034 339.267 688.407 334.32 688.967 329.28C689.527 324.24 690.46 319.293 691.767 314.44C693.074 309.4 694.847 304.92 697.087 301C699.514 297.08 702.5 293.907 706.047 291.48C709.78 289.053 714.354 287.84 719.767 287.84C725.18 287.84 729.754 289.053 733.487 291.48C737.22 293.907 740.3 297.08 742.727 301C745.154 304.92 746.927 309.4 748.047 314.44C749.354 319.293 750.287 324.24 750.847 329.28C751.594 334.32 751.967 339.267 751.967 344.12C752.154 348.787 752.247 352.8 752.247 356.16C752.247 361.76 752.06 368.573 751.687 376.6C751.314 384.44 750.1 392.093 748.047 399.56C746.18 406.84 743.007 413.093 738.527 418.32C734.234 423.547 727.98 426.16 719.767 426.16C711.74 426.16 705.58 423.547 701.287 418.32C696.994 413.093 693.82 406.84 691.767 399.56C689.9 392.093 688.78 384.44 688.407 376.6C688.034 368.573 687.847 361.76 687.847 356.16ZM648.087 356.16C648.087 375.76 649.954 392.187 653.687 405.44C657.607 418.507 662.834 428.96 669.367 436.8C675.9 444.64 683.46 450.24 692.047 453.6C700.82 456.96 710.06 458.64 719.767 458.64C729.66 458.64 738.9 456.96 747.487 453.6C756.26 450.24 763.914 444.64 770.447 436.8C777.167 428.96 782.394 418.507 786.127 405.44C790.047 392.187 792.007 375.76 792.007 356.16C792.007 337.12 790.047 321.16 786.127 308.28C782.394 295.213 777.167 284.76 770.447 276.92C763.914 269.08 756.26 263.48 747.487 260.12C738.9 256.76 729.66 255.08 719.767 255.08C710.06 255.08 700.82 256.76 692.047 260.12C683.46 263.48 675.9 269.08 669.367 276.92C662.834 284.76 657.607 295.213 653.687 308.28C649.954 321.16 648.087 337.12 648.087 356.16ZM907.553 455V259H875.913C874.793 266.467 872.46 272.72 868.913 277.76C865.366 282.8 860.98 286.907 855.753 290.08C850.713 293.067 844.926 295.213 838.393 296.52C832.046 297.64 825.42 298.107 818.513 297.92V327.88H867.793V455H907.553Z" fill="#0E3259"/>
</g>
<path d="M349.691 490.8H353.291C353.237 489.227 352.931 487.88 352.371 486.76C351.837 485.613 351.091 484.667 350.131 483.92C349.197 483.173 348.104 482.627 346.851 482.28C345.597 481.933 344.237 481.76 342.771 481.76C341.464 481.76 340.184 481.933 338.931 482.28C337.704 482.6 336.597 483.107 335.611 483.8C334.651 484.467 333.877 485.333 333.291 486.4C332.704 487.44 332.411 488.68 332.411 490.12C332.411 491.427 332.664 492.52 333.171 493.4C333.704 494.253 334.397 494.96 335.251 495.52C336.131 496.053 337.117 496.493 338.211 496.84C339.304 497.16 340.411 497.453 341.531 497.72C342.677 497.96 343.797 498.2 344.891 498.44C345.984 498.68 346.957 499 347.811 499.4C348.691 499.773 349.384 500.267 349.891 500.88C350.424 501.493 350.691 502.293 350.691 503.28C350.691 504.32 350.477 505.173 350.051 505.84C349.624 506.507 349.064 507.04 348.371 507.44C347.677 507.813 346.891 508.08 346.011 508.24C345.157 508.4 344.304 508.48 343.451 508.48C342.384 508.48 341.344 508.347 340.331 508.08C339.317 507.813 338.424 507.4 337.651 506.84C336.904 506.28 336.291 505.573 335.811 504.72C335.357 503.84 335.131 502.8 335.131 501.6H331.531C331.531 503.333 331.837 504.84 332.451 506.12C333.091 507.373 333.944 508.413 335.011 509.24C336.104 510.04 337.357 510.64 338.771 511.04C340.211 511.44 341.731 511.64 343.331 511.64C344.637 511.64 345.944 511.48 347.251 511.16C348.584 510.867 349.784 510.387 350.851 509.72C351.917 509.027 352.784 508.147 353.451 507.08C354.144 505.987 354.491 504.68 354.491 503.16C354.491 501.747 354.224 500.573 353.691 499.64C353.184 498.707 352.491 497.933 351.611 497.32C350.757 496.707 349.784 496.227 348.691 495.88C347.597 495.507 346.477 495.187 345.331 494.92C344.211 494.653 343.104 494.413 342.011 494.2C340.917 493.96 339.931 493.667 339.051 493.32C338.197 492.973 337.504 492.533 336.971 492C336.464 491.44 336.211 490.72 336.211 489.84C336.211 488.907 336.384 488.133 336.731 487.52C337.104 486.88 337.584 486.373 338.171 486C338.784 485.627 339.477 485.36 340.251 485.2C341.024 485.04 341.811 484.96 342.611 484.96C344.584 484.96 346.197 485.427 347.451 486.36C348.731 487.267 349.477 488.747 349.691 490.8ZM372.908 498.68H361.028C361.082 497.88 361.255 497.133 361.548 496.44C361.842 495.72 362.242 495.093 362.748 494.56C363.255 494.027 363.855 493.613 364.548 493.32C365.268 493 366.068 492.84 366.948 492.84C367.802 492.84 368.575 493 369.268 493.32C369.988 493.613 370.602 494.027 371.108 494.56C371.642 495.067 372.055 495.68 372.348 496.4C372.668 497.12 372.855 497.88 372.908 498.68ZM376.188 504.44H372.828C372.535 505.8 371.922 506.813 370.988 507.48C370.082 508.147 368.908 508.48 367.468 508.48C366.348 508.48 365.375 508.293 364.548 507.92C363.722 507.547 363.042 507.053 362.508 506.44C361.975 505.8 361.588 505.08 361.348 504.28C361.108 503.453 361.002 502.587 361.028 501.68H376.508C376.562 500.427 376.442 499.107 376.148 497.72C375.882 496.333 375.375 495.053 374.628 493.88C373.908 492.707 372.935 491.747 371.708 491C370.508 490.227 368.988 489.84 367.148 489.84C365.735 489.84 364.428 490.107 363.228 490.64C362.055 491.173 361.028 491.92 360.148 492.88C359.295 493.84 358.628 494.973 358.148 496.28C357.668 497.587 357.428 499.027 357.428 500.6C357.482 502.173 357.708 503.627 358.108 504.96C358.535 506.293 359.162 507.44 359.988 508.4C360.815 509.36 361.828 510.107 363.028 510.64C364.255 511.173 365.695 511.44 367.348 511.44C369.695 511.44 371.642 510.853 373.188 509.68C374.735 508.507 375.735 506.76 376.188 504.44ZM379.913 490.32V511H383.313V501.8C383.313 500.467 383.446 499.293 383.713 498.28C383.979 497.24 384.406 496.36 384.993 495.64C385.579 494.92 386.353 494.373 387.313 494C388.273 493.627 389.433 493.44 390.793 493.44V489.84C388.953 489.787 387.433 490.16 386.233 490.96C385.033 491.76 384.019 493 383.193 494.68H383.113V490.32H379.913ZM402.673 511L410.233 490.32H406.673L401.033 507.56H400.953L395.153 490.32H391.353L399.033 511H402.673ZM427.713 498.68H415.833C415.886 497.88 416.06 497.133 416.353 496.44C416.646 495.72 417.046 495.093 417.553 494.56C418.06 494.027 418.66 493.613 419.353 493.32C420.073 493 420.873 492.84 421.753 492.84C422.606 492.84 423.38 493 424.073 493.32C424.793 493.613 425.406 494.027 425.913 494.56C426.446 495.067 426.86 495.68 427.153 496.4C427.473 497.12 427.66 497.88 427.713 498.68ZM430.993 504.44H427.633C427.34 505.8 426.726 506.813 425.793 507.48C424.886 508.147 423.713 508.48 422.273 508.48C421.153 508.48 420.18 508.293 419.353 507.92C418.526 507.547 417.846 507.053 417.313 506.44C416.78 505.8 416.393 505.08 416.153 504.28C415.913 503.453 415.806 502.587 415.833 501.68H431.313C431.366 500.427 431.246 499.107 430.953 497.72C430.686 496.333 430.18 495.053 429.433 493.88C428.713 492.707 427.74 491.747 426.513 491C425.313 490.227 423.793 489.84 421.953 489.84C420.54 489.84 419.233 490.107 418.033 490.64C416.86 491.173 415.833 491.92 414.953 492.88C414.1 493.84 413.433 494.973 412.953 496.28C412.473 497.587 412.233 499.027 412.233 500.6C412.286 502.173 412.513 503.627 412.913 504.96C413.34 506.293 413.966 507.44 414.793 508.4C415.62 509.36 416.633 510.107 417.833 510.64C419.06 511.173 420.5 511.44 422.153 511.44C424.5 511.44 426.446 510.853 427.993 509.68C429.54 508.507 430.54 506.76 430.993 504.44ZM434.717 490.32V511H438.117V501.8C438.117 500.467 438.251 499.293 438.517 498.28C438.784 497.24 439.211 496.36 439.797 495.64C440.384 494.92 441.157 494.373 442.117 494C443.077 493.627 444.237 493.44 445.597 493.44V489.84C443.757 489.787 442.237 490.16 441.037 490.96C439.837 491.76 438.824 493 437.997 494.68H437.917V490.32H434.717ZM450.238 504.48H446.838C446.891 505.76 447.158 506.853 447.638 507.76C448.118 508.64 448.758 509.36 449.558 509.92C450.358 510.453 451.278 510.84 452.318 511.08C453.358 511.32 454.451 511.44 455.598 511.44C456.638 511.44 457.678 511.333 458.718 511.12C459.784 510.933 460.731 510.587 461.558 510.08C462.411 509.573 463.091 508.907 463.598 508.08C464.131 507.253 464.398 506.213 464.398 504.96C464.398 503.973 464.198 503.147 463.798 502.48C463.424 501.813 462.918 501.267 462.278 500.84C461.664 500.387 460.944 500.027 460.118 499.76C459.318 499.493 458.491 499.267 457.638 499.08C456.838 498.893 456.038 498.72 455.238 498.56C454.438 498.373 453.718 498.16 453.078 497.92C452.438 497.653 451.904 497.333 451.478 496.96C451.078 496.56 450.878 496.067 450.878 495.48C450.878 494.947 451.011 494.52 451.278 494.2C451.544 493.853 451.891 493.587 452.318 493.4C452.744 493.187 453.211 493.04 453.718 492.96C454.251 492.88 454.771 492.84 455.278 492.84C455.838 492.84 456.384 492.907 456.918 493.04C457.478 493.147 457.984 493.333 458.438 493.6C458.891 493.867 459.264 494.227 459.558 494.68C459.851 495.107 460.024 495.653 460.078 496.32H463.478C463.398 495.067 463.131 494.027 462.678 493.2C462.224 492.347 461.611 491.68 460.838 491.2C460.091 490.693 459.224 490.347 458.238 490.16C457.251 489.947 456.171 489.84 454.998 489.84C454.091 489.84 453.171 489.96 452.238 490.2C451.331 490.413 450.504 490.76 449.758 491.24C449.038 491.693 448.438 492.293 447.958 493.04C447.504 493.787 447.278 494.68 447.278 495.72C447.278 497.053 447.611 498.093 448.278 498.84C448.944 499.587 449.771 500.173 450.758 500.6C451.771 501 452.864 501.32 454.038 501.56C455.211 501.773 456.291 502.027 457.278 502.32C458.291 502.587 459.131 502.947 459.798 503.4C460.464 503.853 460.798 504.52 460.798 505.4C460.798 506.04 460.638 506.573 460.318 507C459.998 507.4 459.584 507.707 459.078 507.92C458.598 508.133 458.064 508.28 457.478 508.36C456.891 508.44 456.331 508.48 455.798 508.48C455.104 508.48 454.424 508.413 453.758 508.28C453.118 508.147 452.531 507.933 451.998 507.64C451.491 507.32 451.078 506.907 450.758 506.4C450.438 505.867 450.264 505.227 450.238 504.48ZM497.61 510.92C497.024 511.267 496.21 511.44 495.17 511.44C494.29 511.44 493.584 511.2 493.05 510.72C492.544 510.213 492.29 509.4 492.29 508.28C491.357 509.4 490.264 510.213 489.01 510.72C487.784 511.2 486.45 511.44 485.01 511.44C484.077 511.44 483.184 511.333 482.33 511.12C481.504 510.907 480.784 510.573 480.17 510.12C479.557 509.667 479.064 509.08 478.69 508.36C478.344 507.613 478.17 506.72 478.17 505.68C478.17 504.507 478.37 503.547 478.77 502.8C479.17 502.053 479.69 501.453 480.33 501C480.997 500.52 481.744 500.16 482.57 499.92C483.424 499.68 484.29 499.48 485.17 499.32C486.104 499.133 486.984 499 487.81 498.92C488.664 498.813 489.41 498.68 490.05 498.52C490.69 498.333 491.197 498.08 491.57 497.76C491.944 497.413 492.13 496.92 492.13 496.28C492.13 495.533 491.984 494.933 491.69 494.48C491.424 494.027 491.064 493.68 490.61 493.44C490.184 493.2 489.69 493.04 489.13 492.96C488.597 492.88 488.064 492.84 487.53 492.84C486.09 492.84 484.89 493.12 483.93 493.68C482.97 494.213 482.45 495.24 482.37 496.76H478.97C479.024 495.48 479.29 494.4 479.77 493.52C480.25 492.64 480.89 491.933 481.69 491.4C482.49 490.84 483.397 490.44 484.41 490.2C485.45 489.96 486.557 489.84 487.73 489.84C488.664 489.84 489.584 489.907 490.49 490.04C491.424 490.173 492.264 490.453 493.01 490.88C493.757 491.28 494.357 491.853 494.81 492.6C495.264 493.347 495.49 494.32 495.49 495.52V506.16C495.49 506.96 495.53 507.547 495.61 507.92C495.717 508.293 496.037 508.48 496.57 508.48C496.864 508.48 497.21 508.413 497.61 508.28V510.92ZM492.09 500.32C491.664 500.64 491.104 500.88 490.41 501.04C489.717 501.173 488.984 501.293 488.21 501.4C487.464 501.48 486.704 501.587 485.93 501.72C485.157 501.827 484.464 502.013 483.85 502.28C483.237 502.547 482.73 502.933 482.33 503.44C481.957 503.92 481.77 504.587 481.77 505.44C481.77 506 481.877 506.48 482.09 506.88C482.33 507.253 482.624 507.56 482.97 507.8C483.344 508.04 483.77 508.213 484.25 508.32C484.73 508.427 485.237 508.48 485.77 508.48C486.89 508.48 487.85 508.333 488.65 508.04C489.45 507.72 490.104 507.333 490.61 506.88C491.117 506.4 491.49 505.893 491.73 505.36C491.97 504.8 492.09 504.28 492.09 503.8V500.32ZM500.655 490.32V511H504.055V501.8C504.055 500.467 504.188 499.293 504.455 498.28C504.722 497.24 505.148 496.36 505.735 495.64C506.322 494.92 507.095 494.373 508.055 494C509.015 493.627 510.175 493.44 511.535 493.44V489.84C509.695 489.787 508.175 490.16 506.975 490.96C505.775 491.76 504.762 493 503.935 494.68H503.855V490.32H500.655ZM527.752 498.68H515.872C515.925 497.88 516.099 497.133 516.392 496.44C516.685 495.72 517.085 495.093 517.592 494.56C518.099 494.027 518.699 493.613 519.392 493.32C520.112 493 520.912 492.84 521.792 492.84C522.645 492.84 523.419 493 524.112 493.32C524.832 493.613 525.445 494.027 525.952 494.56C526.485 495.067 526.899 495.68 527.192 496.4C527.512 497.12 527.699 497.88 527.752 498.68ZM531.032 504.44H527.672C527.379 505.8 526.765 506.813 525.832 507.48C524.925 508.147 523.752 508.48 522.312 508.48C521.192 508.48 520.219 508.293 519.392 507.92C518.565 507.547 517.885 507.053 517.352 506.44C516.819 505.8 516.432 505.08 516.192 504.28C515.952 503.453 515.845 502.587 515.872 501.68H531.352C531.405 500.427 531.285 499.107 530.992 497.72C530.725 496.333 530.219 495.053 529.472 493.88C528.752 492.707 527.779 491.747 526.552 491C525.352 490.227 523.832 489.84 521.992 489.84C520.579 489.84 519.272 490.107 518.072 490.64C516.899 491.173 515.872 491.92 514.992 492.88C514.139 493.84 513.472 494.973 512.992 496.28C512.512 497.587 512.272 499.027 512.272 500.6C512.325 502.173 512.552 503.627 512.952 504.96C513.379 506.293 514.005 507.44 514.832 508.4C515.659 509.36 516.672 510.107 517.872 510.64C519.099 511.173 520.539 511.44 522.192 511.44C524.539 511.44 526.485 510.853 528.032 509.68C529.579 508.507 530.579 506.76 531.032 504.44ZM548.489 500.84C548.489 499.827 548.596 498.84 548.809 497.88C549.023 496.92 549.369 496.067 549.849 495.32C550.329 494.573 550.969 493.973 551.769 493.52C552.569 493.067 553.543 492.84 554.689 492.84C555.863 492.84 556.863 493.067 557.689 493.52C558.516 493.947 559.183 494.52 559.689 495.24C560.223 495.96 560.609 496.8 560.849 497.76C561.089 498.693 561.209 499.667 561.209 500.68C561.209 501.64 561.089 502.587 560.849 503.52C560.636 504.453 560.276 505.293 559.769 506.04C559.263 506.76 558.609 507.347 557.809 507.8C557.009 508.253 556.036 508.48 554.889 508.48C553.796 508.48 552.836 508.267 552.009 507.84C551.209 507.413 550.543 506.84 550.009 506.12C549.503 505.4 549.116 504.587 548.849 503.68C548.609 502.747 548.489 501.8 548.489 500.84ZM564.489 511V482.44H561.089V493.08H561.009C560.636 492.467 560.169 491.96 559.609 491.56C559.076 491.133 558.503 490.8 557.889 490.56C557.276 490.293 556.663 490.107 556.049 490C555.436 489.893 554.863 489.84 554.329 489.84C552.756 489.84 551.369 490.133 550.169 490.72C548.996 491.28 548.009 492.053 547.209 493.04C546.436 494 545.849 495.133 545.449 496.44C545.076 497.747 544.889 499.133 544.889 500.6C544.889 502.067 545.089 503.453 545.489 504.76C545.889 506.067 546.476 507.213 547.249 508.2C548.049 509.187 549.036 509.973 550.209 510.56C551.409 511.147 552.809 511.44 554.409 511.44C555.849 511.44 557.169 511.187 558.369 510.68C559.569 510.173 560.449 509.347 561.009 508.2H561.089V511H564.489ZM572.2 500.68C572.2 499.427 572.36 498.32 572.68 497.36C573.027 496.373 573.493 495.547 574.08 494.88C574.667 494.213 575.347 493.707 576.12 493.36C576.92 493.013 577.76 492.84 578.64 492.84C579.52 492.84 580.347 493.013 581.12 493.36C581.92 493.707 582.613 494.213 583.2 494.88C583.787 495.547 584.24 496.373 584.56 497.36C584.907 498.32 585.08 499.427 585.08 500.68C585.08 501.933 584.907 503.053 584.56 504.04C584.24 505 583.787 505.813 583.2 506.48C582.613 507.12 581.92 507.613 581.12 507.96C580.347 508.307 579.52 508.48 578.64 508.48C577.76 508.48 576.92 508.307 576.12 507.96C575.347 507.613 574.667 507.12 574.08 506.48C573.493 505.813 573.027 505 572.68 504.04C572.36 503.053 572.2 501.933 572.2 500.68ZM568.6 500.68C568.6 502.2 568.813 503.613 569.24 504.92C569.667 506.227 570.307 507.373 571.16 508.36C572.013 509.32 573.067 510.08 574.32 510.64C575.573 511.173 577.013 511.44 578.64 511.44C580.293 511.44 581.733 511.173 582.96 510.64C584.213 510.08 585.267 509.32 586.12 508.36C586.973 507.373 587.613 506.227 588.04 504.92C588.467 503.613 588.68 502.2 588.68 500.68C588.68 499.16 588.467 497.747 588.04 496.44C587.613 495.107 586.973 493.96 586.12 493C585.267 492.013 584.213 491.24 582.96 490.68C581.733 490.12 580.293 489.84 578.64 489.84C577.013 489.84 575.573 490.12 574.32 490.68C573.067 491.24 572.013 492.013 571.16 493C570.307 493.96 569.667 495.107 569.24 496.44C568.813 497.747 568.6 499.16 568.6 500.68ZM613.169 511L619.769 490.32H616.249L611.609 507.24H611.529L607.209 490.32H603.489L599.329 507.24H599.249L594.569 490.32H590.809L597.449 511H601.129L605.289 494.56H605.369L609.569 511H613.169ZM623.001 490.32V511H626.401V499.32C626.401 498.387 626.521 497.533 626.761 496.76C627.028 495.96 627.415 495.267 627.921 494.68C628.428 494.093 629.055 493.64 629.801 493.32C630.575 493 631.481 492.84 632.521 492.84C633.828 492.84 634.855 493.213 635.601 493.96C636.348 494.707 636.721 495.72 636.721 497V511H640.121V497.4C640.121 496.28 640.001 495.267 639.761 494.36C639.548 493.427 639.161 492.627 638.601 491.96C638.041 491.293 637.308 490.773 636.401 490.4C635.495 490.027 634.361 489.84 633.001 489.84C629.935 489.84 627.695 491.093 626.281 493.6H626.201V490.32H623.001ZM645.628 506.56V511H650.068V506.56H645.628ZM649.748 491.24V482.44H645.948V491.24L646.948 503.68H648.748L649.748 491.24ZM693.072 511L700.712 482.44H696.912L691.112 506.2H691.032L684.712 482.44H680.592L674.192 506.2H674.112L668.512 482.44H664.632L671.952 511H675.912L682.512 487H682.592L689.112 511H693.072ZM715.838 498.68H703.958C704.011 497.88 704.185 497.133 704.478 496.44C704.771 495.72 705.171 495.093 705.678 494.56C706.185 494.027 706.785 493.613 707.478 493.32C708.198 493 708.998 492.84 709.878 492.84C710.731 492.84 711.505 493 712.198 493.32C712.918 493.613 713.531 494.027 714.038 494.56C714.571 495.067 714.985 495.68 715.278 496.4C715.598 497.12 715.785 497.88 715.838 498.68ZM719.118 504.44H715.758C715.465 505.8 714.851 506.813 713.918 507.48C713.011 508.147 711.838 508.48 710.398 508.48C709.278 508.48 708.305 508.293 707.478 507.92C706.651 507.547 705.971 507.053 705.438 506.44C704.905 505.8 704.518 505.08 704.278 504.28C704.038 503.453 703.931 502.587 703.958 501.68H719.438C719.491 500.427 719.371 499.107 719.078 497.72C718.811 496.333 718.305 495.053 717.558 493.88C716.838 492.707 715.865 491.747 714.638 491C713.438 490.227 711.918 489.84 710.078 489.84C708.665 489.84 707.358 490.107 706.158 490.64C704.985 491.173 703.958 491.92 703.078 492.88C702.225 493.84 701.558 494.973 701.078 496.28C700.598 497.587 700.358 499.027 700.358 500.6C700.411 502.173 700.638 503.627 701.038 504.96C701.465 506.293 702.091 507.44 702.918 508.4C703.745 509.36 704.758 510.107 705.958 510.64C707.185 511.173 708.625 511.44 710.278 511.44C712.625 511.44 714.571 510.853 716.118 509.68C717.665 508.507 718.665 506.76 719.118 504.44ZM752.415 510.92C751.828 511.267 751.015 511.44 749.975 511.44C749.095 511.44 748.388 511.2 747.855 510.72C747.348 510.213 747.095 509.4 747.095 508.28C746.162 509.4 745.068 510.213 743.815 510.72C742.588 511.2 741.255 511.44 739.815 511.44C738.882 511.44 737.988 511.333 737.135 511.12C736.308 510.907 735.588 510.573 734.975 510.12C734.362 509.667 733.868 509.08 733.495 508.36C733.148 507.613 732.975 506.72 732.975 505.68C732.975 504.507 733.175 503.547 733.575 502.8C733.975 502.053 734.495 501.453 735.135 501C735.802 500.52 736.548 500.16 737.375 499.92C738.228 499.68 739.095 499.48 739.975 499.32C740.908 499.133 741.788 499 742.615 498.92C743.468 498.813 744.215 498.68 744.855 498.52C745.495 498.333 746.002 498.08 746.375 497.76C746.748 497.413 746.935 496.92 746.935 496.28C746.935 495.533 746.788 494.933 746.495 494.48C746.228 494.027 745.868 493.68 745.415 493.44C744.988 493.2 744.495 493.04 743.935 492.96C743.402 492.88 742.868 492.84 742.335 492.84C740.895 492.84 739.695 493.12 738.735 493.68C737.775 494.213 737.255 495.24 737.175 496.76H733.775C733.828 495.48 734.095 494.4 734.575 493.52C735.055 492.64 735.695 491.933 736.495 491.4C737.295 490.84 738.202 490.44 739.215 490.2C740.255 489.96 741.362 489.84 742.535 489.84C743.468 489.84 744.388 489.907 745.295 490.04C746.228 490.173 747.068 490.453 747.815 490.88C748.562 491.28 749.162 491.853 749.615 492.6C750.068 493.347 750.295 494.32 750.295 495.52V506.16C750.295 506.96 750.335 507.547 750.415 507.92C750.522 508.293 750.842 508.48 751.375 508.48C751.668 508.48 752.015 508.413 752.415 508.28V510.92ZM746.895 500.32C746.468 500.64 745.908 500.88 745.215 501.04C744.522 501.173 743.788 501.293 743.015 501.4C742.268 501.48 741.508 501.587 740.735 501.72C739.962 501.827 739.268 502.013 738.655 502.28C738.042 502.547 737.535 502.933 737.135 503.44C736.762 503.92 736.575 504.587 736.575 505.44C736.575 506 736.682 506.48 736.895 506.88C737.135 507.253 737.428 507.56 737.775 507.8C738.148 508.04 738.575 508.213 739.055 508.32C739.535 508.427 740.042 508.48 740.575 508.48C741.695 508.48 742.655 508.333 743.455 508.04C744.255 507.72 744.908 507.333 745.415 506.88C745.922 506.4 746.295 505.893 746.535 505.36C746.775 504.8 746.895 504.28 746.895 503.8V500.32ZM755.46 490.32V511H758.86V501.8C758.86 500.467 758.993 499.293 759.26 498.28C759.526 497.24 759.953 496.36 760.54 495.64C761.126 494.92 761.9 494.373 762.86 494C763.82 493.627 764.98 493.44 766.34 493.44V489.84C764.5 489.787 762.98 490.16 761.78 490.96C760.58 491.76 759.566 493 758.74 494.68H758.66V490.32H755.46ZM782.557 498.68H770.677C770.73 497.88 770.903 497.133 771.197 496.44C771.49 495.72 771.89 495.093 772.397 494.56C772.903 494.027 773.503 493.613 774.197 493.32C774.917 493 775.717 492.84 776.597 492.84C777.45 492.84 778.223 493 778.917 493.32C779.637 493.613 780.25 494.027 780.757 494.56C781.29 495.067 781.703 495.68 781.997 496.4C782.317 497.12 782.503 497.88 782.557 498.68ZM785.837 504.44H782.477C782.183 505.8 781.57 506.813 780.637 507.48C779.73 508.147 778.557 508.48 777.117 508.48C775.997 508.48 775.023 508.293 774.197 507.92C773.37 507.547 772.69 507.053 772.157 506.44C771.623 505.8 771.237 505.08 770.997 504.28C770.757 503.453 770.65 502.587 770.677 501.68H786.157C786.21 500.427 786.09 499.107 785.797 497.72C785.53 496.333 785.023 495.053 784.277 493.88C783.557 492.707 782.583 491.747 781.357 491C780.157 490.227 778.637 489.84 776.797 489.84C775.383 489.84 774.077 490.107 772.877 490.64C771.703 491.173 770.677 491.92 769.797 492.88C768.943 493.84 768.277 494.973 767.797 496.28C767.317 497.587 767.077 499.027 767.077 500.6C767.13 502.173 767.357 503.627 767.757 504.96C768.183 506.293 768.81 507.44 769.637 508.4C770.463 509.36 771.477 510.107 772.677 510.64C773.903 511.173 775.343 511.44 776.997 511.44C779.343 511.44 781.29 510.853 782.837 509.68C784.383 508.507 785.383 506.76 785.837 504.44ZM814.854 496.96H818.374C818.241 495.733 817.921 494.68 817.414 493.8C816.907 492.893 816.254 492.147 815.454 491.56C814.681 490.973 813.774 490.547 812.734 490.28C811.721 489.987 810.627 489.84 809.454 489.84C807.827 489.84 806.401 490.133 805.174 490.72C803.947 491.28 802.921 492.067 802.094 493.08C801.294 494.067 800.694 495.24 800.294 496.6C799.894 497.933 799.694 499.373 799.694 500.92C799.694 502.467 799.894 503.893 800.294 505.2C800.721 506.48 801.334 507.587 802.134 508.52C802.961 509.453 803.974 510.173 805.174 510.68C806.401 511.187 807.801 511.44 809.374 511.44C812.014 511.44 814.094 510.747 815.614 509.36C817.161 507.973 818.121 506 818.494 503.44H815.014C814.801 505.04 814.214 506.28 813.254 507.16C812.321 508.04 811.014 508.48 809.334 508.48C808.267 508.48 807.347 508.267 806.574 507.84C805.801 507.413 805.174 506.853 804.694 506.16C804.214 505.44 803.854 504.627 803.614 503.72C803.401 502.813 803.294 501.88 803.294 500.92C803.294 499.88 803.401 498.88 803.614 497.92C803.827 496.933 804.174 496.067 804.654 495.32C805.161 494.573 805.827 493.973 806.654 493.52C807.481 493.067 808.507 492.84 809.734 492.84C811.174 492.84 812.321 493.2 813.174 493.92C814.027 494.64 814.587 495.653 814.854 496.96ZM822.298 482.44V511H825.698V499.32C825.698 498.387 825.818 497.533 826.058 496.76C826.325 495.96 826.712 495.267 827.218 494.68C827.725 494.093 828.352 493.64 829.098 493.32C829.872 493 830.778 492.84 831.818 492.84C833.125 492.84 834.152 493.213 834.898 493.96C835.645 494.707 836.018 495.72 836.018 497V511H839.418V497.4C839.418 496.28 839.298 495.267 839.058 494.36C838.845 493.427 838.458 492.627 837.898 491.96C837.338 491.293 836.605 490.773 835.698 490.4C834.792 490.027 833.658 489.84 832.298 489.84C831.685 489.84 831.045 489.907 830.378 490.04C829.738 490.173 829.112 490.387 828.498 490.68C827.912 490.947 827.378 491.307 826.898 491.76C826.418 492.187 826.045 492.72 825.778 493.36H825.698V482.44H822.298ZM858.885 498.68H847.005C847.058 497.88 847.232 497.133 847.525 496.44C847.818 495.72 848.218 495.093 848.725 494.56C849.232 494.027 849.832 493.613 850.525 493.32C851.245 493 852.045 492.84 852.925 492.84C853.778 492.84 854.552 493 855.245 493.32C855.965 493.613 856.578 494.027 857.085 494.56C857.618 495.067 858.032 495.68 858.325 496.4C858.645 497.12 858.832 497.88 858.885 498.68ZM862.165 504.44H858.805C858.512 505.8 857.898 506.813 856.965 507.48C856.058 508.147 854.885 508.48 853.445 508.48C852.325 508.48 851.352 508.293 850.525 507.92C849.698 507.547 849.018 507.053 848.485 506.44C847.952 505.8 847.565 505.08 847.325 504.28C847.085 503.453 846.978 502.587 847.005 501.68H862.485C862.538 500.427 862.418 499.107 862.125 497.72C861.858 496.333 861.352 495.053 860.605 493.88C859.885 492.707 858.912 491.747 857.685 491C856.485 490.227 854.965 489.84 853.125 489.84C851.712 489.84 850.405 490.107 849.205 490.64C848.032 491.173 847.005 491.92 846.125 492.88C845.272 493.84 844.605 494.973 844.125 496.28C843.645 497.587 843.405 499.027 843.405 500.6C843.458 502.173 843.685 503.627 844.085 504.96C844.512 506.293 845.138 507.44 845.965 508.4C846.792 509.36 847.805 510.107 849.005 510.64C850.232 511.173 851.672 511.44 853.325 511.44C855.672 511.44 857.618 510.853 859.165 509.68C860.712 508.507 861.712 506.76 862.165 504.44ZM880.369 498.68H868.489C868.543 497.88 868.716 497.133 869.009 496.44C869.303 495.72 869.703 495.093 870.209 494.56C870.716 494.027 871.316 493.613 872.009 493.32C872.729 493 873.529 492.84 874.409 492.84C875.263 492.84 876.036 493 876.729 493.32C877.449 493.613 878.063 494.027 878.569 494.56C879.103 495.067 879.516 495.68 879.809 496.4C880.129 497.12 880.316 497.88 880.369 498.68ZM883.649 504.44H880.289C879.996 505.8 879.383 506.813 878.449 507.48C877.543 508.147 876.369 508.48 874.929 508.48C873.809 508.48 872.836 508.293 872.009 507.92C871.183 507.547 870.503 507.053 869.969 506.44C869.436 505.8 869.049 505.08 868.809 504.28C868.569 503.453 868.463 502.587 868.489 501.68H883.969C884.023 500.427 883.903 499.107 883.609 497.72C883.343 496.333 882.836 495.053 882.089 493.88C881.369 492.707 880.396 491.747 879.169 491C877.969 490.227 876.449 489.84 874.609 489.84C873.196 489.84 871.889 490.107 870.689 490.64C869.516 491.173 868.489 491.92 867.609 492.88C866.756 493.84 866.089 494.973 865.609 496.28C865.129 497.587 864.889 499.027 864.889 500.6C864.943 502.173 865.169 503.627 865.569 504.96C865.996 506.293 866.623 507.44 867.449 508.4C868.276 509.36 869.289 510.107 870.489 510.64C871.716 511.173 873.156 511.44 874.809 511.44C877.156 511.44 879.103 510.853 880.649 509.68C882.196 508.507 883.196 506.76 883.649 504.44ZM887.374 490.32V511H890.774V501.8C890.774 500.467 890.907 499.293 891.174 498.28C891.44 497.24 891.867 496.36 892.454 495.64C893.04 494.92 893.814 494.373 894.774 494C895.734 493.627 896.894 493.44 898.254 493.44V489.84C896.414 489.787 894.894 490.16 893.694 490.96C892.494 491.76 891.48 493 890.654 494.68H890.574V490.32H887.374ZM904.414 486.6V482.44H901.014V486.6H904.414ZM901.014 490.32V511H904.414V490.32H901.014ZM909.681 490.32V511H913.081V499.32C913.081 498.387 913.201 497.533 913.441 496.76C913.708 495.96 914.094 495.267 914.601 494.68C915.108 494.093 915.734 493.64 916.481 493.32C917.254 493 918.161 492.84 919.201 492.84C920.508 492.84 921.534 493.213 922.281 493.96C923.028 494.707 923.401 495.72 923.401 497V511H926.801V497.4C926.801 496.28 926.681 495.267 926.441 494.36C926.228 493.427 925.841 492.627 925.281 491.96C924.721 491.293 923.988 490.773 923.081 490.4C922.174 490.027 921.041 489.84 919.681 489.84C916.614 489.84 914.374 491.093 912.961 493.6H912.881V490.32H909.681ZM949.748 509.24V490.32H946.548V493.28H946.508C945.894 492.133 945.041 491.28 943.948 490.72C942.854 490.133 941.654 489.84 940.348 489.84C938.561 489.84 937.054 490.187 935.828 490.88C934.601 491.547 933.614 492.413 932.868 493.48C932.121 494.52 931.588 495.693 931.268 497C930.948 498.28 930.788 499.533 930.788 500.76C930.788 502.173 930.974 503.52 931.348 504.8C931.748 506.053 932.334 507.16 933.108 508.12C933.881 509.053 934.841 509.8 935.988 510.36C937.134 510.92 938.481 511.2 940.028 511.2C941.361 511.2 942.614 510.907 943.788 510.32C944.988 509.707 945.881 508.76 946.468 507.48H946.548V508.84C946.548 509.987 946.428 511.04 946.188 512C945.974 512.96 945.614 513.773 945.108 514.44C944.601 515.133 943.961 515.667 943.188 516.04C942.414 516.44 941.468 516.64 940.348 516.64C939.788 516.64 939.201 516.573 938.588 516.44C937.974 516.333 937.401 516.147 936.868 515.88C936.361 515.613 935.921 515.267 935.548 514.84C935.201 514.413 935.014 513.893 934.988 513.28H931.588C931.641 514.4 931.934 515.347 932.468 516.12C933.001 516.893 933.668 517.52 934.468 518C935.294 518.48 936.201 518.827 937.188 519.04C938.201 519.253 939.188 519.36 940.148 519.36C943.454 519.36 945.881 518.52 947.428 516.84C948.974 515.16 949.748 512.627 949.748 509.24ZM940.228 508.24C939.108 508.24 938.174 508.013 937.428 507.56C936.681 507.08 936.081 506.467 935.628 505.72C935.174 504.947 934.854 504.093 934.668 503.16C934.481 502.227 934.388 501.293 934.388 500.36C934.388 499.373 934.494 498.427 934.708 497.52C934.948 496.613 935.308 495.813 935.788 495.12C936.294 494.427 936.934 493.88 937.708 493.48C938.481 493.053 939.414 492.84 940.508 492.84C941.574 492.84 942.481 493.053 943.228 493.48C943.974 493.907 944.574 494.48 945.028 495.2C945.508 495.893 945.854 496.68 946.068 497.56C946.281 498.44 946.388 499.333 946.388 500.24C946.388 501.2 946.268 502.16 946.028 503.12C945.814 504.08 945.468 504.947 944.988 505.72C944.508 506.467 943.868 507.08 943.068 507.56C942.294 508.013 941.348 508.24 940.228 508.24ZM970.729 490.32V484.12H967.329V490.32H963.809V493.32H967.329V506.48C967.329 507.44 967.423 508.213 967.609 508.8C967.796 509.387 968.076 509.84 968.449 510.16C968.849 510.48 969.356 510.707 969.969 510.84C970.609 510.947 971.369 511 972.249 511H974.849V508H973.289C972.756 508 972.316 507.987 971.969 507.96C971.649 507.907 971.396 507.813 971.209 507.68C971.023 507.547 970.889 507.36 970.809 507.12C970.756 506.88 970.729 506.56 970.729 506.16V493.32H974.849V490.32H970.729ZM978.626 482.44V511H982.026V499.32C982.026 498.387 982.146 497.533 982.386 496.76C982.653 495.96 983.04 495.267 983.546 494.68C984.053 494.093 984.68 493.64 985.426 493.32C986.2 493 987.106 492.84 988.146 492.84C989.453 492.84 990.48 493.213 991.226 493.96C991.973 494.707 992.346 495.72 992.346 497V511H995.746V497.4C995.746 496.28 995.626 495.267 995.386 494.36C995.173 493.427 994.786 492.627 994.226 491.96C993.666 491.293 992.933 490.773 992.026 490.4C991.12 490.027 989.986 489.84 988.626 489.84C988.013 489.84 987.373 489.907 986.706 490.04C986.066 490.173 985.44 490.387 984.826 490.68C984.24 490.947 983.706 491.307 983.226 491.76C982.746 492.187 982.373 492.72 982.106 493.36H982.026V482.44H978.626ZM1015.21 498.68H1003.33C1003.39 497.88 1003.56 497.133 1003.85 496.44C1004.15 495.72 1004.55 495.093 1005.05 494.56C1005.56 494.027 1006.16 493.613 1006.85 493.32C1007.57 493 1008.37 492.84 1009.25 492.84C1010.11 492.84 1010.88 493 1011.57 493.32C1012.29 493.613 1012.91 494.027 1013.41 494.56C1013.95 495.067 1014.36 495.68 1014.65 496.4C1014.97 497.12 1015.16 497.88 1015.21 498.68ZM1018.49 504.44H1015.13C1014.84 505.8 1014.23 506.813 1013.29 507.48C1012.39 508.147 1011.21 508.48 1009.77 508.48C1008.65 508.48 1007.68 508.293 1006.85 507.92C1006.03 507.547 1005.35 507.053 1004.81 506.44C1004.28 505.8 1003.89 505.08 1003.65 504.28C1003.41 503.453 1003.31 502.587 1003.33 501.68H1018.81C1018.87 500.427 1018.75 499.107 1018.45 497.72C1018.19 496.333 1017.68 495.053 1016.93 493.88C1016.21 492.707 1015.24 491.747 1014.01 491C1012.81 490.227 1011.29 489.84 1009.45 489.84C1008.04 489.84 1006.73 490.107 1005.53 490.64C1004.36 491.173 1003.33 491.92 1002.45 492.88C1001.6 493.84 1000.93 494.973 1000.45 496.28C999.973 497.587 999.733 499.027 999.733 500.6C999.786 502.173 1000.01 503.627 1000.41 504.96C1000.84 506.293 1001.47 507.44 1002.29 508.4C1003.12 509.36 1004.13 510.107 1005.33 510.64C1006.56 511.173 1008 511.44 1009.65 511.44C1012 511.44 1013.95 510.853 1015.49 509.68C1017.04 508.507 1018.04 506.76 1018.49 504.44ZM1022.34 490.32V511H1025.74V498.12C1025.74 497.72 1025.83 497.227 1026.02 496.64C1026.23 496.027 1026.55 495.44 1026.98 494.88C1027.43 494.32 1028 493.84 1028.7 493.44C1029.42 493.04 1030.27 492.84 1031.26 492.84C1032.03 492.84 1032.66 492.96 1033.14 493.2C1033.64 493.413 1034.04 493.733 1034.34 494.16C1034.63 494.56 1034.83 495.04 1034.94 495.6C1035.07 496.16 1035.14 496.773 1035.14 497.44V511H1038.54V498.12C1038.54 496.52 1039.02 495.24 1039.98 494.28C1040.94 493.32 1042.26 492.84 1043.94 492.84C1044.76 492.84 1045.43 492.96 1045.94 493.2C1046.47 493.44 1046.88 493.773 1047.18 494.2C1047.47 494.6 1047.67 495.08 1047.78 495.64C1047.88 496.2 1047.94 496.8 1047.94 497.44V511H1051.34V495.84C1051.34 494.773 1051.16 493.867 1050.82 493.12C1050.5 492.347 1050.03 491.72 1049.42 491.24C1048.83 490.76 1048.11 490.413 1047.26 490.2C1046.43 489.96 1045.5 489.84 1044.46 489.84C1043.1 489.84 1041.84 490.147 1040.7 490.76C1039.58 491.373 1038.67 492.24 1037.98 493.36C1037.55 492.08 1036.82 491.173 1035.78 490.64C1034.74 490.107 1033.58 489.84 1032.3 489.84C1029.39 489.84 1027.16 491.013 1025.62 493.36H1025.54V490.32H1022.34ZM1084.69 511V490.32H1081.29V502C1081.29 502.933 1081.16 503.8 1080.89 504.6C1080.65 505.373 1080.28 506.053 1079.77 506.64C1079.27 507.227 1078.63 507.68 1077.85 508C1077.11 508.32 1076.21 508.48 1075.17 508.48C1073.87 508.48 1072.84 508.107 1072.09 507.36C1071.35 506.613 1070.97 505.6 1070.97 504.32V490.32H1067.57V503.92C1067.57 505.04 1067.68 506.067 1067.89 507C1068.13 507.907 1068.53 508.693 1069.09 509.36C1069.65 510.027 1070.39 510.547 1071.29 510.92C1072.2 511.267 1073.33 511.44 1074.69 511.44C1076.21 511.44 1077.53 511.147 1078.65 510.56C1079.77 509.947 1080.69 509 1081.41 507.72H1081.49V511H1084.69ZM1089.92 490.32V518.88H1093.32V508.24H1093.4C1093.77 508.853 1094.22 509.373 1094.76 509.8C1095.32 510.2 1095.9 510.52 1096.52 510.76C1097.13 511 1097.74 511.173 1098.36 511.28C1099 511.387 1099.57 511.44 1100.08 511.44C1101.65 511.44 1103.02 511.16 1104.2 510.6C1105.4 510.04 1106.38 509.28 1107.16 508.32C1107.96 507.333 1108.54 506.187 1108.92 504.88C1109.32 503.573 1109.52 502.187 1109.52 500.72C1109.52 499.253 1109.32 497.867 1108.92 496.56C1108.52 495.253 1107.92 494.107 1107.12 493.12C1106.34 492.107 1105.36 491.307 1104.16 490.72C1102.98 490.133 1101.6 489.84 1100 489.84C1098.56 489.84 1097.24 490.107 1096.04 490.64C1094.84 491.147 1093.96 491.973 1093.4 493.12H1093.32V490.32H1089.92ZM1105.92 500.48C1105.92 501.493 1105.81 502.48 1105.6 503.44C1105.38 504.4 1105.04 505.253 1104.56 506C1104.08 506.747 1103.44 507.347 1102.64 507.8C1101.86 508.253 1100.89 508.48 1099.72 508.48C1098.54 508.48 1097.54 508.267 1096.72 507.84C1095.89 507.387 1095.21 506.8 1094.68 506.08C1094.17 505.36 1093.8 504.533 1093.56 503.6C1093.32 502.64 1093.2 501.653 1093.2 500.64C1093.2 499.68 1093.3 498.733 1093.52 497.8C1093.76 496.867 1094.13 496.04 1094.64 495.32C1095.14 494.573 1095.8 493.973 1096.6 493.52C1097.4 493.067 1098.37 492.84 1099.52 492.84C1100.61 492.84 1101.56 493.053 1102.36 493.48C1103.18 493.907 1103.85 494.48 1104.36 495.2C1104.89 495.92 1105.28 496.747 1105.52 497.68C1105.78 498.587 1105.92 499.52 1105.92 500.48Z" fill="black"/>
<path d="M1091.88 32.15V50H1094.26V41.825H1103.66V50H1106.03V32.15H1103.66V39.825H1094.26V32.15H1091.88ZM1111.12 43.55C1111.12 42.7667 1111.22 42.075 1111.42 41.475C1111.64 40.8583 1111.93 40.3417 1112.3 39.925C1112.66 39.5083 1113.09 39.1917 1113.57 38.975C1114.07 38.7583 1114.6 38.65 1115.15 38.65C1115.7 38.65 1116.21 38.7583 1116.7 38.975C1117.2 39.1917 1117.63 39.5083 1118 39.925C1118.36 40.3417 1118.65 40.8583 1118.85 41.475C1119.06 42.075 1119.17 42.7667 1119.17 43.55C1119.17 44.3333 1119.06 45.0333 1118.85 45.65C1118.65 46.25 1118.36 46.7583 1118 47.175C1117.63 47.575 1117.2 47.8833 1116.7 48.1C1116.21 48.3167 1115.7 48.425 1115.15 48.425C1114.6 48.425 1114.07 48.3167 1113.57 48.1C1113.09 47.8833 1112.66 47.575 1112.3 47.175C1111.93 46.7583 1111.64 46.25 1111.42 45.65C1111.22 45.0333 1111.12 44.3333 1111.12 43.55ZM1108.87 43.55C1108.87 44.5 1109.01 45.3833 1109.27 46.2C1109.54 47.0167 1109.94 47.7333 1110.47 48.35C1111.01 48.95 1111.66 49.425 1112.45 49.775C1113.23 50.1083 1114.13 50.275 1115.15 50.275C1116.18 50.275 1117.08 50.1083 1117.85 49.775C1118.63 49.425 1119.29 48.95 1119.82 48.35C1120.36 47.7333 1120.76 47.0167 1121.02 46.2C1121.29 45.3833 1121.42 44.5 1121.42 43.55C1121.42 42.6 1121.29 41.7167 1121.02 40.9C1120.76 40.0667 1120.36 39.35 1119.82 38.75C1119.29 38.1333 1118.63 37.65 1117.85 37.3C1117.08 36.95 1116.18 36.775 1115.15 36.775C1114.13 36.775 1113.23 36.95 1112.45 37.3C1111.66 37.65 1111.01 38.1333 1110.47 38.75C1109.94 39.35 1109.54 40.0667 1109.27 40.9C1109.01 41.7167 1108.87 42.6 1108.87 43.55ZM1123.93 37.075V50H1126.05V41.95C1126.05 41.7 1126.11 41.3917 1126.23 41.025C1126.36 40.6417 1126.56 40.275 1126.83 39.925C1127.11 39.575 1127.47 39.275 1127.9 39.025C1128.35 38.775 1128.89 38.65 1129.5 38.65C1129.99 38.65 1130.38 38.725 1130.68 38.875C1130.99 39.0083 1131.24 39.2083 1131.43 39.475C1131.61 39.725 1131.74 40.025 1131.8 40.375C1131.89 40.725 1131.93 41.1083 1131.93 41.525V50H1134.05V41.95C1134.05 40.95 1134.35 40.15 1134.95 39.55C1135.55 38.95 1136.38 38.65 1137.43 38.65C1137.94 38.65 1138.36 38.725 1138.68 38.875C1139.01 39.025 1139.27 39.2333 1139.45 39.5C1139.64 39.75 1139.76 40.05 1139.83 40.4C1139.89 40.75 1139.93 41.125 1139.93 41.525V50H1142.05V40.525C1142.05 39.8583 1141.94 39.2917 1141.73 38.825C1141.53 38.3417 1141.24 37.95 1140.85 37.65C1140.49 37.35 1140.04 37.1333 1139.5 37C1138.99 36.85 1138.4 36.775 1137.75 36.775C1136.9 36.775 1136.12 36.9667 1135.4 37.35C1134.7 37.7333 1134.14 38.275 1133.7 38.975C1133.44 38.175 1132.98 37.6083 1132.33 37.275C1131.68 36.9417 1130.95 36.775 1130.15 36.775C1128.34 36.775 1126.94 37.5083 1125.98 38.975H1125.93V37.075H1123.93ZM1154.22 42.3H1146.79C1146.82 41.8 1146.93 41.3333 1147.12 40.9C1147.3 40.45 1147.55 40.0583 1147.87 39.725C1148.18 39.3917 1148.56 39.1333 1148.99 38.95C1149.44 38.75 1149.94 38.65 1150.49 38.65C1151.02 38.65 1151.51 38.75 1151.94 38.95C1152.39 39.1333 1152.77 39.3917 1153.09 39.725C1153.42 40.0417 1153.68 40.425 1153.87 40.875C1154.07 41.325 1154.18 41.8 1154.22 42.3ZM1156.27 45.9H1154.17C1153.98 46.75 1153.6 47.3833 1153.02 47.8C1152.45 48.2167 1151.72 48.425 1150.82 48.425C1150.12 48.425 1149.51 48.3083 1148.99 48.075C1148.47 47.8417 1148.05 47.5333 1147.72 47.15C1147.38 46.75 1147.14 46.3 1146.99 45.8C1146.84 45.2833 1146.77 44.7417 1146.79 44.175H1156.47C1156.5 43.3917 1156.42 42.5667 1156.24 41.7C1156.07 40.8333 1155.76 40.0333 1155.29 39.3C1154.84 38.5667 1154.23 37.9667 1153.47 37.5C1152.72 37.0167 1151.77 36.775 1150.62 36.775C1149.73 36.775 1148.92 36.9417 1148.17 37.275C1147.43 37.6083 1146.79 38.075 1146.24 38.675C1145.71 39.275 1145.29 39.9833 1144.99 40.8C1144.69 41.6167 1144.54 42.5167 1144.54 43.5C1144.57 44.4833 1144.72 45.3917 1144.97 46.225C1145.23 47.0583 1145.62 47.775 1146.14 48.375C1146.66 48.975 1147.29 49.4417 1148.04 49.775C1148.81 50.1083 1149.71 50.275 1150.74 50.275C1152.21 50.275 1153.42 49.9083 1154.39 49.175C1155.36 48.4417 1155.98 47.35 1156.27 45.9Z" fill="black"/>
<rect x="1195" y="18" width="190" height="45" rx="22.5" fill="url(#paint0_linear)"/>
<path d="M1240.79 37.525H1243.17C1243.03 36.575 1242.75 35.7417 1242.32 35.025C1241.88 34.2917 1241.34 33.6833 1240.69 33.2C1240.04 32.7167 1239.3 32.35 1238.47 32.1C1237.63 31.85 1236.75 31.725 1235.82 31.725C1234.45 31.725 1233.23 31.975 1232.17 32.475C1231.12 32.9583 1230.23 33.625 1229.52 34.475C1228.82 35.325 1228.28 36.325 1227.92 37.475C1227.55 38.6083 1227.37 39.825 1227.37 41.125C1227.37 42.425 1227.53 43.6417 1227.87 44.775C1228.22 45.9083 1228.73 46.8917 1229.42 47.725C1230.1 48.5583 1230.96 49.2167 1231.99 49.7C1233.03 50.1667 1234.23 50.4 1235.62 50.4C1237.9 50.4 1239.7 49.775 1241.02 48.525C1242.33 47.275 1243.11 45.525 1243.34 43.275H1240.97C1240.92 44.0083 1240.77 44.6917 1240.52 45.325C1240.27 45.9583 1239.92 46.5083 1239.47 46.975C1239.03 47.425 1238.51 47.7833 1237.89 48.05C1237.29 48.3 1236.6 48.425 1235.82 48.425C1234.75 48.425 1233.83 48.225 1233.07 47.825C1232.3 47.425 1231.67 46.8917 1231.17 46.225C1230.68 45.5417 1230.33 44.75 1230.09 43.85C1229.86 42.9333 1229.74 41.9667 1229.74 40.95C1229.74 40.0167 1229.86 39.1167 1230.09 38.25C1230.33 37.3833 1230.68 36.6167 1231.17 35.95C1231.67 35.2667 1232.29 34.725 1233.04 34.325C1233.81 33.925 1234.73 33.725 1235.79 33.725C1237.04 33.725 1238.12 34.0417 1239.02 34.675C1239.93 35.3083 1240.53 36.2583 1240.79 37.525ZM1247.48 43.55C1247.48 42.7667 1247.58 42.075 1247.78 41.475C1248 40.8583 1248.29 40.3417 1248.66 39.925C1249.03 39.5083 1249.45 39.1917 1249.93 38.975C1250.43 38.7583 1250.96 38.65 1251.51 38.65C1252.06 38.65 1252.58 38.7583 1253.06 38.975C1253.56 39.1917 1253.99 39.5083 1254.36 39.925C1254.73 40.3417 1255.01 40.8583 1255.21 41.475C1255.43 42.075 1255.53 42.7667 1255.53 43.55C1255.53 44.3333 1255.43 45.0333 1255.21 45.65C1255.01 46.25 1254.73 46.7583 1254.36 47.175C1253.99 47.575 1253.56 47.8833 1253.06 48.1C1252.58 48.3167 1252.06 48.425 1251.51 48.425C1250.96 48.425 1250.43 48.3167 1249.93 48.1C1249.45 47.8833 1249.03 47.575 1248.66 47.175C1248.29 46.7583 1248 46.25 1247.78 45.65C1247.58 45.0333 1247.48 44.3333 1247.48 43.55ZM1245.23 43.55C1245.23 44.5 1245.37 45.3833 1245.63 46.2C1245.9 47.0167 1246.3 47.7333 1246.83 48.35C1247.37 48.95 1248.03 49.425 1248.81 49.775C1249.59 50.1083 1250.49 50.275 1251.51 50.275C1252.54 50.275 1253.44 50.1083 1254.21 49.775C1254.99 49.425 1255.65 48.95 1256.18 48.35C1256.72 47.7333 1257.12 47.0167 1257.38 46.2C1257.65 45.3833 1257.78 44.5 1257.78 43.55C1257.78 42.6 1257.65 41.7167 1257.38 40.9C1257.12 40.0667 1256.72 39.35 1256.18 38.75C1255.65 38.1333 1254.99 37.65 1254.21 37.3C1253.44 36.95 1252.54 36.775 1251.51 36.775C1250.49 36.775 1249.59 36.95 1248.81 37.3C1248.03 37.65 1247.37 38.1333 1246.83 38.75C1246.3 39.35 1245.9 40.0667 1245.63 40.9C1245.37 41.7167 1245.23 42.6 1245.23 43.55ZM1260.29 37.075V50H1262.41V42.7C1262.41 42.1167 1262.49 41.5833 1262.64 41.1C1262.81 40.6 1263.05 40.1667 1263.36 39.8C1263.68 39.4333 1264.07 39.15 1264.54 38.95C1265.02 38.75 1265.59 38.65 1266.24 38.65C1267.06 38.65 1267.7 38.8833 1268.16 39.35C1268.63 39.8167 1268.86 40.45 1268.86 41.25V50H1270.99V41.5C1270.99 40.8 1270.91 40.1667 1270.76 39.6C1270.63 39.0167 1270.39 38.5167 1270.04 38.1C1269.69 37.6833 1269.23 37.3583 1268.66 37.125C1268.1 36.8917 1267.39 36.775 1266.54 36.775C1264.62 36.775 1263.22 37.5583 1262.34 39.125H1262.29V37.075H1260.29ZM1277.13 37.075V33.2H1275.01V37.075H1272.81V38.95H1275.01V47.175C1275.01 47.775 1275.06 48.2583 1275.18 48.625C1275.3 48.9917 1275.47 49.275 1275.71 49.475C1275.96 49.675 1276.27 49.8167 1276.66 49.9C1277.06 49.9667 1277.53 50 1278.08 50H1279.71V48.125H1278.73C1278.4 48.125 1278.12 48.1167 1277.91 48.1C1277.71 48.0667 1277.55 48.0083 1277.43 47.925C1277.31 47.8417 1277.23 47.725 1277.18 47.575C1277.15 47.425 1277.13 47.225 1277.13 46.975V38.95H1279.71V37.075H1277.13ZM1293.52 49.95C1293.15 50.1667 1292.64 50.275 1291.99 50.275C1291.44 50.275 1291 50.125 1290.67 49.825C1290.35 49.5083 1290.19 49 1290.19 48.3C1289.61 49 1288.93 49.5083 1288.14 49.825C1287.38 50.125 1286.54 50.275 1285.64 50.275C1285.06 50.275 1284.5 50.2083 1283.97 50.075C1283.45 49.9417 1283 49.7333 1282.62 49.45C1282.23 49.1667 1281.93 48.8 1281.69 48.35C1281.48 47.8833 1281.37 47.325 1281.37 46.675C1281.37 45.9417 1281.49 45.3417 1281.74 44.875C1281.99 44.4083 1282.32 44.0333 1282.72 43.75C1283.13 43.45 1283.6 43.225 1284.12 43.075C1284.65 42.925 1285.19 42.8 1285.74 42.7C1286.33 42.5833 1286.88 42.5 1287.39 42.45C1287.93 42.3833 1288.39 42.3 1288.79 42.2C1289.19 42.0833 1289.51 41.925 1289.74 41.725C1289.98 41.5083 1290.09 41.2 1290.09 40.8C1290.09 40.3333 1290 39.9583 1289.82 39.675C1289.65 39.3917 1289.43 39.175 1289.14 39.025C1288.88 38.875 1288.57 38.775 1288.22 38.725C1287.88 38.675 1287.55 38.65 1287.22 38.65C1286.32 38.65 1285.57 38.825 1284.97 39.175C1284.37 39.5083 1284.04 40.15 1283.99 41.1H1281.87C1281.9 40.3 1282.07 39.625 1282.37 39.075C1282.67 38.525 1283.07 38.0833 1283.57 37.75C1284.07 37.4 1284.63 37.15 1285.27 37C1285.92 36.85 1286.61 36.775 1287.34 36.775C1287.93 36.775 1288.5 36.8167 1289.07 36.9C1289.65 36.9833 1290.18 37.1583 1290.64 37.425C1291.11 37.675 1291.48 38.0333 1291.77 38.5C1292.05 38.9667 1292.19 39.575 1292.19 40.325V46.975C1292.19 47.475 1292.22 47.8417 1292.27 48.075C1292.33 48.3083 1292.53 48.425 1292.87 48.425C1293.05 48.425 1293.27 48.3833 1293.52 48.3V49.95ZM1290.07 43.325C1289.8 43.525 1289.45 43.675 1289.02 43.775C1288.58 43.8583 1288.13 43.9333 1287.64 44C1287.18 44.05 1286.7 44.1167 1286.22 44.2C1285.73 44.2667 1285.3 44.3833 1284.92 44.55C1284.53 44.7167 1284.22 44.9583 1283.97 45.275C1283.73 45.575 1283.62 45.9917 1283.62 46.525C1283.62 46.875 1283.68 47.175 1283.82 47.425C1283.97 47.6583 1284.15 47.85 1284.37 48C1284.6 48.15 1284.87 48.2583 1285.17 48.325C1285.47 48.3917 1285.78 48.425 1286.12 48.425C1286.82 48.425 1287.42 48.3333 1287.92 48.15C1288.42 47.95 1288.83 47.7083 1289.14 47.425C1289.46 47.125 1289.69 46.8083 1289.84 46.475C1289.99 46.125 1290.07 45.8 1290.07 45.5V43.325ZM1304.27 41.225H1306.47C1306.39 40.4583 1306.19 39.8 1305.87 39.25C1305.55 38.6833 1305.14 38.2167 1304.64 37.85C1304.16 37.4833 1303.59 37.2167 1302.94 37.05C1302.31 36.8667 1301.63 36.775 1300.89 36.775C1299.88 36.775 1298.99 36.9583 1298.22 37.325C1297.45 37.675 1296.81 38.1667 1296.29 38.8C1295.79 39.4167 1295.42 40.15 1295.17 41C1294.92 41.8333 1294.79 42.7333 1294.79 43.7C1294.79 44.6667 1294.92 45.5583 1295.17 46.375C1295.44 47.175 1295.82 47.8667 1296.32 48.45C1296.84 49.0333 1297.47 49.4833 1298.22 49.8C1298.99 50.1167 1299.86 50.275 1300.84 50.275C1302.49 50.275 1303.79 49.8417 1304.74 48.975C1305.71 48.1083 1306.31 46.875 1306.54 45.275H1304.37C1304.24 46.275 1303.87 47.05 1303.27 47.6C1302.69 48.15 1301.87 48.425 1300.82 48.425C1300.15 48.425 1299.58 48.2917 1299.09 48.025C1298.61 47.7583 1298.22 47.4083 1297.92 46.975C1297.62 46.525 1297.39 46.0167 1297.24 45.45C1297.11 44.8833 1297.04 44.3 1297.04 43.7C1297.04 43.05 1297.11 42.425 1297.24 41.825C1297.38 41.2083 1297.59 40.6667 1297.89 40.2C1298.21 39.7333 1298.63 39.3583 1299.14 39.075C1299.66 38.7917 1300.3 38.65 1301.07 38.65C1301.97 38.65 1302.69 38.875 1303.22 39.325C1303.75 39.775 1304.1 40.4083 1304.27 41.225ZM1311.87 37.075V33.2H1309.75V37.075H1307.55V38.95H1309.75V47.175C1309.75 47.775 1309.81 48.2583 1309.92 48.625C1310.04 48.9917 1310.21 49.275 1310.45 49.475C1310.7 49.675 1311.01 49.8167 1311.4 49.9C1311.8 49.9667 1312.27 50 1312.82 50H1314.45V48.125H1313.47C1313.14 48.125 1312.86 48.1167 1312.65 48.1C1312.45 48.0667 1312.29 48.0083 1312.17 47.925C1312.06 47.8417 1311.97 47.725 1311.92 47.575C1311.89 47.425 1311.87 47.225 1311.87 46.975V38.95H1314.45V37.075H1311.87ZM1338.37 43.55V32.15H1335.99V43.55C1335.99 45.15 1335.59 46.3667 1334.79 47.2C1334.01 48.0167 1332.86 48.425 1331.34 48.425C1329.74 48.425 1328.52 48.0167 1327.67 47.2C1326.82 46.3667 1326.39 45.15 1326.39 43.55V32.15H1324.02V43.55C1324.02 45.9333 1324.66 47.675 1325.94 48.775C1327.24 49.8583 1329.04 50.4 1331.34 50.4C1333.59 50.4 1335.32 49.8333 1336.54 48.7C1337.76 47.55 1338.37 45.8333 1338.37 43.55ZM1343.11 45.925H1340.98C1341.02 46.725 1341.18 47.4083 1341.48 47.975C1341.78 48.525 1342.18 48.975 1342.68 49.325C1343.18 49.6583 1343.76 49.9 1344.41 50.05C1345.06 50.2 1345.74 50.275 1346.46 50.275C1347.11 50.275 1347.76 50.2083 1348.41 50.075C1349.07 49.9583 1349.67 49.7417 1350.18 49.425C1350.72 49.1083 1351.14 48.6917 1351.46 48.175C1351.79 47.6583 1351.96 47.0083 1351.96 46.225C1351.96 45.6083 1351.83 45.0917 1351.58 44.675C1351.35 44.2583 1351.03 43.9167 1350.63 43.65C1350.25 43.3667 1349.8 43.1417 1349.28 42.975C1348.78 42.8083 1348.27 42.6667 1347.73 42.55C1347.23 42.4333 1346.73 42.325 1346.23 42.225C1345.73 42.1083 1345.28 41.975 1344.88 41.825C1344.48 41.6583 1344.15 41.4583 1343.88 41.225C1343.63 40.975 1343.51 40.6667 1343.51 40.3C1343.51 39.9667 1343.59 39.7 1343.76 39.5C1343.92 39.2833 1344.14 39.1167 1344.41 39C1344.67 38.8667 1344.97 38.775 1345.28 38.725C1345.62 38.675 1345.94 38.65 1346.26 38.65C1346.61 38.65 1346.95 38.6917 1347.28 38.775C1347.63 38.8417 1347.95 38.9583 1348.23 39.125C1348.52 39.2917 1348.75 39.5167 1348.93 39.8C1349.12 40.0667 1349.22 40.4083 1349.26 40.825H1351.38C1351.33 40.0417 1351.17 39.3917 1350.88 38.875C1350.6 38.3417 1350.22 37.925 1349.73 37.625C1349.27 37.3083 1348.72 37.0917 1348.11 36.975C1347.49 36.8417 1346.82 36.775 1346.08 36.775C1345.52 36.775 1344.94 36.85 1344.36 37C1343.79 37.1333 1343.27 37.35 1342.81 37.65C1342.36 37.9333 1341.98 38.3083 1341.68 38.775C1341.4 39.2417 1341.26 39.8 1341.26 40.45C1341.26 41.2833 1341.47 41.9333 1341.88 42.4C1342.3 42.8667 1342.82 43.2333 1343.43 43.5C1344.07 43.75 1344.75 43.95 1345.48 44.1C1346.22 44.2333 1346.89 44.3917 1347.51 44.575C1348.14 44.7417 1348.67 44.9667 1349.08 45.25C1349.5 45.5333 1349.71 45.95 1349.71 46.5C1349.71 46.9 1349.61 47.2333 1349.41 47.5C1349.21 47.75 1348.95 47.9417 1348.63 48.075C1348.33 48.2083 1348 48.3 1347.63 48.35C1347.27 48.4 1346.92 48.425 1346.58 48.425C1346.15 48.425 1345.72 48.3833 1345.31 48.3C1344.91 48.2167 1344.54 48.0833 1344.21 47.9C1343.89 47.7 1343.63 47.4417 1343.43 47.125C1343.23 46.7917 1343.12 46.3917 1343.11 45.925Z" fill="white"/>
</g>
<defs>
<filter id="filter0_d" x="468.661" y="236.08" width="461.892" height="249.575" filterUnits="userSpaceOnUse" color-interpolation-filters="sRGB">
<feFlood flood-opacity="0" result="BackgroundImageFix"/>
<feColorMatrix in="SourceAlpha" type="matrix" values="0 0 0 0 0 0 0 0 0 0 0 0 0 0 0 0 0 0 127 0"/>
<feOffset dy="4"/>
<feGaussianBlur stdDeviation="11.5"/>
<feColorMatrix type="matrix" values="0 0 0 0 0.054902 0 0 0 0 0.196078 0 0 0 0 0.34902 0 0 0 0.5 0"/>
<feBlend mode="normal" in2="BackgroundImageFix" result="effect1_dropShadow"/>
<feBlend mode="normal" in="SourceGraphic" in2="effect1_dropShadow" result="shape"/>
</filter>
<linearGradient id="paint0_linear" x1="1385" y1="40" x2="1195" y2="40" gradientUnits="userSpaceOnUse">
<stop stop-color="#6299F0"/>
<stop offset="1" stop-color="#4E79C8"/>
</linearGradient>
<clipPath id="clip0">
<rect width="1440" height="1024" fill="white"/>
</clipPath>
</defs>
</svg>
