<svg width="1440" height="1024" viewBox="0 0 1440 1024" fill="none" xmlns="http://www.w3.org/2000/svg">
<g clip-path="url(#clip0)">
<rect width="1440" height="1024" fill="white"/>
<path d="M661.989 133.529C781.065 -156.617 1034.46 195.469 1064.41 376.571C1089.99 531.307 1005.67 670.926 856.809 720.303C682.582 778.093 456.581 644.63 400.655 481.919C344.729 319.207 542.912 423.675 661.989 133.529Z" fill="#207FEB" fill-opacity="0.16"/>
<path d="M1321.45 871.481V735.305H1288.31V619.344H1205.46V871.481H1168.42V735.305H1103.11V677.324H1061.68V693.885H1044.14V701.139H1023.43V713.56H1011.73V871.481H998.568V677.324H937.404V871.481H928.386V767.418H849.672V871.481H845.532V598.625H766.818V871.481H745.128V668.522L666.414 620.892V753.954H644.724V724.955H593.316V871.481H489.132V644.707H407.124V871.481H318.546V563.416H236.538V729.095H210.294V689.745H128.286V767.418H101.97V871.481H78.696V677.324H0V1032.98H1440V871.481H1321.45Z" fill="#207FEB" fill-opacity="0.5"/>
<path d="M1398.4 739.301V928.579H1390.64V800.612H1348.09V928.651H1279.51V726.017H1228.45V928.579H1217.65V684.489C1217.66 677.97 1215.19 671.691 1210.73 666.932C1206.28 662.172 1200.18 659.291 1193.67 658.874L1192.12 594.071L1190.57 658.874C1184.07 659.286 1177.96 662.167 1173.51 666.927C1169.05 671.687 1166.58 677.968 1166.6 684.489V928.579H1100.14V746.213H1049.08V928.579H1007.37V785.239H949.086V928.579H916.2V679.215H894.096L892.296 601.217L890.496 679.215H861.156V729.365H824.67L806.67 698.007L788.67 729.401H785.07V699.807H733.662V928.597H723.708V825.813H700.128V794.744H660.798V773.143H618.858V809.018H599.994V630.81H586.422C584.317 625.399 580.73 620.69 576.073 617.223C571.415 613.756 565.876 611.672 560.088 611.208L558 527L555.984 611.046C550.069 611.381 544.375 613.411 539.581 616.893C534.787 620.375 531.096 625.163 528.948 630.684H518.148V928.579H508.194V745.151H459.522V928.579H443.808V745.151H409.374L375.606 686.271L341.82 745.151H308.556V928.579H300.69V834.813H247.23V928.669H235.692V854.344H208.98V928.579H184.86V802.574H144.504V928.579H141.876V845.776H115.2V834.813H88.416V928.669H80.55V787.363H42.75V745.151H15.588L13.41 654.067L11.232 745.151H0V1032.98H1440V739.301H1398.4Z" fill="#3B81D0"/>
<path d="M1359.79 777.031V846.658H1334.07V971.475H1284.41V894.9H1236.37V926.851H1221.03V1003.59H1161.18V883.451H1078.42V855.1H986.832V891.282H912.654V1003.59H833.184V878.627H778.374V1003.59H749.196V827.973H725.886V777.931H671.094V1003.59H649.008V838.827H563.184V1003.59H544.788V861.742H458.964V1003.59H409.302V853.894H314.892V881.039H226.602V1003.59H155.484V891.876H61.074V1003.59H50.022V849.682H0V1032.98H1440V777.031H1359.79Z" fill="#1657A2"/>
<path d="M1385.77 920.551V994.516H1352.83V956.066H1277.77V983.284H1202.69V1008.12H1143.04V925.879H1090.22V976.767H1063.82V1008.12H1048.68V951.926H954.324V1009.1H905.958V951.926H867.276V1008.12H849.258V987.55H810.594V1008.12H788.022V951.926H716.49V1008.12H705.078V951.926H666.414V1008.12H657.756V877.925H619.092V1009.1H573.03V920.551H517.824V942.134H462.636V973.563H427.914V925.879H368.73V914.143H275.112V925.879H207.162V956.066H180.756V938.282H137.898V920.551H0V1032.98H1440V920.551H1385.77Z" fill="#0E3259"/>
<g filter="url(#filter0_d)">
<path d="M626.621 291.76V259H517.141L497.821 367.36H533.661C537.581 361.947 541.781 358.027 546.261 355.6C550.741 352.987 556.528 351.68 563.621 351.68C569.034 351.68 573.794 352.613 577.901 354.48C582.008 356.347 585.554 358.96 588.541 362.32C591.528 365.68 593.768 369.6 595.261 374.08C596.754 378.56 597.501 383.32 597.501 388.36C597.501 393.213 596.661 397.973 594.981 402.64C593.488 407.12 591.248 411.133 588.261 414.68C585.461 418.04 581.914 420.84 577.621 423.08C573.514 425.133 568.848 426.16 563.621 426.16C554.661 426.16 547.288 423.547 541.501 418.32C535.714 412.907 532.354 405.72 531.421 396.76H491.661C491.848 407.027 493.901 416.08 497.821 423.92C501.928 431.573 507.341 438.013 514.061 443.24C520.781 448.467 528.434 452.387 537.021 455C545.794 457.427 554.941 458.64 564.461 458.64C574.354 458.827 583.688 457.24 592.461 453.88C601.234 450.333 608.888 445.387 615.421 439.04C622.141 432.693 627.461 425.227 631.381 416.64C635.301 407.867 637.261 398.44 637.261 388.36C637.261 379.213 635.861 370.627 633.061 362.6C630.448 354.387 626.528 347.293 621.301 341.32C616.261 335.347 610.008 330.587 602.541 327.04C595.074 323.493 586.488 321.72 576.781 321.72C568.941 321.72 561.941 322.933 555.781 325.36C549.621 327.6 543.834 331.427 538.421 336.84L537.861 336.28L545.701 291.76H626.621ZM687.847 356.16C687.847 352.8 687.847 348.787 687.847 344.12C688.034 339.267 688.407 334.32 688.967 329.28C689.527 324.24 690.46 319.293 691.767 314.44C693.074 309.4 694.847 304.92 697.087 301C699.514 297.08 702.5 293.907 706.047 291.48C709.78 289.053 714.354 287.84 719.767 287.84C725.18 287.84 729.754 289.053 733.487 291.48C737.22 293.907 740.3 297.08 742.727 301C745.154 304.92 746.927 309.4 748.047 314.44C749.354 319.293 750.287 324.24 750.847 329.28C751.594 334.32 751.967 339.267 751.967 344.12C752.154 348.787 752.247 352.8 752.247 356.16C752.247 361.76 752.06 368.573 751.687 376.6C751.314 384.44 750.1 392.093 748.047 399.56C746.18 406.84 743.007 413.093 738.527 418.32C734.234 423.547 727.98 426.16 719.767 426.16C711.74 426.16 705.58 423.547 701.287 418.32C696.994 413.093 693.82 406.84 691.767 399.56C689.9 392.093 688.78 384.44 688.407 376.6C688.034 368.573 687.847 361.76 687.847 356.16ZM648.087 356.16C648.087 375.76 649.954 392.187 653.687 405.44C657.607 418.507 662.834 428.96 669.367 436.8C675.9 444.64 683.46 450.24 692.047 453.6C700.82 456.96 710.06 458.64 719.767 458.64C729.66 458.64 738.9 456.96 747.487 453.6C756.26 450.24 763.914 444.64 770.447 436.8C777.167 428.96 782.394 418.507 786.127 405.44C790.047 392.187 792.007 375.76 792.007 356.16C792.007 337.12 790.047 321.16 786.127 308.28C782.394 295.213 777.167 284.76 770.447 276.92C763.914 269.08 756.26 263.48 747.487 260.12C738.9 256.76 729.66 255.08 719.767 255.08C710.06 255.08 700.82 256.76 692.047 260.12C683.46 263.48 675.9 269.08 669.367 276.92C662.834 284.76 657.607 295.213 653.687 308.28C649.954 321.16 648.087 337.12 648.087 356.16ZM808.153 334.32H846.233C846.233 329.093 846.7 323.867 847.633 318.64C848.753 313.227 850.526 308.373 852.953 304.08C855.38 299.6 858.553 296.053 862.473 293.44C866.58 290.64 871.526 289.24 877.313 289.24C885.9 289.24 892.9 291.947 898.313 297.36C903.913 302.587 906.713 309.96 906.713 319.48C906.713 325.453 905.313 330.773 902.513 335.44C899.9 340.107 896.54 344.307 892.433 348.04C888.513 351.773 884.126 355.227 879.273 358.4C874.42 361.387 869.846 364.373 865.553 367.36C857.153 373.147 849.126 378.84 841.473 384.44C834.006 390.04 827.473 396.2 821.873 402.92C816.273 409.453 811.793 416.92 808.433 425.32C805.26 433.72 803.673 443.613 803.673 455H947.593V420.84H854.913C859.766 414.12 865.366 408.24 871.713 403.2C878.06 398.16 884.593 393.493 891.313 389.2C898.033 384.72 904.66 380.24 911.193 375.76C917.913 371.28 923.886 366.333 929.113 360.92C934.34 355.32 938.54 348.973 941.713 341.88C944.886 334.787 946.473 326.293 946.473 316.4C946.473 306.88 944.606 298.293 940.873 290.64C937.326 282.987 932.473 276.547 926.313 271.32C920.153 266.093 912.966 262.08 904.753 259.28C896.726 256.48 888.233 255.08 879.273 255.08C867.513 255.08 857.06 257.133 847.913 261.24C838.953 265.16 831.486 270.76 825.513 278.04C819.54 285.133 815.06 293.533 812.073 303.24C809.086 312.76 807.78 323.12 808.153 334.32Z" fill="#0E3259"/>
</g>
<path d="M155.321 505.72V487.72H159.801C161.348 487.72 162.641 487.947 163.681 488.4C164.748 488.827 165.601 489.453 166.241 490.28C166.881 491.107 167.335 492.107 167.601 493.28C167.895 494.427 168.041 495.72 168.041 497.16C168.041 498.733 167.841 500.067 167.441 501.16C167.041 502.253 166.508 503.147 165.841 503.84C165.175 504.507 164.415 504.987 163.561 505.28C162.708 505.573 161.828 505.72 160.921 505.72H155.321ZM149.041 482.44V511H161.361C163.548 511 165.441 510.64 167.041 509.92C168.668 509.173 170.015 508.16 171.081 506.88C172.175 505.6 172.988 504.08 173.521 502.32C174.055 500.56 174.321 498.64 174.321 496.56C174.321 494.187 173.988 492.12 173.321 490.36C172.681 488.6 171.775 487.133 170.601 485.96C169.455 484.787 168.081 483.907 166.481 483.32C164.908 482.733 163.201 482.44 161.361 482.44H149.041ZM177.85 496.68C177.93 495.347 178.263 494.24 178.85 493.36C179.436 492.48 180.183 491.773 181.09 491.24C181.996 490.707 183.01 490.333 184.13 490.12C185.276 489.88 186.423 489.76 187.57 489.76C188.61 489.76 189.663 489.84 190.73 490C191.796 490.133 192.77 490.413 193.65 490.84C194.53 491.267 195.25 491.867 195.81 492.64C196.37 493.387 196.65 494.387 196.65 495.64V506.4C196.65 507.333 196.703 508.227 196.81 509.08C196.916 509.933 197.103 510.573 197.37 511H191.61C191.503 510.68 191.41 510.36 191.33 510.04C191.276 509.693 191.236 509.347 191.21 509C190.303 509.933 189.236 510.587 188.01 510.96C186.783 511.333 185.53 511.52 184.25 511.52C183.263 511.52 182.343 511.4 181.49 511.16C180.636 510.92 179.89 510.547 179.25 510.04C178.61 509.533 178.103 508.893 177.73 508.12C177.383 507.347 177.21 506.427 177.21 505.36C177.21 504.187 177.41 503.227 177.81 502.48C178.236 501.707 178.77 501.093 179.41 500.64C180.076 500.187 180.823 499.853 181.65 499.64C182.503 499.4 183.356 499.213 184.21 499.08C185.063 498.947 185.903 498.84 186.73 498.76C187.556 498.68 188.29 498.56 188.93 498.4C189.57 498.24 190.076 498.013 190.45 497.72C190.823 497.4 190.996 496.947 190.97 496.36C190.97 495.747 190.863 495.267 190.65 494.92C190.463 494.547 190.196 494.267 189.85 494.08C189.53 493.867 189.143 493.733 188.69 493.68C188.263 493.6 187.796 493.56 187.29 493.56C186.17 493.56 185.29 493.8 184.65 494.28C184.01 494.76 183.636 495.56 183.53 496.68H177.85ZM190.97 500.88C190.73 501.093 190.423 501.267 190.05 501.4C189.703 501.507 189.316 501.6 188.89 501.68C188.49 501.76 188.063 501.827 187.61 501.88C187.156 501.933 186.703 502 186.25 502.08C185.823 502.16 185.396 502.267 184.97 502.4C184.57 502.533 184.21 502.72 183.89 502.96C183.596 503.173 183.356 503.453 183.17 503.8C182.983 504.147 182.89 504.587 182.89 505.12C182.89 505.627 182.983 506.053 183.17 506.4C183.356 506.747 183.61 507.027 183.93 507.24C184.25 507.427 184.623 507.56 185.05 507.64C185.476 507.72 185.916 507.76 186.37 507.76C187.49 507.76 188.356 507.573 188.97 507.2C189.583 506.827 190.036 506.387 190.33 505.88C190.623 505.347 190.796 504.813 190.85 504.28C190.93 503.747 190.97 503.32 190.97 503V500.88ZM201.058 490.32V511H206.738V500.16C206.738 498.053 207.085 496.547 207.778 495.64C208.472 494.707 209.592 494.24 211.138 494.24C212.498 494.24 213.445 494.667 213.978 495.52C214.512 496.347 214.778 497.613 214.778 499.32V511H220.458V498.28C220.458 497 220.338 495.84 220.098 494.8C219.885 493.733 219.498 492.84 218.938 492.12C218.378 491.373 217.605 490.8 216.618 490.4C215.658 489.973 214.418 489.76 212.898 489.76C211.698 489.76 210.525 490.04 209.378 490.6C208.232 491.133 207.298 492 206.578 493.2H206.458V490.32H201.058ZM234.409 506.12C233.529 506.12 232.796 505.933 232.209 505.56C231.623 505.187 231.143 504.707 230.769 504.12C230.423 503.533 230.169 502.88 230.009 502.16C229.876 501.413 229.809 500.667 229.809 499.92C229.809 499.147 229.889 498.413 230.049 497.72C230.236 497 230.516 496.373 230.889 495.84C231.289 495.28 231.769 494.84 232.329 494.52C232.916 494.2 233.609 494.04 234.409 494.04C235.343 494.04 236.116 494.213 236.729 494.56C237.343 494.907 237.836 495.373 238.209 495.96C238.583 496.547 238.849 497.227 239.009 498C239.169 498.747 239.249 499.547 239.249 500.4C239.249 501.147 239.143 501.867 238.929 502.56C238.743 503.227 238.449 503.827 238.049 504.36C237.649 504.893 237.143 505.32 236.529 505.64C235.916 505.96 235.209 506.12 234.409 506.12ZM244.649 509.68V490.32H239.249V493.08H239.169C238.476 491.88 237.609 491.027 236.569 490.52C235.556 490.013 234.369 489.76 233.009 489.76C231.569 489.76 230.289 490.04 229.169 490.6C228.076 491.16 227.156 491.92 226.409 492.88C225.663 493.813 225.089 494.907 224.689 496.16C224.316 497.387 224.129 498.667 224.129 500C224.129 501.413 224.289 502.76 224.609 504.04C224.956 505.293 225.489 506.4 226.209 507.36C226.929 508.293 227.849 509.04 228.969 509.6C230.089 510.133 231.423 510.4 232.969 510.4C234.223 510.4 235.409 510.147 236.529 509.64C237.676 509.107 238.556 508.293 239.169 507.2H239.249V509.92C239.276 511.387 238.916 512.6 238.169 513.56C237.449 514.52 236.289 515 234.689 515C233.676 515 232.783 514.787 232.009 514.36C231.236 513.96 230.716 513.227 230.449 512.16H224.809C224.889 513.333 225.209 514.333 225.769 515.16C226.356 516.013 227.076 516.707 227.929 517.24C228.809 517.773 229.769 518.16 230.809 518.4C231.876 518.667 232.916 518.8 233.929 518.8C236.303 518.8 238.196 518.48 239.609 517.84C241.023 517.2 242.103 516.413 242.849 515.48C243.596 514.573 244.076 513.587 244.289 512.52C244.529 511.453 244.649 510.507 244.649 509.68ZM249.503 504.84V511H255.783V504.84H249.503ZM255.583 490.12V482.44H249.663V490.12L251.183 502.44H254.023L255.583 490.12ZM274.648 496.72C274.648 495.28 274.835 493.867 275.208 492.48C275.581 491.067 276.168 489.8 276.968 488.68C277.768 487.56 278.795 486.667 280.048 486C281.301 485.307 282.795 484.96 284.528 484.96C286.261 484.96 287.755 485.307 289.008 486C290.261 486.667 291.288 487.56 292.088 488.68C292.888 489.8 293.475 491.067 293.848 492.48C294.221 493.867 294.408 495.28 294.408 496.72C294.408 498.16 294.221 499.587 293.848 501C293.475 502.387 292.888 503.64 292.088 504.76C291.288 505.88 290.261 506.787 289.008 507.48C287.755 508.147 286.261 508.48 284.528 508.48C282.795 508.48 281.301 508.147 280.048 507.48C278.795 506.787 277.768 505.88 276.968 504.76C276.168 503.64 275.581 502.387 275.208 501C274.835 499.587 274.648 498.16 274.648 496.72ZM270.848 496.72C270.848 498.667 271.128 500.547 271.688 502.36C272.275 504.147 273.141 505.733 274.288 507.12C275.435 508.507 276.861 509.613 278.568 510.44C280.275 511.24 282.261 511.64 284.528 511.64C286.795 511.64 288.781 511.24 290.488 510.44C292.195 509.613 293.621 508.507 294.768 507.12C295.915 505.733 296.768 504.147 297.328 502.36C297.915 500.547 298.208 498.667 298.208 496.72C298.208 494.773 297.915 492.907 297.328 491.12C296.768 489.307 295.915 487.707 294.768 486.32C293.621 484.933 292.195 483.827 290.488 483C288.781 482.173 286.795 481.76 284.528 481.76C282.261 481.76 280.275 482.173 278.568 483C276.861 483.827 275.435 484.933 274.288 486.32C273.141 487.707 272.275 489.307 271.688 491.12C271.128 492.907 270.848 494.773 270.848 496.72ZM319.399 511V490.32H315.999V502C315.999 502.933 315.865 503.8 315.599 504.6C315.359 505.373 314.985 506.053 314.479 506.64C313.972 507.227 313.332 507.68 312.559 508C311.812 508.32 310.919 508.48 309.879 508.48C308.572 508.48 307.545 508.107 306.799 507.36C306.052 506.613 305.679 505.6 305.679 504.32V490.32H302.279V503.92C302.279 505.04 302.385 506.067 302.599 507C302.839 507.907 303.239 508.693 303.799 509.36C304.359 510.027 305.092 510.547 305.999 510.92C306.905 511.267 308.039 511.44 309.399 511.44C310.919 511.44 312.239 511.147 313.359 510.56C314.479 509.947 315.399 509 316.119 507.72H316.199V511H319.399ZM324.385 490.32V511H327.785V501.8C327.785 500.467 327.919 499.293 328.185 498.28C328.452 497.24 328.879 496.36 329.465 495.64C330.052 494.92 330.825 494.373 331.785 494C332.745 493.627 333.905 493.44 335.265 493.44V489.84C333.425 489.787 331.905 490.16 330.705 490.96C329.505 491.76 328.492 493 327.665 494.68H327.585V490.32H324.385ZM351.038 504.48H347.638C347.692 505.76 347.958 506.853 348.438 507.76C348.918 508.64 349.558 509.36 350.358 509.92C351.158 510.453 352.078 510.84 353.118 511.08C354.158 511.32 355.252 511.44 356.398 511.44C357.438 511.44 358.478 511.333 359.518 511.12C360.585 510.933 361.532 510.587 362.358 510.08C363.212 509.573 363.892 508.907 364.398 508.08C364.932 507.253 365.198 506.213 365.198 504.96C365.198 503.973 364.998 503.147 364.598 502.48C364.225 501.813 363.718 501.267 363.078 500.84C362.465 500.387 361.745 500.027 360.918 499.76C360.118 499.493 359.292 499.267 358.438 499.08C357.638 498.893 356.838 498.72 356.038 498.56C355.238 498.373 354.518 498.16 353.878 497.92C353.238 497.653 352.705 497.333 352.278 496.96C351.878 496.56 351.678 496.067 351.678 495.48C351.678 494.947 351.812 494.52 352.078 494.2C352.345 493.853 352.692 493.587 353.118 493.4C353.545 493.187 354.012 493.04 354.518 492.96C355.052 492.88 355.572 492.84 356.078 492.84C356.638 492.84 357.185 492.907 357.718 493.04C358.278 493.147 358.785 493.333 359.238 493.6C359.692 493.867 360.065 494.227 360.358 494.68C360.652 495.107 360.825 495.653 360.878 496.32H364.278C364.198 495.067 363.932 494.027 363.478 493.2C363.025 492.347 362.412 491.68 361.638 491.2C360.892 490.693 360.025 490.347 359.038 490.16C358.052 489.947 356.972 489.84 355.798 489.84C354.892 489.84 353.972 489.96 353.038 490.2C352.132 490.413 351.305 490.76 350.558 491.24C349.838 491.693 349.238 492.293 348.758 493.04C348.305 493.787 348.078 494.68 348.078 495.72C348.078 497.053 348.412 498.093 349.078 498.84C349.745 499.587 350.572 500.173 351.558 500.6C352.572 501 353.665 501.32 354.838 501.56C356.012 501.773 357.092 502.027 358.078 502.32C359.092 502.587 359.932 502.947 360.598 503.4C361.265 503.853 361.598 504.52 361.598 505.4C361.598 506.04 361.438 506.573 361.118 507C360.798 507.4 360.385 507.707 359.878 507.92C359.398 508.133 358.865 508.28 358.278 508.36C357.692 508.44 357.132 508.48 356.598 508.48C355.905 508.48 355.225 508.413 354.558 508.28C353.918 508.147 353.332 507.933 352.798 507.64C352.292 507.32 351.878 506.907 351.558 506.4C351.238 505.867 351.065 505.227 351.038 504.48ZM383.318 498.68H371.438C371.492 497.88 371.665 497.133 371.958 496.44C372.252 495.72 372.652 495.093 373.158 494.56C373.665 494.027 374.265 493.613 374.958 493.32C375.678 493 376.478 492.84 377.358 492.84C378.212 492.84 378.985 493 379.678 493.32C380.398 493.613 381.012 494.027 381.518 494.56C382.052 495.067 382.465 495.68 382.758 496.4C383.078 497.12 383.265 497.88 383.318 498.68ZM386.598 504.44H383.238C382.945 505.8 382.332 506.813 381.398 507.48C380.492 508.147 379.318 508.48 377.878 508.48C376.758 508.48 375.785 508.293 374.958 507.92C374.132 507.547 373.452 507.053 372.918 506.44C372.385 505.8 371.998 505.08 371.758 504.28C371.518 503.453 371.412 502.587 371.438 501.68H386.918C386.972 500.427 386.852 499.107 386.558 497.72C386.292 496.333 385.785 495.053 385.038 493.88C384.318 492.707 383.345 491.747 382.118 491C380.918 490.227 379.398 489.84 377.558 489.84C376.145 489.84 374.838 490.107 373.638 490.64C372.465 491.173 371.438 491.92 370.558 492.88C369.705 493.84 369.038 494.973 368.558 496.28C368.078 497.587 367.838 499.027 367.838 500.6C367.892 502.173 368.118 503.627 368.518 504.96C368.945 506.293 369.572 507.44 370.398 508.4C371.225 509.36 372.238 510.107 373.438 510.64C374.665 511.173 376.105 511.44 377.758 511.44C380.105 511.44 382.052 510.853 383.598 509.68C385.145 508.507 386.145 506.76 386.598 504.44ZM390.323 490.32V511H393.723V501.8C393.723 500.467 393.856 499.293 394.123 498.28C394.389 497.24 394.816 496.36 395.403 495.64C395.989 494.92 396.763 494.373 397.723 494C398.683 493.627 399.843 493.44 401.203 493.44V489.84C399.363 489.787 397.843 490.16 396.643 490.96C395.443 491.76 394.429 493 393.603 494.68H393.523V490.32H390.323ZM413.083 511L420.643 490.32H417.083L411.443 507.56H411.363L405.563 490.32H401.763L409.443 511H413.083ZM438.123 498.68H426.243C426.296 497.88 426.47 497.133 426.763 496.44C427.056 495.72 427.456 495.093 427.963 494.56C428.47 494.027 429.07 493.613 429.763 493.32C430.483 493 431.283 492.84 432.163 492.84C433.016 492.84 433.79 493 434.483 493.32C435.203 493.613 435.816 494.027 436.323 494.56C436.856 495.067 437.27 495.68 437.563 496.4C437.883 497.12 438.07 497.88 438.123 498.68ZM441.403 504.44H438.043C437.75 505.8 437.136 506.813 436.203 507.48C435.296 508.147 434.123 508.48 432.683 508.48C431.563 508.48 430.59 508.293 429.763 507.92C428.936 507.547 428.256 507.053 427.723 506.44C427.19 505.8 426.803 505.08 426.563 504.28C426.323 503.453 426.216 502.587 426.243 501.68H441.723C441.776 500.427 441.656 499.107 441.363 497.72C441.096 496.333 440.59 495.053 439.843 493.88C439.123 492.707 438.15 491.747 436.923 491C435.723 490.227 434.203 489.84 432.363 489.84C430.95 489.84 429.643 490.107 428.443 490.64C427.27 491.173 426.243 491.92 425.363 492.88C424.51 493.84 423.843 494.973 423.363 496.28C422.883 497.587 422.643 499.027 422.643 500.6C422.696 502.173 422.923 503.627 423.323 504.96C423.75 506.293 424.376 507.44 425.203 508.4C426.03 509.36 427.043 510.107 428.243 510.64C429.47 511.173 430.91 511.44 432.563 511.44C434.91 511.44 436.856 510.853 438.403 509.68C439.95 508.507 440.95 506.76 441.403 504.44ZM445.128 490.32V511H448.528V501.8C448.528 500.467 448.661 499.293 448.928 498.28C449.194 497.24 449.621 496.36 450.208 495.64C450.794 494.92 451.568 494.373 452.528 494C453.488 493.627 454.648 493.44 456.008 493.44V489.84C454.168 489.787 452.648 490.16 451.448 490.96C450.248 491.76 449.234 493 448.408 494.68H448.328V490.32H445.128ZM471.101 493.32V511H474.501V493.32H478.501V490.32H474.501V487.44C474.501 486.533 474.727 485.92 475.181 485.6C475.634 485.28 476.274 485.12 477.101 485.12C477.394 485.12 477.714 485.147 478.061 485.2C478.407 485.227 478.727 485.293 479.021 485.4V482.44C478.701 482.333 478.327 482.253 477.901 482.2C477.501 482.147 477.141 482.12 476.821 482.12C474.954 482.12 473.527 482.56 472.541 483.44C471.581 484.293 471.101 485.56 471.101 487.24V490.32H467.621V493.32H471.101ZM495.897 498.68H484.017C484.07 497.88 484.243 497.133 484.537 496.44C484.83 495.72 485.23 495.093 485.737 494.56C486.243 494.027 486.843 493.613 487.537 493.32C488.257 493 489.057 492.84 489.937 492.84C490.79 492.84 491.563 493 492.257 493.32C492.977 493.613 493.59 494.027 494.097 494.56C494.63 495.067 495.043 495.68 495.337 496.4C495.657 497.12 495.843 497.88 495.897 498.68ZM499.177 504.44H495.817C495.523 505.8 494.91 506.813 493.977 507.48C493.07 508.147 491.897 508.48 490.457 508.48C489.337 508.48 488.363 508.293 487.537 507.92C486.71 507.547 486.03 507.053 485.497 506.44C484.963 505.8 484.577 505.08 484.337 504.28C484.097 503.453 483.99 502.587 484.017 501.68H499.497C499.55 500.427 499.43 499.107 499.137 497.72C498.87 496.333 498.363 495.053 497.617 493.88C496.897 492.707 495.923 491.747 494.697 491C493.497 490.227 491.977 489.84 490.137 489.84C488.723 489.84 487.417 490.107 486.217 490.64C485.043 491.173 484.017 491.92 483.137 492.88C482.283 493.84 481.617 494.973 481.137 496.28C480.657 497.587 480.417 499.027 480.417 500.6C480.47 502.173 480.697 503.627 481.097 504.96C481.523 506.293 482.15 507.44 482.977 508.4C483.803 509.36 484.817 510.107 486.017 510.64C487.243 511.173 488.683 511.44 490.337 511.44C492.683 511.44 494.63 510.853 496.177 509.68C497.723 508.507 498.723 506.76 499.177 504.44ZM517.381 498.68H505.501C505.554 497.88 505.728 497.133 506.021 496.44C506.314 495.72 506.714 495.093 507.221 494.56C507.728 494.027 508.328 493.613 509.021 493.32C509.741 493 510.541 492.84 511.421 492.84C512.274 492.84 513.048 493 513.741 493.32C514.461 493.613 515.074 494.027 515.581 494.56C516.114 495.067 516.528 495.68 516.821 496.4C517.141 497.12 517.328 497.88 517.381 498.68ZM520.661 504.44H517.301C517.008 505.8 516.394 506.813 515.461 507.48C514.554 508.147 513.381 508.48 511.941 508.48C510.821 508.48 509.848 508.293 509.021 507.92C508.194 507.547 507.514 507.053 506.981 506.44C506.448 505.8 506.061 505.08 505.821 504.28C505.581 503.453 505.474 502.587 505.501 501.68H520.981C521.034 500.427 520.914 499.107 520.621 497.72C520.354 496.333 519.848 495.053 519.101 493.88C518.381 492.707 517.408 491.747 516.181 491C514.981 490.227 513.461 489.84 511.621 489.84C510.208 489.84 508.901 490.107 507.701 490.64C506.528 491.173 505.501 491.92 504.621 492.88C503.768 493.84 503.101 494.973 502.621 496.28C502.141 497.587 501.901 499.027 501.901 500.6C501.954 502.173 502.181 503.627 502.581 504.96C503.008 506.293 503.634 507.44 504.461 508.4C505.288 509.36 506.301 510.107 507.501 510.64C508.728 511.173 510.168 511.44 511.821 511.44C514.168 511.44 516.114 510.853 517.661 509.68C519.208 508.507 520.208 506.76 520.661 504.44ZM524.705 482.44V511H528.105V482.44H524.705ZM535.453 504.48H532.053C532.106 505.76 532.373 506.853 532.853 507.76C533.333 508.64 533.973 509.36 534.773 509.92C535.573 510.453 536.493 510.84 537.533 511.08C538.573 511.32 539.666 511.44 540.812 511.44C541.853 511.44 542.893 511.333 543.933 511.12C544.999 510.933 545.946 510.587 546.773 510.08C547.626 509.573 548.306 508.907 548.813 508.08C549.346 507.253 549.613 506.213 549.613 504.96C549.613 503.973 549.413 503.147 549.013 502.48C548.639 501.813 548.133 501.267 547.493 500.84C546.879 500.387 546.159 500.027 545.333 499.76C544.533 499.493 543.706 499.267 542.853 499.08C542.053 498.893 541.253 498.72 540.453 498.56C539.653 498.373 538.933 498.16 538.293 497.92C537.653 497.653 537.119 497.333 536.692 496.96C536.292 496.56 536.092 496.067 536.092 495.48C536.092 494.947 536.226 494.52 536.493 494.2C536.759 493.853 537.106 493.587 537.533 493.4C537.959 493.187 538.426 493.04 538.933 492.96C539.466 492.88 539.986 492.84 540.493 492.84C541.053 492.84 541.599 492.907 542.133 493.04C542.693 493.147 543.199 493.333 543.653 493.6C544.106 493.867 544.479 494.227 544.773 494.68C545.066 495.107 545.239 495.653 545.293 496.32H548.693C548.613 495.067 548.346 494.027 547.893 493.2C547.439 492.347 546.826 491.68 546.053 491.2C545.306 490.693 544.439 490.347 543.453 490.16C542.466 489.947 541.386 489.84 540.213 489.84C539.306 489.84 538.386 489.96 537.453 490.2C536.546 490.413 535.719 490.76 534.973 491.24C534.253 491.693 533.653 492.293 533.173 493.04C532.719 493.787 532.493 494.68 532.493 495.72C532.493 497.053 532.826 498.093 533.493 498.84C534.159 499.587 534.986 500.173 535.973 500.6C536.986 501 538.079 501.32 539.253 501.56C540.426 501.773 541.506 502.027 542.493 502.32C543.506 502.587 544.346 502.947 545.013 503.4C545.679 503.853 546.013 504.52 546.013 505.4C546.013 506.04 545.853 506.573 545.533 507C545.213 507.4 544.799 507.707 544.293 507.92C543.813 508.133 543.279 508.28 542.693 508.36C542.106 508.44 541.546 508.48 541.013 508.48C540.319 508.48 539.639 508.413 538.973 508.28C538.333 508.147 537.746 507.933 537.213 507.64C536.706 507.32 536.293 506.907 535.973 506.4C535.653 505.867 535.479 505.227 535.453 504.48ZM582.825 510.92C582.239 511.267 581.425 511.44 580.385 511.44C579.505 511.44 578.799 511.2 578.265 510.72C577.759 510.213 577.505 509.4 577.505 508.28C576.572 509.4 575.479 510.213 574.225 510.72C572.999 511.2 571.665 511.44 570.225 511.44C569.292 511.44 568.399 511.333 567.545 511.12C566.719 510.907 565.999 510.573 565.385 510.12C564.772 509.667 564.279 509.08 563.905 508.36C563.559 507.613 563.385 506.72 563.385 505.68C563.385 504.507 563.585 503.547 563.985 502.8C564.385 502.053 564.905 501.453 565.545 501C566.212 500.52 566.959 500.16 567.785 499.92C568.639 499.68 569.505 499.48 570.385 499.32C571.319 499.133 572.199 499 573.025 498.92C573.879 498.813 574.625 498.68 575.265 498.52C575.905 498.333 576.412 498.08 576.785 497.76C577.159 497.413 577.345 496.92 577.345 496.28C577.345 495.533 577.199 494.933 576.905 494.48C576.639 494.027 576.279 493.68 575.825 493.44C575.399 493.2 574.905 493.04 574.345 492.96C573.812 492.88 573.279 492.84 572.745 492.84C571.305 492.84 570.105 493.12 569.145 493.68C568.185 494.213 567.665 495.24 567.585 496.76H564.185C564.239 495.48 564.505 494.4 564.985 493.52C565.465 492.64 566.105 491.933 566.905 491.4C567.705 490.84 568.612 490.44 569.625 490.2C570.665 489.96 571.772 489.84 572.945 489.84C573.879 489.84 574.799 489.907 575.705 490.04C576.639 490.173 577.479 490.453 578.225 490.88C578.972 491.28 579.572 491.853 580.025 492.6C580.479 493.347 580.705 494.32 580.705 495.52V506.16C580.705 506.96 580.745 507.547 580.825 507.92C580.932 508.293 581.252 508.48 581.785 508.48C582.079 508.48 582.425 508.413 582.825 508.28V510.92ZM577.305 500.32C576.879 500.64 576.319 500.88 575.625 501.04C574.932 501.173 574.199 501.293 573.425 501.4C572.679 501.48 571.919 501.587 571.145 501.72C570.372 501.827 569.679 502.013 569.065 502.28C568.452 502.547 567.945 502.933 567.545 503.44C567.172 503.92 566.985 504.587 566.985 505.44C566.985 506 567.092 506.48 567.305 506.88C567.545 507.253 567.839 507.56 568.185 507.8C568.559 508.04 568.985 508.213 569.465 508.32C569.945 508.427 570.452 508.48 570.985 508.48C572.105 508.48 573.065 508.333 573.865 508.04C574.665 507.72 575.319 507.333 575.825 506.88C576.332 506.4 576.705 505.893 576.945 505.36C577.185 504.8 577.305 504.28 577.305 503.8V500.32ZM597.243 482.44V511H600.643V508.24H600.723C601.096 508.853 601.549 509.373 602.083 509.8C602.643 510.2 603.229 510.52 603.843 510.76C604.456 511 605.069 511.173 605.683 511.28C606.323 511.387 606.896 511.44 607.403 511.44C608.976 511.44 610.349 511.16 611.523 510.6C612.723 510.04 613.709 509.28 614.483 508.32C615.283 507.333 615.869 506.187 616.243 504.88C616.643 503.573 616.843 502.187 616.843 500.72C616.843 499.253 616.643 497.867 616.243 496.56C615.843 495.253 615.243 494.107 614.443 493.12C613.669 492.107 612.683 491.307 611.483 490.72C610.309 490.133 608.923 489.84 607.323 489.84C605.883 489.84 604.563 490.107 603.363 490.64C602.163 491.147 601.283 491.973 600.723 493.12H600.643V482.44H597.243ZM613.243 500.48C613.243 501.493 613.136 502.48 612.923 503.44C612.709 504.4 612.363 505.253 611.883 506C611.403 506.747 610.763 507.347 609.963 507.8C609.189 508.253 608.216 508.48 607.043 508.48C605.869 508.48 604.869 508.267 604.043 507.84C603.216 507.387 602.536 506.8 602.003 506.08C601.496 505.36 601.123 504.533 600.883 503.6C600.643 502.64 600.523 501.653 600.523 500.64C600.523 499.68 600.629 498.733 600.843 497.8C601.083 496.867 601.456 496.04 601.963 495.32C602.469 494.573 603.123 493.973 603.923 493.52C604.723 493.067 605.696 492.84 606.843 492.84C607.936 492.84 608.883 493.053 609.683 493.48C610.509 493.907 611.176 494.48 611.683 495.2C612.216 495.92 612.603 496.747 612.843 497.68C613.109 498.587 613.243 499.52 613.243 500.48ZM624.433 486.6V482.44H621.033V486.6H624.433ZM621.033 490.32V511H624.433V490.32H621.033ZM634.421 490.32V484.12H631.021V490.32H627.501V493.32H631.021V506.48C631.021 507.44 631.114 508.213 631.301 508.8C631.487 509.387 631.767 509.84 632.141 510.16C632.541 510.48 633.047 510.707 633.661 510.84C634.301 510.947 635.061 511 635.941 511H638.541V508H636.981C636.447 508 636.007 507.987 635.661 507.96C635.341 507.907 635.087 507.813 634.901 507.68C634.714 507.547 634.581 507.36 634.501 507.12C634.447 506.88 634.421 506.56 634.421 506.16V493.32H638.541V490.32H634.421ZM655.531 504.48H652.131C652.184 505.76 652.451 506.853 652.931 507.76C653.411 508.64 654.051 509.36 654.851 509.92C655.651 510.453 656.571 510.84 657.611 511.08C658.651 511.32 659.744 511.44 660.891 511.44C661.931 511.44 662.971 511.333 664.011 511.12C665.077 510.933 666.024 510.587 666.851 510.08C667.704 509.573 668.384 508.907 668.891 508.08C669.424 507.253 669.691 506.213 669.691 504.96C669.691 503.973 669.491 503.147 669.091 502.48C668.717 501.813 668.211 501.267 667.571 500.84C666.957 500.387 666.237 500.027 665.411 499.76C664.611 499.493 663.784 499.267 662.931 499.08C662.131 498.893 661.331 498.72 660.531 498.56C659.731 498.373 659.011 498.16 658.371 497.92C657.731 497.653 657.197 497.333 656.771 496.96C656.371 496.56 656.171 496.067 656.171 495.48C656.171 494.947 656.304 494.52 656.571 494.2C656.837 493.853 657.184 493.587 657.611 493.4C658.037 493.187 658.504 493.04 659.011 492.96C659.544 492.88 660.064 492.84 660.571 492.84C661.131 492.84 661.677 492.907 662.211 493.04C662.771 493.147 663.277 493.333 663.731 493.6C664.184 493.867 664.557 494.227 664.851 494.68C665.144 495.107 665.317 495.653 665.371 496.32H668.771C668.691 495.067 668.424 494.027 667.971 493.2C667.517 492.347 666.904 491.68 666.131 491.2C665.384 490.693 664.517 490.347 663.531 490.16C662.544 489.947 661.464 489.84 660.291 489.84C659.384 489.84 658.464 489.96 657.531 490.2C656.624 490.413 655.797 490.76 655.051 491.24C654.331 491.693 653.731 492.293 653.251 493.04C652.797 493.787 652.571 494.68 652.571 495.72C652.571 497.053 652.904 498.093 653.571 498.84C654.237 499.587 655.064 500.173 656.051 500.6C657.064 501 658.157 501.32 659.331 501.56C660.504 501.773 661.584 502.027 662.571 502.32C663.584 502.587 664.424 502.947 665.091 503.4C665.757 503.853 666.091 504.52 666.091 505.4C666.091 506.04 665.931 506.573 665.611 507C665.291 507.4 664.877 507.707 664.371 507.92C663.891 508.133 663.357 508.28 662.771 508.36C662.184 508.44 661.624 508.48 661.091 508.48C660.397 508.48 659.717 508.413 659.051 508.28C658.411 508.147 657.824 507.933 657.291 507.64C656.784 507.32 656.371 506.907 656.051 506.4C655.731 505.867 655.557 505.227 655.531 504.48ZM677.051 486.6V482.44H673.651V486.6H677.051ZM673.651 490.32V511H677.051V490.32H673.651ZM696.358 496.96H699.878C699.744 495.733 699.424 494.68 698.918 493.8C698.411 492.893 697.758 492.147 696.958 491.56C696.184 490.973 695.278 490.547 694.238 490.28C693.224 489.987 692.131 489.84 690.958 489.84C689.331 489.84 687.904 490.133 686.678 490.72C685.451 491.28 684.424 492.067 683.598 493.08C682.798 494.067 682.198 495.24 681.798 496.6C681.398 497.933 681.198 499.373 681.198 500.92C681.198 502.467 681.398 503.893 681.798 505.2C682.224 506.48 682.838 507.587 683.638 508.52C684.464 509.453 685.478 510.173 686.678 510.68C687.904 511.187 689.304 511.44 690.878 511.44C693.518 511.44 695.598 510.747 697.118 509.36C698.664 507.973 699.624 506 699.998 503.44H696.518C696.304 505.04 695.718 506.28 694.758 507.16C693.824 508.04 692.518 508.48 690.838 508.48C689.771 508.48 688.851 508.267 688.078 507.84C687.304 507.413 686.678 506.853 686.198 506.16C685.718 505.44 685.358 504.627 685.118 503.72C684.904 502.813 684.798 501.88 684.798 500.92C684.798 499.88 684.904 498.88 685.118 497.92C685.331 496.933 685.678 496.067 686.158 495.32C686.664 494.573 687.331 493.973 688.158 493.52C688.984 493.067 690.011 492.84 691.238 492.84C692.678 492.84 693.824 493.2 694.678 493.92C695.531 494.64 696.091 495.653 696.358 496.96ZM704.002 482.44V511H707.402V503.16L710.602 500.2L717.682 511H722.002L713.202 497.84L721.402 490.32H716.842L707.402 499.36V482.44H704.002ZM740.397 490.32V484.12H736.997V490.32H733.477V493.32H736.997V506.48C736.997 507.44 737.091 508.213 737.277 508.8C737.464 509.387 737.744 509.84 738.117 510.16C738.517 510.48 739.024 510.707 739.637 510.84C740.277 510.947 741.037 511 741.917 511H744.517V508H742.957C742.424 508 741.984 507.987 741.637 507.96C741.317 507.907 741.064 507.813 740.877 507.68C740.691 507.547 740.557 507.36 740.477 507.12C740.424 506.88 740.397 506.56 740.397 506.16V493.32H744.517V490.32H740.397ZM750.774 500.68C750.774 499.427 750.934 498.32 751.254 497.36C751.601 496.373 752.068 495.547 752.654 494.88C753.241 494.213 753.921 493.707 754.694 493.36C755.494 493.013 756.334 492.84 757.214 492.84C758.094 492.84 758.921 493.013 759.694 493.36C760.494 493.707 761.188 494.213 761.774 494.88C762.361 495.547 762.814 496.373 763.134 497.36C763.481 498.32 763.654 499.427 763.654 500.68C763.654 501.933 763.481 503.053 763.134 504.04C762.814 505 762.361 505.813 761.774 506.48C761.188 507.12 760.494 507.613 759.694 507.96C758.921 508.307 758.094 508.48 757.214 508.48C756.334 508.48 755.494 508.307 754.694 507.96C753.921 507.613 753.241 507.12 752.654 506.48C752.068 505.813 751.601 505 751.254 504.04C750.934 503.053 750.774 501.933 750.774 500.68ZM747.174 500.68C747.174 502.2 747.388 503.613 747.814 504.92C748.241 506.227 748.881 507.373 749.734 508.36C750.588 509.32 751.641 510.08 752.894 510.64C754.148 511.173 755.588 511.44 757.214 511.44C758.868 511.44 760.308 511.173 761.534 510.64C762.788 510.08 763.841 509.32 764.694 508.36C765.548 507.373 766.188 506.227 766.614 504.92C767.041 503.613 767.254 502.2 767.254 500.68C767.254 499.16 767.041 497.747 766.614 496.44C766.188 495.107 765.548 493.96 764.694 493C763.841 492.013 762.788 491.24 761.534 490.68C760.308 490.12 758.868 489.84 757.214 489.84C755.588 489.84 754.148 490.12 752.894 490.68C751.641 491.24 750.588 492.013 749.734 493C748.881 493.96 748.241 495.107 747.814 496.44C747.388 497.747 747.174 499.16 747.174 500.68ZM773.743 500.84C773.743 499.827 773.85 498.84 774.063 497.88C774.276 496.92 774.623 496.067 775.103 495.32C775.583 494.573 776.223 493.973 777.023 493.52C777.823 493.067 778.796 492.84 779.943 492.84C781.116 492.84 782.116 493.067 782.943 493.52C783.77 493.947 784.436 494.52 784.943 495.24C785.476 495.96 785.863 496.8 786.103 497.76C786.343 498.693 786.463 499.667 786.463 500.68C786.463 501.64 786.343 502.587 786.103 503.52C785.89 504.453 785.53 505.293 785.023 506.04C784.516 506.76 783.863 507.347 783.063 507.8C782.263 508.253 781.29 508.48 780.143 508.48C779.05 508.48 778.09 508.267 777.263 507.84C776.463 507.413 775.796 506.84 775.263 506.12C774.756 505.4 774.37 504.587 774.103 503.68C773.863 502.747 773.743 501.8 773.743 500.84ZM789.743 511V482.44H786.343V493.08H786.263C785.89 492.467 785.423 491.96 784.863 491.56C784.33 491.133 783.756 490.8 783.143 490.56C782.53 490.293 781.916 490.107 781.303 490C780.69 489.893 780.116 489.84 779.583 489.84C778.01 489.84 776.623 490.133 775.423 490.72C774.25 491.28 773.263 492.053 772.463 493.04C771.69 494 771.103 495.133 770.703 496.44C770.33 497.747 770.143 499.133 770.143 500.6C770.143 502.067 770.343 503.453 770.743 504.76C771.143 506.067 771.73 507.213 772.503 508.2C773.303 509.187 774.29 509.973 775.463 510.56C776.663 511.147 778.063 511.44 779.663 511.44C781.103 511.44 782.423 511.187 783.623 510.68C784.823 510.173 785.703 509.347 786.263 508.2H786.343V511H789.743ZM813.294 510.92C812.707 511.267 811.894 511.44 810.854 511.44C809.974 511.44 809.267 511.2 808.734 510.72C808.227 510.213 807.974 509.4 807.974 508.28C807.041 509.4 805.947 510.213 804.694 510.72C803.467 511.2 802.134 511.44 800.694 511.44C799.761 511.44 798.867 511.333 798.014 511.12C797.187 510.907 796.467 510.573 795.854 510.12C795.241 509.667 794.747 509.08 794.374 508.36C794.027 507.613 793.854 506.72 793.854 505.68C793.854 504.507 794.054 503.547 794.454 502.8C794.854 502.053 795.374 501.453 796.014 501C796.681 500.52 797.427 500.16 798.254 499.92C799.107 499.68 799.974 499.48 800.854 499.32C801.787 499.133 802.667 499 803.494 498.92C804.347 498.813 805.094 498.68 805.734 498.52C806.374 498.333 806.881 498.08 807.254 497.76C807.627 497.413 807.814 496.92 807.814 496.28C807.814 495.533 807.667 494.933 807.374 494.48C807.107 494.027 806.747 493.68 806.294 493.44C805.867 493.2 805.374 493.04 804.814 492.96C804.281 492.88 803.747 492.84 803.214 492.84C801.774 492.84 800.574 493.12 799.614 493.68C798.654 494.213 798.134 495.24 798.054 496.76H794.654C794.707 495.48 794.974 494.4 795.454 493.52C795.934 492.64 796.574 491.933 797.374 491.4C798.174 490.84 799.081 490.44 800.094 490.2C801.134 489.96 802.241 489.84 803.414 489.84C804.347 489.84 805.267 489.907 806.174 490.04C807.107 490.173 807.947 490.453 808.694 490.88C809.441 491.28 810.041 491.853 810.494 492.6C810.947 493.347 811.174 494.32 811.174 495.52V506.16C811.174 506.96 811.214 507.547 811.294 507.92C811.401 508.293 811.721 508.48 812.254 508.48C812.547 508.48 812.894 508.413 813.294 508.28V510.92ZM807.774 500.32C807.347 500.64 806.787 500.88 806.094 501.04C805.401 501.173 804.667 501.293 803.894 501.4C803.147 501.48 802.387 501.587 801.614 501.72C800.841 501.827 800.147 502.013 799.534 502.28C798.921 502.547 798.414 502.933 798.014 503.44C797.641 503.92 797.454 504.587 797.454 505.44C797.454 506 797.561 506.48 797.774 506.88C798.014 507.253 798.307 507.56 798.654 507.8C799.027 508.04 799.454 508.213 799.934 508.32C800.414 508.427 800.921 508.48 801.454 508.48C802.574 508.48 803.534 508.333 804.334 508.04C805.134 507.72 805.787 507.333 806.294 506.88C806.801 506.4 807.174 505.893 807.414 505.36C807.654 504.8 807.774 504.28 807.774 503.8V500.32ZM824.578 513.76C824.178 514.773 823.778 515.627 823.378 516.32C823.005 517.013 822.578 517.573 822.098 518C821.645 518.453 821.125 518.773 820.538 518.96C819.978 519.173 819.325 519.28 818.578 519.28C818.178 519.28 817.778 519.253 817.378 519.2C816.978 519.147 816.592 519.053 816.218 518.92V515.8C816.512 515.933 816.845 516.04 817.218 516.12C817.618 516.227 817.952 516.28 818.218 516.28C818.912 516.28 819.485 516.107 819.938 515.76C820.418 515.44 820.778 514.973 821.018 514.36L822.418 510.88L814.218 490.32H818.058L824.098 507.24H824.178L829.978 490.32H833.578L824.578 513.76ZM834.25 506.56V511H836.61C836.636 511.32 836.61 511.667 836.53 512.04C836.476 512.413 836.356 512.773 836.17 513.12C835.983 513.493 835.73 513.827 835.41 514.12C835.116 514.44 834.743 514.68 834.29 514.84V516.84C835.836 516.387 836.956 515.613 837.65 514.52C838.343 513.427 838.69 512.12 838.69 510.6V506.56H834.25ZM876.235 511L882.835 490.32H879.315L874.675 507.24H874.595L870.275 490.32H866.555L862.395 507.24H862.315L857.635 490.32H853.875L860.515 511H864.195L868.355 494.56H868.435L872.635 511H876.235ZM900.428 498.68H888.548C888.601 497.88 888.774 497.133 889.068 496.44C889.361 495.72 889.761 495.093 890.268 494.56C890.774 494.027 891.374 493.613 892.068 493.32C892.788 493 893.588 492.84 894.468 492.84C895.321 492.84 896.094 493 896.788 493.32C897.508 493.613 898.121 494.027 898.628 494.56C899.161 495.067 899.574 495.68 899.868 496.4C900.188 497.12 900.374 497.88 900.428 498.68ZM903.708 504.44H900.348C900.054 505.8 899.441 506.813 898.508 507.48C897.601 508.147 896.428 508.48 894.988 508.48C893.868 508.48 892.894 508.293 892.068 507.92C891.241 507.547 890.561 507.053 890.028 506.44C889.494 505.8 889.108 505.08 888.868 504.28C888.628 503.453 888.521 502.587 888.548 501.68H904.028C904.081 500.427 903.961 499.107 903.668 497.72C903.401 496.333 902.894 495.053 902.148 493.88C901.428 492.707 900.454 491.747 899.228 491C898.028 490.227 896.508 489.84 894.668 489.84C893.254 489.84 891.948 490.107 890.748 490.64C889.574 491.173 888.548 491.92 887.668 492.88C886.814 493.84 886.148 494.973 885.668 496.28C885.188 497.587 884.948 499.027 884.948 500.6C885.001 502.173 885.228 503.627 885.628 504.96C886.054 506.293 886.681 507.44 887.508 508.4C888.334 509.36 889.348 510.107 890.548 510.64C891.774 511.173 893.214 511.44 894.868 511.44C897.214 511.44 899.161 510.853 900.708 509.68C902.254 508.507 903.254 506.76 903.708 504.44ZM908.312 482.44V486.88H910.672C910.672 487.333 910.632 487.8 910.552 488.28C910.499 488.733 910.379 489.147 910.192 489.52C910.006 489.893 909.766 490.2 909.472 490.44C909.179 490.653 908.806 490.76 908.352 490.76V492.76C909.126 492.76 909.779 492.6 910.312 492.28C910.872 491.96 911.326 491.533 911.672 491C912.046 490.467 912.312 489.853 912.472 489.16C912.659 488.44 912.752 487.68 912.752 486.88V482.44H908.312ZM918.565 490.32V511H921.965V501.8C921.965 500.467 922.098 499.293 922.365 498.28C922.632 497.24 923.058 496.36 923.645 495.64C924.232 494.92 925.005 494.373 925.965 494C926.925 493.627 928.085 493.44 929.445 493.44V489.84C927.605 489.787 926.085 490.16 924.885 490.96C923.685 491.76 922.672 493 921.845 494.68H921.765V490.32H918.565ZM945.662 498.68H933.782C933.836 497.88 934.009 497.133 934.302 496.44C934.596 495.72 934.996 495.093 935.502 494.56C936.009 494.027 936.609 493.613 937.302 493.32C938.022 493 938.822 492.84 939.702 492.84C940.556 492.84 941.329 493 942.022 493.32C942.742 493.613 943.356 494.027 943.862 494.56C944.396 495.067 944.809 495.68 945.102 496.4C945.422 497.12 945.609 497.88 945.662 498.68ZM948.942 504.44H945.582C945.289 505.8 944.676 506.813 943.742 507.48C942.836 508.147 941.662 508.48 940.222 508.48C939.102 508.48 938.129 508.293 937.302 507.92C936.476 507.547 935.796 507.053 935.262 506.44C934.729 505.8 934.342 505.08 934.102 504.28C933.862 503.453 933.756 502.587 933.782 501.68H949.262C949.316 500.427 949.196 499.107 948.902 497.72C948.636 496.333 948.129 495.053 947.382 493.88C946.662 492.707 945.689 491.747 944.462 491C943.262 490.227 941.742 489.84 939.902 489.84C938.489 489.84 937.182 490.107 935.982 490.64C934.809 491.173 933.782 491.92 932.902 492.88C932.049 493.84 931.382 494.973 930.902 496.28C930.422 497.587 930.182 499.027 930.182 500.6C930.236 502.173 930.462 503.627 930.862 504.96C931.289 506.293 931.916 507.44 932.742 508.4C933.569 509.36 934.582 510.107 935.782 510.64C937.009 511.173 938.449 511.44 940.102 511.44C942.449 511.44 944.396 510.853 945.942 509.68C947.489 508.507 948.489 506.76 948.942 504.44ZM977.959 496.96H981.479C981.346 495.733 981.026 494.68 980.519 493.8C980.013 492.893 979.359 492.147 978.559 491.56C977.786 490.973 976.879 490.547 975.839 490.28C974.826 489.987 973.733 489.84 972.559 489.84C970.933 489.84 969.506 490.133 968.279 490.72C967.053 491.28 966.026 492.067 965.199 493.08C964.399 494.067 963.799 495.24 963.399 496.6C962.999 497.933 962.799 499.373 962.799 500.92C962.799 502.467 962.999 503.893 963.399 505.2C963.826 506.48 964.439 507.587 965.239 508.52C966.066 509.453 967.079 510.173 968.279 510.68C969.506 511.187 970.906 511.44 972.479 511.44C975.119 511.44 977.199 510.747 978.719 509.36C980.266 507.973 981.226 506 981.599 503.44H978.119C977.906 505.04 977.319 506.28 976.359 507.16C975.426 508.04 974.119 508.48 972.439 508.48C971.373 508.48 970.453 508.267 969.679 507.84C968.906 507.413 968.279 506.853 967.799 506.16C967.319 505.44 966.959 504.627 966.719 503.72C966.506 502.813 966.399 501.88 966.399 500.92C966.399 499.88 966.506 498.88 966.719 497.92C966.933 496.933 967.279 496.067 967.759 495.32C968.266 494.573 968.933 493.973 969.759 493.52C970.586 493.067 971.613 492.84 972.839 492.84C974.279 492.84 975.426 493.2 976.279 493.92C977.133 494.64 977.693 495.653 977.959 496.96ZM1003.72 510.92C1003.14 511.267 1002.32 511.44 1001.28 511.44C1000.4 511.44 999.697 511.2 999.164 510.72C998.657 510.213 998.404 509.4 998.404 508.28C997.47 509.4 996.377 510.213 995.124 510.72C993.897 511.2 992.564 511.44 991.124 511.44C990.19 511.44 989.297 511.333 988.444 511.12C987.617 510.907 986.897 510.573 986.284 510.12C985.67 509.667 985.177 509.08 984.804 508.36C984.457 507.613 984.284 506.72 984.284 505.68C984.284 504.507 984.484 503.547 984.884 502.8C985.284 502.053 985.804 501.453 986.444 501C987.11 500.52 987.857 500.16 988.684 499.92C989.537 499.68 990.404 499.48 991.284 499.32C992.217 499.133 993.097 499 993.924 498.92C994.777 498.813 995.524 498.68 996.164 498.52C996.804 498.333 997.31 498.08 997.684 497.76C998.057 497.413 998.244 496.92 998.244 496.28C998.244 495.533 998.097 494.933 997.804 494.48C997.537 494.027 997.177 493.68 996.724 493.44C996.297 493.2 995.804 493.04 995.244 492.96C994.71 492.88 994.177 492.84 993.644 492.84C992.204 492.84 991.004 493.12 990.044 493.68C989.084 494.213 988.564 495.24 988.484 496.76H985.084C985.137 495.48 985.404 494.4 985.884 493.52C986.364 492.64 987.004 491.933 987.804 491.4C988.604 490.84 989.51 490.44 990.524 490.2C991.564 489.96 992.67 489.84 993.844 489.84C994.777 489.84 995.697 489.907 996.604 490.04C997.537 490.173 998.377 490.453 999.124 490.88C999.87 491.28 1000.47 491.853 1000.92 492.6C1001.38 493.347 1001.6 494.32 1001.6 495.52V506.16C1001.6 506.96 1001.64 507.547 1001.72 507.92C1001.83 508.293 1002.15 508.48 1002.68 508.48C1002.98 508.48 1003.32 508.413 1003.72 508.28V510.92ZM998.204 500.32C997.777 500.64 997.217 500.88 996.524 501.04C995.83 501.173 995.097 501.293 994.324 501.4C993.577 501.48 992.817 501.587 992.044 501.72C991.27 501.827 990.577 502.013 989.964 502.28C989.35 502.547 988.844 502.933 988.444 503.44C988.07 503.92 987.884 504.587 987.884 505.44C987.884 506 987.99 506.48 988.204 506.88C988.444 507.253 988.737 507.56 989.084 507.8C989.457 508.04 989.884 508.213 990.364 508.32C990.844 508.427 991.35 508.48 991.884 508.48C993.004 508.48 993.964 508.333 994.764 508.04C995.564 507.72 996.217 507.333 996.724 506.88C997.23 506.4 997.604 505.893 997.844 505.36C998.084 504.8 998.204 504.28 998.204 503.8V500.32ZM1007.09 482.44V511H1010.49V482.44H1007.09ZM1015.96 482.44V511H1019.36V482.44H1015.96ZM1028.22 486.6V482.44H1024.82V486.6H1028.22ZM1024.82 490.32V511H1028.22V490.32H1024.82ZM1033.49 490.32V511H1036.89V499.32C1036.89 498.387 1037.01 497.533 1037.25 496.76C1037.52 495.96 1037.9 495.267 1038.41 494.68C1038.92 494.093 1039.54 493.64 1040.29 493.32C1041.06 493 1041.97 492.84 1043.01 492.84C1044.32 492.84 1045.34 493.213 1046.09 493.96C1046.84 494.707 1047.21 495.72 1047.21 497V511H1050.61V497.4C1050.61 496.28 1050.49 495.267 1050.25 494.36C1050.04 493.427 1049.65 492.627 1049.09 491.96C1048.53 491.293 1047.8 490.773 1046.89 490.4C1045.98 490.027 1044.85 489.84 1043.49 489.84C1040.42 489.84 1038.18 491.093 1036.77 493.6H1036.69V490.32H1033.49ZM1073.56 509.24V490.32H1070.36V493.28H1070.32C1069.7 492.133 1068.85 491.28 1067.76 490.72C1066.66 490.133 1065.46 489.84 1064.16 489.84C1062.37 489.84 1060.86 490.187 1059.64 490.88C1058.41 491.547 1057.42 492.413 1056.68 493.48C1055.93 494.52 1055.4 495.693 1055.08 497C1054.76 498.28 1054.6 499.533 1054.6 500.76C1054.6 502.173 1054.78 503.52 1055.16 504.8C1055.56 506.053 1056.14 507.16 1056.92 508.12C1057.69 509.053 1058.65 509.8 1059.8 510.36C1060.94 510.92 1062.29 511.2 1063.84 511.2C1065.17 511.2 1066.42 510.907 1067.6 510.32C1068.8 509.707 1069.69 508.76 1070.28 507.48H1070.36V508.84C1070.36 509.987 1070.24 511.04 1070 512C1069.78 512.96 1069.42 513.773 1068.92 514.44C1068.41 515.133 1067.77 515.667 1067 516.04C1066.22 516.44 1065.28 516.64 1064.16 516.64C1063.6 516.64 1063.01 516.573 1062.4 516.44C1061.78 516.333 1061.21 516.147 1060.68 515.88C1060.17 515.613 1059.73 515.267 1059.36 514.84C1059.01 514.413 1058.82 513.893 1058.8 513.28H1055.4C1055.45 514.4 1055.74 515.347 1056.28 516.12C1056.81 516.893 1057.48 517.52 1058.28 518C1059.1 518.48 1060.01 518.827 1061 519.04C1062.01 519.253 1063 519.36 1063.96 519.36C1067.26 519.36 1069.69 518.52 1071.24 516.84C1072.78 515.16 1073.56 512.627 1073.56 509.24ZM1064.04 508.24C1062.92 508.24 1061.98 508.013 1061.24 507.56C1060.49 507.08 1059.89 506.467 1059.44 505.72C1058.98 504.947 1058.66 504.093 1058.48 503.16C1058.29 502.227 1058.2 501.293 1058.2 500.36C1058.2 499.373 1058.3 498.427 1058.52 497.52C1058.76 496.613 1059.12 495.813 1059.6 495.12C1060.1 494.427 1060.74 493.88 1061.52 493.48C1062.29 493.053 1063.22 492.84 1064.32 492.84C1065.38 492.84 1066.29 493.053 1067.04 493.48C1067.78 493.907 1068.38 494.48 1068.84 495.2C1069.32 495.893 1069.66 496.68 1069.88 497.56C1070.09 498.44 1070.2 499.333 1070.2 500.24C1070.2 501.2 1070.08 502.16 1069.84 503.12C1069.62 504.08 1069.28 504.947 1068.8 505.72C1068.32 506.467 1067.68 507.08 1066.88 507.56C1066.1 508.013 1065.16 508.24 1064.04 508.24ZM1094.54 490.32V484.12H1091.14V490.32H1087.62V493.32H1091.14V506.48C1091.14 507.44 1091.23 508.213 1091.42 508.8C1091.6 509.387 1091.88 509.84 1092.26 510.16C1092.66 510.48 1093.16 510.707 1093.78 510.84C1094.42 510.947 1095.18 511 1096.06 511H1098.66V508H1097.1C1096.56 508 1096.12 507.987 1095.78 507.96C1095.46 507.907 1095.2 507.813 1095.02 507.68C1094.83 507.547 1094.7 507.36 1094.62 507.12C1094.56 506.88 1094.54 506.56 1094.54 506.16V493.32H1098.66V490.32H1094.54ZM1102.44 482.44V511H1105.84V499.32C1105.84 498.387 1105.96 497.533 1106.2 496.76C1106.46 495.96 1106.85 495.267 1107.36 494.68C1107.86 494.093 1108.49 493.64 1109.24 493.32C1110.01 493 1110.92 492.84 1111.96 492.84C1113.26 492.84 1114.29 493.213 1115.04 493.96C1115.78 494.707 1116.16 495.72 1116.16 497V511H1119.56V497.4C1119.56 496.28 1119.44 495.267 1119.2 494.36C1118.98 493.427 1118.6 492.627 1118.04 491.96C1117.48 491.293 1116.74 490.773 1115.84 490.4C1114.93 490.027 1113.8 489.84 1112.44 489.84C1111.82 489.84 1111.18 489.907 1110.52 490.04C1109.88 490.173 1109.25 490.387 1108.64 490.68C1108.05 490.947 1107.52 491.307 1107.04 491.76C1106.56 492.187 1106.18 492.72 1105.92 493.36H1105.84V482.44H1102.44ZM1139.02 498.68H1127.14C1127.19 497.88 1127.37 497.133 1127.66 496.44C1127.95 495.72 1128.35 495.093 1128.86 494.56C1129.37 494.027 1129.97 493.613 1130.66 493.32C1131.38 493 1132.18 492.84 1133.06 492.84C1133.91 492.84 1134.69 493 1135.38 493.32C1136.1 493.613 1136.71 494.027 1137.22 494.56C1137.75 495.067 1138.17 495.68 1138.46 496.4C1138.78 497.12 1138.97 497.88 1139.02 498.68ZM1142.3 504.44H1138.94C1138.65 505.8 1138.03 506.813 1137.1 507.48C1136.19 508.147 1135.02 508.48 1133.58 508.48C1132.46 508.48 1131.49 508.293 1130.66 507.92C1129.83 507.547 1129.15 507.053 1128.62 506.44C1128.09 505.8 1127.7 505.08 1127.46 504.28C1127.22 503.453 1127.11 502.587 1127.14 501.68H1142.62C1142.67 500.427 1142.55 499.107 1142.26 497.72C1141.99 496.333 1141.49 495.053 1140.74 493.88C1140.02 492.707 1139.05 491.747 1137.82 491C1136.62 490.227 1135.1 489.84 1133.26 489.84C1131.85 489.84 1130.54 490.107 1129.34 490.64C1128.17 491.173 1127.14 491.92 1126.26 492.88C1125.41 493.84 1124.74 494.973 1124.26 496.28C1123.78 497.587 1123.54 499.027 1123.54 500.6C1123.59 502.173 1123.82 503.627 1124.22 504.96C1124.65 506.293 1125.27 507.44 1126.1 508.4C1126.93 509.36 1127.94 510.107 1129.14 510.64C1130.37 511.173 1131.81 511.44 1133.46 511.44C1135.81 511.44 1137.75 510.853 1139.3 509.68C1140.85 508.507 1141.85 506.76 1142.3 504.44ZM1157.28 490.32V511H1160.68V498.12C1160.68 497.72 1160.77 497.227 1160.96 496.64C1161.17 496.027 1161.49 495.44 1161.92 494.88C1162.37 494.32 1162.95 493.84 1163.64 493.44C1164.36 493.04 1165.21 492.84 1166.2 492.84C1166.97 492.84 1167.6 492.96 1168.08 493.2C1168.59 493.413 1168.99 493.733 1169.28 494.16C1169.57 494.56 1169.77 495.04 1169.88 495.6C1170.01 496.16 1170.08 496.773 1170.08 497.44V511H1173.48V498.12C1173.48 496.52 1173.96 495.24 1174.92 494.28C1175.88 493.32 1177.2 492.84 1178.88 492.84C1179.71 492.84 1180.37 492.96 1180.88 493.2C1181.41 493.44 1181.83 493.773 1182.12 494.2C1182.41 494.6 1182.61 495.08 1182.72 495.64C1182.83 496.2 1182.88 496.8 1182.88 497.44V511H1186.28V495.84C1186.28 494.773 1186.11 493.867 1185.76 493.12C1185.44 492.347 1184.97 491.72 1184.36 491.24C1183.77 490.76 1183.05 490.413 1182.2 490.2C1181.37 489.96 1180.44 489.84 1179.4 489.84C1178.04 489.84 1176.79 490.147 1175.64 490.76C1174.52 491.373 1173.61 492.24 1172.92 493.36C1172.49 492.08 1171.76 491.173 1170.72 490.64C1169.68 490.107 1168.52 489.84 1167.24 489.84C1164.33 489.84 1162.11 491.013 1160.56 493.36H1160.48V490.32H1157.28ZM1205.74 498.68H1193.86C1193.91 497.88 1194.09 497.133 1194.38 496.44C1194.67 495.72 1195.07 495.093 1195.58 494.56C1196.09 494.027 1196.69 493.613 1197.38 493.32C1198.1 493 1198.9 492.84 1199.78 492.84C1200.63 492.84 1201.41 493 1202.1 493.32C1202.82 493.613 1203.43 494.027 1203.94 494.56C1204.47 495.067 1204.89 495.68 1205.18 496.4C1205.5 497.12 1205.69 497.88 1205.74 498.68ZM1209.02 504.44H1205.66C1205.37 505.8 1204.75 506.813 1203.82 507.48C1202.91 508.147 1201.74 508.48 1200.3 508.48C1199.18 508.48 1198.21 508.293 1197.38 507.92C1196.55 507.547 1195.87 507.053 1195.34 506.44C1194.81 505.8 1194.42 505.08 1194.18 504.28C1193.94 503.453 1193.83 502.587 1193.86 501.68H1209.34C1209.39 500.427 1209.27 499.107 1208.98 497.72C1208.71 496.333 1208.21 495.053 1207.46 493.88C1206.74 492.707 1205.77 491.747 1204.54 491C1203.34 490.227 1201.82 489.84 1199.98 489.84C1198.57 489.84 1197.26 490.107 1196.06 490.64C1194.89 491.173 1193.86 491.92 1192.98 492.88C1192.13 493.84 1191.46 494.973 1190.98 496.28C1190.5 497.587 1190.26 499.027 1190.26 500.6C1190.31 502.173 1190.54 503.627 1190.94 504.96C1191.37 506.293 1191.99 507.44 1192.82 508.4C1193.65 509.36 1194.66 510.107 1195.86 510.64C1197.09 511.173 1198.53 511.44 1200.18 511.44C1202.53 511.44 1204.47 510.853 1206.02 509.68C1207.57 508.507 1208.57 506.76 1209.02 504.44ZM1215.34 500.84C1215.34 499.827 1215.45 498.84 1215.66 497.88C1215.88 496.92 1216.22 496.067 1216.7 495.32C1217.18 494.573 1217.82 493.973 1218.62 493.52C1219.42 493.067 1220.4 492.84 1221.54 492.84C1222.72 492.84 1223.72 493.067 1224.54 493.52C1225.37 493.947 1226.04 494.52 1226.54 495.24C1227.08 495.96 1227.46 496.8 1227.7 497.76C1227.94 498.693 1228.06 499.667 1228.06 500.68C1228.06 501.64 1227.94 502.587 1227.7 503.52C1227.49 504.453 1227.13 505.293 1226.62 506.04C1226.12 506.76 1225.46 507.347 1224.66 507.8C1223.86 508.253 1222.89 508.48 1221.74 508.48C1220.65 508.48 1219.69 508.267 1218.86 507.84C1218.06 507.413 1217.4 506.84 1216.86 506.12C1216.36 505.4 1215.97 504.587 1215.7 503.68C1215.46 502.747 1215.34 501.8 1215.34 500.84ZM1231.34 511V482.44H1227.94V493.08H1227.86C1227.49 492.467 1227.02 491.96 1226.46 491.56C1225.93 491.133 1225.36 490.8 1224.74 490.56C1224.13 490.293 1223.52 490.107 1222.9 490C1222.29 489.893 1221.72 489.84 1221.18 489.84C1219.61 489.84 1218.22 490.133 1217.02 490.72C1215.85 491.28 1214.86 492.053 1214.06 493.04C1213.29 494 1212.7 495.133 1212.3 496.44C1211.93 497.747 1211.74 499.133 1211.74 500.6C1211.74 502.067 1211.94 503.453 1212.34 504.76C1212.74 506.067 1213.33 507.213 1214.1 508.2C1214.9 509.187 1215.89 509.973 1217.06 510.56C1218.26 511.147 1219.66 511.44 1221.26 511.44C1222.7 511.44 1224.02 511.187 1225.22 510.68C1226.42 510.173 1227.3 509.347 1227.86 508.2H1227.94V511H1231.34ZM1240.18 486.6V482.44H1236.78V486.6H1240.18ZM1236.78 490.32V511H1240.18V490.32H1236.78ZM1259.48 496.96H1263C1262.87 495.733 1262.55 494.68 1262.04 493.8C1261.54 492.893 1260.88 492.147 1260.08 491.56C1259.31 490.973 1258.4 490.547 1257.36 490.28C1256.35 489.987 1255.26 489.84 1254.08 489.84C1252.46 489.84 1251.03 490.133 1249.8 490.72C1248.58 491.28 1247.55 492.067 1246.72 493.08C1245.92 494.067 1245.32 495.24 1244.92 496.6C1244.52 497.933 1244.32 499.373 1244.32 500.92C1244.32 502.467 1244.52 503.893 1244.92 505.2C1245.35 506.48 1245.96 507.587 1246.76 508.52C1247.59 509.453 1248.6 510.173 1249.8 510.68C1251.03 511.187 1252.43 511.44 1254 511.44C1256.64 511.44 1258.72 510.747 1260.24 509.36C1261.79 507.973 1262.75 506 1263.12 503.44H1259.64C1259.43 505.04 1258.84 506.28 1257.88 507.16C1256.95 508.04 1255.64 508.48 1253.96 508.48C1252.9 508.48 1251.98 508.267 1251.2 507.84C1250.43 507.413 1249.8 506.853 1249.32 506.16C1248.84 505.44 1248.48 504.627 1248.24 503.72C1248.03 502.813 1247.92 501.88 1247.92 500.92C1247.92 499.88 1248.03 498.88 1248.24 497.92C1248.46 496.933 1248.8 496.067 1249.28 495.32C1249.79 494.573 1250.46 493.973 1251.28 493.52C1252.11 493.067 1253.14 492.84 1254.36 492.84C1255.8 492.84 1256.95 493.2 1257.8 493.92C1258.66 494.64 1259.22 495.653 1259.48 496.96ZM1269.01 504.48H1265.61C1265.66 505.76 1265.93 506.853 1266.41 507.76C1266.89 508.64 1267.53 509.36 1268.33 509.92C1269.13 510.453 1270.05 510.84 1271.09 511.08C1272.13 511.32 1273.22 511.44 1274.37 511.44C1275.41 511.44 1276.45 511.333 1277.49 511.12C1278.55 510.933 1279.5 510.587 1280.33 510.08C1281.18 509.573 1281.86 508.907 1282.37 508.08C1282.9 507.253 1283.17 506.213 1283.17 504.96C1283.17 503.973 1282.97 503.147 1282.57 502.48C1282.19 501.813 1281.69 501.267 1281.05 500.84C1280.43 500.387 1279.71 500.027 1278.89 499.76C1278.09 499.493 1277.26 499.267 1276.41 499.08C1275.61 498.893 1274.81 498.72 1274.01 498.56C1273.21 498.373 1272.49 498.16 1271.85 497.92C1271.21 497.653 1270.67 497.333 1270.25 496.96C1269.85 496.56 1269.65 496.067 1269.65 495.48C1269.65 494.947 1269.78 494.52 1270.05 494.2C1270.31 493.853 1270.66 493.587 1271.09 493.4C1271.51 493.187 1271.98 493.04 1272.49 492.96C1273.02 492.88 1273.54 492.84 1274.05 492.84C1274.61 492.84 1275.15 492.907 1275.69 493.04C1276.25 493.147 1276.75 493.333 1277.21 493.6C1277.66 493.867 1278.03 494.227 1278.33 494.68C1278.62 495.107 1278.79 495.653 1278.85 496.32H1282.25C1282.17 495.067 1281.9 494.027 1281.45 493.2C1280.99 492.347 1280.38 491.68 1279.61 491.2C1278.86 490.693 1277.99 490.347 1277.01 490.16C1276.02 489.947 1274.94 489.84 1273.77 489.84C1272.86 489.84 1271.94 489.96 1271.01 490.2C1270.1 490.413 1269.27 490.76 1268.53 491.24C1267.81 491.693 1267.21 492.293 1266.73 493.04C1266.27 493.787 1266.05 494.68 1266.05 495.72C1266.05 497.053 1266.38 498.093 1267.05 498.84C1267.71 499.587 1268.54 500.173 1269.53 500.6C1270.54 501 1271.63 501.32 1272.81 501.56C1273.98 501.773 1275.06 502.027 1276.05 502.32C1277.06 502.587 1277.9 502.947 1278.57 503.4C1279.23 503.853 1279.57 504.52 1279.57 505.4C1279.57 506.04 1279.41 506.573 1279.09 507C1278.77 507.4 1278.35 507.707 1277.85 507.92C1277.37 508.133 1276.83 508.28 1276.25 508.36C1275.66 508.44 1275.1 508.48 1274.57 508.48C1273.87 508.48 1273.19 508.413 1272.53 508.28C1271.89 508.147 1271.3 507.933 1270.77 507.64C1270.26 507.32 1269.85 506.907 1269.53 506.4C1269.21 505.867 1269.03 505.227 1269.01 504.48ZM1287.33 506.56V511H1291.77V506.56H1287.33ZM1291.45 491.24V482.44H1287.65V491.24L1288.65 503.68H1290.45L1291.45 491.24Z" fill="black"/>
<path d="M1091.88 32.15V50H1094.26V41.825H1103.66V50H1106.03V32.15H1103.66V39.825H1094.26V32.15H1091.88ZM1111.12 43.55C1111.12 42.7667 1111.22 42.075 1111.42 41.475C1111.64 40.8583 1111.93 40.3417 1112.3 39.925C1112.66 39.5083 1113.09 39.1917 1113.57 38.975C1114.07 38.7583 1114.6 38.65 1115.15 38.65C1115.7 38.65 1116.21 38.7583 1116.7 38.975C1117.2 39.1917 1117.63 39.5083 1118 39.925C1118.36 40.3417 1118.65 40.8583 1118.85 41.475C1119.06 42.075 1119.17 42.7667 1119.17 43.55C1119.17 44.3333 1119.06 45.0333 1118.85 45.65C1118.65 46.25 1118.36 46.7583 1118 47.175C1117.63 47.575 1117.2 47.8833 1116.7 48.1C1116.21 48.3167 1115.7 48.425 1115.15 48.425C1114.6 48.425 1114.07 48.3167 1113.57 48.1C1113.09 47.8833 1112.66 47.575 1112.3 47.175C1111.93 46.7583 1111.64 46.25 1111.42 45.65C1111.22 45.0333 1111.12 44.3333 1111.12 43.55ZM1108.87 43.55C1108.87 44.5 1109.01 45.3833 1109.27 46.2C1109.54 47.0167 1109.94 47.7333 1110.47 48.35C1111.01 48.95 1111.66 49.425 1112.45 49.775C1113.23 50.1083 1114.13 50.275 1115.15 50.275C1116.18 50.275 1117.08 50.1083 1117.85 49.775C1118.63 49.425 1119.29 48.95 1119.82 48.35C1120.36 47.7333 1120.76 47.0167 1121.02 46.2C1121.29 45.3833 1121.42 44.5 1121.42 43.55C1121.42 42.6 1121.29 41.7167 1121.02 40.9C1120.76 40.0667 1120.36 39.35 1119.82 38.75C1119.29 38.1333 1118.63 37.65 1117.85 37.3C1117.08 36.95 1116.18 36.775 1115.15 36.775C1114.13 36.775 1113.23 36.95 1112.45 37.3C1111.66 37.65 1111.01 38.1333 1110.47 38.75C1109.94 39.35 1109.54 40.0667 1109.27 40.9C1109.01 41.7167 1108.87 42.6 1108.87 43.55ZM1123.93 37.075V50H1126.05V41.95C1126.05 41.7 1126.11 41.3917 1126.23 41.025C1126.36 40.6417 1126.56 40.275 1126.83 39.925C1127.11 39.575 1127.47 39.275 1127.9 39.025C1128.35 38.775 1128.89 38.65 1129.5 38.65C1129.99 38.65 1130.38 38.725 1130.68 38.875C1130.99 39.0083 1131.24 39.2083 1131.43 39.475C1131.61 39.725 1131.74 40.025 1131.8 40.375C1131.89 40.725 1131.93 41.1083 1131.93 41.525V50H1134.05V41.95C1134.05 40.95 1134.35 40.15 1134.95 39.55C1135.55 38.95 1136.38 38.65 1137.43 38.65C1137.94 38.65 1138.36 38.725 1138.68 38.875C1139.01 39.025 1139.27 39.2333 1139.45 39.5C1139.64 39.75 1139.76 40.05 1139.83 40.4C1139.89 40.75 1139.93 41.125 1139.93 41.525V50H1142.05V40.525C1142.05 39.8583 1141.94 39.2917 1141.73 38.825C1141.53 38.3417 1141.24 37.95 1140.85 37.65C1140.49 37.35 1140.04 37.1333 1139.5 37C1138.99 36.85 1138.4 36.775 1137.75 36.775C1136.9 36.775 1136.12 36.9667 1135.4 37.35C1134.7 37.7333 1134.14 38.275 1133.7 38.975C1133.44 38.175 1132.98 37.6083 1132.33 37.275C1131.68 36.9417 1130.95 36.775 1130.15 36.775C1128.34 36.775 1126.94 37.5083 1125.98 38.975H1125.93V37.075H1123.93ZM1154.22 42.3H1146.79C1146.82 41.8 1146.93 41.3333 1147.12 40.9C1147.3 40.45 1147.55 40.0583 1147.87 39.725C1148.18 39.3917 1148.56 39.1333 1148.99 38.95C1149.44 38.75 1149.94 38.65 1150.49 38.65C1151.02 38.65 1151.51 38.75 1151.94 38.95C1152.39 39.1333 1152.77 39.3917 1153.09 39.725C1153.42 40.0417 1153.68 40.425 1153.87 40.875C1154.07 41.325 1154.18 41.8 1154.22 42.3ZM1156.27 45.9H1154.17C1153.98 46.75 1153.6 47.3833 1153.02 47.8C1152.45 48.2167 1151.72 48.425 1150.82 48.425C1150.12 48.425 1149.51 48.3083 1148.99 48.075C1148.47 47.8417 1148.05 47.5333 1147.72 47.15C1147.38 46.75 1147.14 46.3 1146.99 45.8C1146.84 45.2833 1146.77 44.7417 1146.79 44.175H1156.47C1156.5 43.3917 1156.42 42.5667 1156.24 41.7C1156.07 40.8333 1155.76 40.0333 1155.29 39.3C1154.84 38.5667 1154.23 37.9667 1153.47 37.5C1152.72 37.0167 1151.77 36.775 1150.62 36.775C1149.73 36.775 1148.92 36.9417 1148.17 37.275C1147.43 37.6083 1146.79 38.075 1146.24 38.675C1145.71 39.275 1145.29 39.9833 1144.99 40.8C1144.69 41.6167 1144.54 42.5167 1144.54 43.5C1144.57 44.4833 1144.72 45.3917 1144.97 46.225C1145.23 47.0583 1145.62 47.775 1146.14 48.375C1146.66 48.975 1147.29 49.4417 1148.04 49.775C1148.81 50.1083 1149.71 50.275 1150.74 50.275C1152.21 50.275 1153.42 49.9083 1154.39 49.175C1155.36 48.4417 1155.98 47.35 1156.27 45.9Z" fill="black"/>
<rect x="1195" y="18" width="190" height="45" rx="22.5" fill="url(#paint0_linear)"/>
<path d="M1240.79 37.525H1243.17C1243.03 36.575 1242.75 35.7417 1242.32 35.025C1241.88 34.2917 1241.34 33.6833 1240.69 33.2C1240.04 32.7167 1239.3 32.35 1238.47 32.1C1237.63 31.85 1236.75 31.725 1235.82 31.725C1234.45 31.725 1233.23 31.975 1232.17 32.475C1231.12 32.9583 1230.23 33.625 1229.52 34.475C1228.82 35.325 1228.28 36.325 1227.92 37.475C1227.55 38.6083 1227.37 39.825 1227.37 41.125C1227.37 42.425 1227.53 43.6417 1227.87 44.775C1228.22 45.9083 1228.73 46.8917 1229.42 47.725C1230.1 48.5583 1230.96 49.2167 1231.99 49.7C1233.03 50.1667 1234.23 50.4 1235.62 50.4C1237.9 50.4 1239.7 49.775 1241.02 48.525C1242.33 47.275 1243.11 45.525 1243.34 43.275H1240.97C1240.92 44.0083 1240.77 44.6917 1240.52 45.325C1240.27 45.9583 1239.92 46.5083 1239.47 46.975C1239.03 47.425 1238.51 47.7833 1237.89 48.05C1237.29 48.3 1236.6 48.425 1235.82 48.425C1234.75 48.425 1233.83 48.225 1233.07 47.825C1232.3 47.425 1231.67 46.8917 1231.17 46.225C1230.68 45.5417 1230.33 44.75 1230.09 43.85C1229.86 42.9333 1229.74 41.9667 1229.74 40.95C1229.74 40.0167 1229.86 39.1167 1230.09 38.25C1230.33 37.3833 1230.68 36.6167 1231.17 35.95C1231.67 35.2667 1232.29 34.725 1233.04 34.325C1233.81 33.925 1234.73 33.725 1235.79 33.725C1237.04 33.725 1238.12 34.0417 1239.02 34.675C1239.93 35.3083 1240.53 36.2583 1240.79 37.525ZM1247.48 43.55C1247.48 42.7667 1247.58 42.075 1247.78 41.475C1248 40.8583 1248.29 40.3417 1248.66 39.925C1249.03 39.5083 1249.45 39.1917 1249.93 38.975C1250.43 38.7583 1250.96 38.65 1251.51 38.65C1252.06 38.65 1252.58 38.7583 1253.06 38.975C1253.56 39.1917 1253.99 39.5083 1254.36 39.925C1254.73 40.3417 1255.01 40.8583 1255.21 41.475C1255.43 42.075 1255.53 42.7667 1255.53 43.55C1255.53 44.3333 1255.43 45.0333 1255.21 45.65C1255.01 46.25 1254.73 46.7583 1254.36 47.175C1253.99 47.575 1253.56 47.8833 1253.06 48.1C1252.58 48.3167 1252.06 48.425 1251.51 48.425C1250.96 48.425 1250.43 48.3167 1249.93 48.1C1249.45 47.8833 1249.03 47.575 1248.66 47.175C1248.29 46.7583 1248 46.25 1247.78 45.65C1247.58 45.0333 1247.48 44.3333 1247.48 43.55ZM1245.23 43.55C1245.23 44.5 1245.37 45.3833 1245.63 46.2C1245.9 47.0167 1246.3 47.7333 1246.83 48.35C1247.37 48.95 1248.03 49.425 1248.81 49.775C1249.59 50.1083 1250.49 50.275 1251.51 50.275C1252.54 50.275 1253.44 50.1083 1254.21 49.775C1254.99 49.425 1255.65 48.95 1256.18 48.35C1256.72 47.7333 1257.12 47.0167 1257.38 46.2C1257.65 45.3833 1257.78 44.5 1257.78 43.55C1257.78 42.6 1257.65 41.7167 1257.38 40.9C1257.12 40.0667 1256.72 39.35 1256.18 38.75C1255.65 38.1333 1254.99 37.65 1254.21 37.3C1253.44 36.95 1252.54 36.775 1251.51 36.775C1250.49 36.775 1249.59 36.95 1248.81 37.3C1248.03 37.65 1247.37 38.1333 1246.83 38.75C1246.3 39.35 1245.9 40.0667 1245.63 40.9C1245.37 41.7167 1245.23 42.6 1245.23 43.55ZM1260.29 37.075V50H1262.41V42.7C1262.41 42.1167 1262.49 41.5833 1262.64 41.1C1262.81 40.6 1263.05 40.1667 1263.36 39.8C1263.68 39.4333 1264.07 39.15 1264.54 38.95C1265.02 38.75 1265.59 38.65 1266.24 38.65C1267.06 38.65 1267.7 38.8833 1268.16 39.35C1268.63 39.8167 1268.86 40.45 1268.86 41.25V50H1270.99V41.5C1270.99 40.8 1270.91 40.1667 1270.76 39.6C1270.63 39.0167 1270.39 38.5167 1270.04 38.1C1269.69 37.6833 1269.23 37.3583 1268.66 37.125C1268.1 36.8917 1267.39 36.775 1266.54 36.775C1264.62 36.775 1263.22 37.5583 1262.34 39.125H1262.29V37.075H1260.29ZM1277.13 37.075V33.2H1275.01V37.075H1272.81V38.95H1275.01V47.175C1275.01 47.775 1275.06 48.2583 1275.18 48.625C1275.3 48.9917 1275.47 49.275 1275.71 49.475C1275.96 49.675 1276.27 49.8167 1276.66 49.9C1277.06 49.9667 1277.53 50 1278.08 50H1279.71V48.125H1278.73C1278.4 48.125 1278.12 48.1167 1277.91 48.1C1277.71 48.0667 1277.55 48.0083 1277.43 47.925C1277.31 47.8417 1277.23 47.725 1277.18 47.575C1277.15 47.425 1277.13 47.225 1277.13 46.975V38.95H1279.71V37.075H1277.13ZM1293.52 49.95C1293.15 50.1667 1292.64 50.275 1291.99 50.275C1291.44 50.275 1291 50.125 1290.67 49.825C1290.35 49.5083 1290.19 49 1290.19 48.3C1289.61 49 1288.93 49.5083 1288.14 49.825C1287.38 50.125 1286.54 50.275 1285.64 50.275C1285.06 50.275 1284.5 50.2083 1283.97 50.075C1283.45 49.9417 1283 49.7333 1282.62 49.45C1282.23 49.1667 1281.93 48.8 1281.69 48.35C1281.48 47.8833 1281.37 47.325 1281.37 46.675C1281.37 45.9417 1281.49 45.3417 1281.74 44.875C1281.99 44.4083 1282.32 44.0333 1282.72 43.75C1283.13 43.45 1283.6 43.225 1284.12 43.075C1284.65 42.925 1285.19 42.8 1285.74 42.7C1286.33 42.5833 1286.88 42.5 1287.39 42.45C1287.93 42.3833 1288.39 42.3 1288.79 42.2C1289.19 42.0833 1289.51 41.925 1289.74 41.725C1289.98 41.5083 1290.09 41.2 1290.09 40.8C1290.09 40.3333 1290 39.9583 1289.82 39.675C1289.65 39.3917 1289.43 39.175 1289.14 39.025C1288.88 38.875 1288.57 38.775 1288.22 38.725C1287.88 38.675 1287.55 38.65 1287.22 38.65C1286.32 38.65 1285.57 38.825 1284.97 39.175C1284.37 39.5083 1284.04 40.15 1283.99 41.1H1281.87C1281.9 40.3 1282.07 39.625 1282.37 39.075C1282.67 38.525 1283.07 38.0833 1283.57 37.75C1284.07 37.4 1284.63 37.15 1285.27 37C1285.92 36.85 1286.61 36.775 1287.34 36.775C1287.93 36.775 1288.5 36.8167 1289.07 36.9C1289.65 36.9833 1290.18 37.1583 1290.64 37.425C1291.11 37.675 1291.48 38.0333 1291.77 38.5C1292.05 38.9667 1292.19 39.575 1292.19 40.325V46.975C1292.19 47.475 1292.22 47.8417 1292.27 48.075C1292.33 48.3083 1292.53 48.425 1292.87 48.425C1293.05 48.425 1293.27 48.3833 1293.52 48.3V49.95ZM1290.07 43.325C1289.8 43.525 1289.45 43.675 1289.02 43.775C1288.58 43.8583 1288.13 43.9333 1287.64 44C1287.18 44.05 1286.7 44.1167 1286.22 44.2C1285.73 44.2667 1285.3 44.3833 1284.92 44.55C1284.53 44.7167 1284.22 44.9583 1283.97 45.275C1283.73 45.575 1283.62 45.9917 1283.62 46.525C1283.62 46.875 1283.68 47.175 1283.82 47.425C1283.97 47.6583 1284.15 47.85 1284.37 48C1284.6 48.15 1284.87 48.2583 1285.17 48.325C1285.47 48.3917 1285.78 48.425 1286.12 48.425C1286.82 48.425 1287.42 48.3333 1287.92 48.15C1288.42 47.95 1288.83 47.7083 1289.14 47.425C1289.46 47.125 1289.69 46.8083 1289.84 46.475C1289.99 46.125 1290.07 45.8 1290.07 45.5V43.325ZM1304.27 41.225H1306.47C1306.39 40.4583 1306.19 39.8 1305.87 39.25C1305.55 38.6833 1305.14 38.2167 1304.64 37.85C1304.16 37.4833 1303.59 37.2167 1302.94 37.05C1302.31 36.8667 1301.63 36.775 1300.89 36.775C1299.88 36.775 1298.99 36.9583 1298.22 37.325C1297.45 37.675 1296.81 38.1667 1296.29 38.8C1295.79 39.4167 1295.42 40.15 1295.17 41C1294.92 41.8333 1294.79 42.7333 1294.79 43.7C1294.79 44.6667 1294.92 45.5583 1295.17 46.375C1295.44 47.175 1295.82 47.8667 1296.32 48.45C1296.84 49.0333 1297.47 49.4833 1298.22 49.8C1298.99 50.1167 1299.86 50.275 1300.84 50.275C1302.49 50.275 1303.79 49.8417 1304.74 48.975C1305.71 48.1083 1306.31 46.875 1306.54 45.275H1304.37C1304.24 46.275 1303.87 47.05 1303.27 47.6C1302.69 48.15 1301.87 48.425 1300.82 48.425C1300.15 48.425 1299.58 48.2917 1299.09 48.025C1298.61 47.7583 1298.22 47.4083 1297.92 46.975C1297.62 46.525 1297.39 46.0167 1297.24 45.45C1297.11 44.8833 1297.04 44.3 1297.04 43.7C1297.04 43.05 1297.11 42.425 1297.24 41.825C1297.38 41.2083 1297.59 40.6667 1297.89 40.2C1298.21 39.7333 1298.63 39.3583 1299.14 39.075C1299.66 38.7917 1300.3 38.65 1301.07 38.65C1301.97 38.65 1302.69 38.875 1303.22 39.325C1303.75 39.775 1304.1 40.4083 1304.27 41.225ZM1311.87 37.075V33.2H1309.75V37.075H1307.55V38.95H1309.75V47.175C1309.75 47.775 1309.81 48.2583 1309.92 48.625C1310.04 48.9917 1310.21 49.275 1310.45 49.475C1310.7 49.675 1311.01 49.8167 1311.4 49.9C1311.8 49.9667 1312.27 50 1312.82 50H1314.45V48.125H1313.47C1313.14 48.125 1312.86 48.1167 1312.65 48.1C1312.45 48.0667 1312.29 48.0083 1312.17 47.925C1312.06 47.8417 1311.97 47.725 1311.92 47.575C1311.89 47.425 1311.87 47.225 1311.87 46.975V38.95H1314.45V37.075H1311.87ZM1338.37 43.55V32.15H1335.99V43.55C1335.99 45.15 1335.59 46.3667 1334.79 47.2C1334.01 48.0167 1332.86 48.425 1331.34 48.425C1329.74 48.425 1328.52 48.0167 1327.67 47.2C1326.82 46.3667 1326.39 45.15 1326.39 43.55V32.15H1324.02V43.55C1324.02 45.9333 1324.66 47.675 1325.94 48.775C1327.24 49.8583 1329.04 50.4 1331.34 50.4C1333.59 50.4 1335.32 49.8333 1336.54 48.7C1337.76 47.55 1338.37 45.8333 1338.37 43.55ZM1343.11 45.925H1340.98C1341.02 46.725 1341.18 47.4083 1341.48 47.975C1341.78 48.525 1342.18 48.975 1342.68 49.325C1343.18 49.6583 1343.76 49.9 1344.41 50.05C1345.06 50.2 1345.74 50.275 1346.46 50.275C1347.11 50.275 1347.76 50.2083 1348.41 50.075C1349.07 49.9583 1349.67 49.7417 1350.18 49.425C1350.72 49.1083 1351.14 48.6917 1351.46 48.175C1351.79 47.6583 1351.96 47.0083 1351.96 46.225C1351.96 45.6083 1351.83 45.0917 1351.58 44.675C1351.35 44.2583 1351.03 43.9167 1350.63 43.65C1350.25 43.3667 1349.8 43.1417 1349.28 42.975C1348.78 42.8083 1348.27 42.6667 1347.73 42.55C1347.23 42.4333 1346.73 42.325 1346.23 42.225C1345.73 42.1083 1345.28 41.975 1344.88 41.825C1344.48 41.6583 1344.15 41.4583 1343.88 41.225C1343.63 40.975 1343.51 40.6667 1343.51 40.3C1343.51 39.9667 1343.59 39.7 1343.76 39.5C1343.92 39.2833 1344.14 39.1167 1344.41 39C1344.67 38.8667 1344.97 38.775 1345.28 38.725C1345.62 38.675 1345.94 38.65 1346.26 38.65C1346.61 38.65 1346.95 38.6917 1347.28 38.775C1347.63 38.8417 1347.95 38.9583 1348.23 39.125C1348.52 39.2917 1348.75 39.5167 1348.93 39.8C1349.12 40.0667 1349.22 40.4083 1349.26 40.825H1351.38C1351.33 40.0417 1351.17 39.3917 1350.88 38.875C1350.6 38.3417 1350.22 37.925 1349.73 37.625C1349.27 37.3083 1348.72 37.0917 1348.11 36.975C1347.49 36.8417 1346.82 36.775 1346.08 36.775C1345.52 36.775 1344.94 36.85 1344.36 37C1343.79 37.1333 1343.27 37.35 1342.81 37.65C1342.36 37.9333 1341.98 38.3083 1341.68 38.775C1341.4 39.2417 1341.26 39.8 1341.26 40.45C1341.26 41.2833 1341.47 41.9333 1341.88 42.4C1342.3 42.8667 1342.82 43.2333 1343.43 43.5C1344.07 43.75 1344.75 43.95 1345.48 44.1C1346.22 44.2333 1346.89 44.3917 1347.51 44.575C1348.14 44.7417 1348.67 44.9667 1349.08 45.25C1349.5 45.5333 1349.71 45.95 1349.71 46.5C1349.71 46.9 1349.61 47.2333 1349.41 47.5C1349.21 47.75 1348.95 47.9417 1348.63 48.075C1348.33 48.2083 1348 48.3 1347.63 48.35C1347.27 48.4 1346.92 48.425 1346.58 48.425C1346.15 48.425 1345.72 48.3833 1345.31 48.3C1344.91 48.2167 1344.54 48.0833 1344.21 47.9C1343.89 47.7 1343.63 47.4417 1343.43 47.125C1343.23 46.7917 1343.12 46.3917 1343.11 45.925Z" fill="white"/>
</g>
<defs>
<filter id="filter0_d" x="468.661" y="236.08" width="501.932" height="249.575" filterUnits="userSpaceOnUse" color-interpolation-filters="sRGB">
<feFlood flood-opacity="0" result="BackgroundImageFix"/>
<feColorMatrix in="SourceAlpha" type="matrix" values="0 0 0 0 0 0 0 0 0 0 0 0 0 0 0 0 0 0 127 0"/>
<feOffset dy="4"/>
<feGaussianBlur stdDeviation="11.5"/>
<feColorMatrix type="matrix" values="0 0 0 0 0.054902 0 0 0 0 0.196078 0 0 0 0 0.34902 0 0 0 0.5 0"/>
<feBlend mode="normal" in2="BackgroundImageFix" result="effect1_dropShadow"/>
<feBlend mode="normal" in="SourceGraphic" in2="effect1_dropShadow" result="shape"/>
</filter>
<linearGradient id="paint0_linear" x1="1385" y1="40" x2="1195" y2="40" gradientUnits="userSpaceOnUse">
<stop stop-color="#6299F0"/>
<stop offset="1" stop-color="#4E79C8"/>
</linearGradient>
<clipPath id="clip0">
<rect width="1440" height="1024" fill="white"/>
</clipPath>
</defs>
</svg>
